<?xml version="1.0" encoding="UTF-8" standalone="no"?>
<!DOCTYPE svg PUBLIC "-//W3C//DTD SVG 1.1//EN"
 "http://www.w3.org/Graphics/SVG/1.1/DTD/svg11.dtd">
<!-- Generated by graphviz version 2.38.0 (20140413.2041)
 -->
<!-- Title: snakemake_dag Pages: 1 -->
<svg width="809pt" height="620pt"
 viewBox="0.00 0.00 809.00 620.00" xmlns="http://www.w3.org/2000/svg" xmlns:xlink="http://www.w3.org/1999/xlink">
<g id="graph0" class="graph" transform="scale(1 1) rotate(0) translate(4 616)">
<title>snakemake_dag</title>
<polygon fill="white" stroke="none" points="-4,4 -4,-616 805,-616 805,4 -4,4"/>
<!-- 0 -->
<g id="node1" class="node"><title>0</title>
<path fill="none" stroke="#68d856" stroke-width="2" d="M497,-36C497,-36 425,-36 425,-36 419,-36 413,-30 413,-24 413,-24 413,-12 413,-12 413,-6 419,-0 425,-0 425,-0 497,-0 497,-0 503,-0 509,-6 509,-12 509,-12 509,-24 509,-24 509,-30 503,-36 497,-36"/>
<text text-anchor="middle" x="461" y="-15.5" font-family="sans" font-size="10.00">make_summary</text>
</g>
<!-- 1 -->
<g id="node2" class="node"><title>1</title>
<path fill="none" stroke="#b6d856" stroke-width="2" d="M143,-108C143,-108 99,-108 99,-108 93,-108 87,-102 87,-96 87,-96 87,-84 87,-84 87,-78 93,-72 99,-72 99,-72 143,-72 143,-72 149,-72 155,-78 155,-84 155,-84 155,-96 155,-96 155,-102 149,-108 143,-108"/>
<text text-anchor="middle" x="121" y="-87.5" font-family="sans" font-size="10.00">make_dag</text>
</g>
<!-- 1&#45;&gt;0 -->
<g id="edge1" class="edge"><title>1&#45;&gt;0</title>
<path fill="none" stroke="grey" stroke-width="2" d="M155.138,-76.1562C159.761,-74.6388 164.472,-73.2044 169,-72 249.016,-50.7167 343.64,-35.269 403,-26.7173"/>
<polygon fill="grey" stroke="grey" stroke-width="2" points="403.531,-30.177 412.938,-25.3026 402.545,-23.2469 403.531,-30.177"/>
</g>
<!-- 2 -->
<g id="node3" class="node"><title>2</title>
<path fill="none" stroke="#d85656" stroke-width="2" d="M340.5,-540C340.5,-540 289.5,-540 289.5,-540 283.5,-540 277.5,-534 277.5,-528 277.5,-528 277.5,-516 277.5,-516 277.5,-510 283.5,-504 289.5,-504 289.5,-504 340.5,-504 340.5,-504 346.5,-504 352.5,-510 352.5,-516 352.5,-516 352.5,-528 352.5,-528 352.5,-534 346.5,-540 340.5,-540"/>
<text text-anchor="middle" x="315" y="-519.5" font-family="sans" font-size="10.00">process_ccs</text>
</g>
<!-- 2&#45;&gt;0 -->
<g id="edge2" class="edge"><title>2&#45;&gt;0</title>
<path fill="none" stroke="grey" stroke-width="2" d="M281.691,-503.867C242.587,-481.094 183,-436.894 183,-379 183,-379 183,-379 183,-161 183,-63.1613 321.248,-32.6968 402.761,-23.2377"/>
<polygon fill="grey" stroke="grey" stroke-width="2" points="403.331,-26.6965 412.893,-22.1357 402.574,-19.7375 403.331,-26.6965"/>
</g>
<!-- 3 -->
<g id="node4" class="node"><title>3</title>
<path fill="none" stroke="#56d86b" stroke-width="2" d="M511,-468C511,-468 449,-468 449,-468 443,-468 437,-462 437,-456 437,-456 437,-444 437,-444 437,-438 443,-432 449,-432 449,-432 511,-432 511,-432 517,-432 523,-438 523,-444 523,-444 523,-456 523,-456 523,-462 517,-468 511,-468"/>
<text text-anchor="middle" x="480" y="-447.5" font-family="sans" font-size="10.00">build_variants</text>
</g>
<!-- 2&#45;&gt;3 -->
<g id="edge16" class="edge"><title>2&#45;&gt;3</title>
<path fill="none" stroke="grey" stroke-width="2" d="M352.854,-504.941C375.886,-495.169 405.561,-482.58 430.449,-472.022"/>
<polygon fill="grey" stroke="grey" stroke-width="2" points="431.891,-475.212 439.73,-468.084 429.157,-468.768 431.891,-475.212"/>
</g>
<!-- 3&#45;&gt;0 -->
<g id="edge3" class="edge"><title>3&#45;&gt;0</title>
<path fill="none" stroke="grey" stroke-width="2" d="M523.291,-448.979C610.911,-446.424 801,-427.049 801,-307 801,-307 801,-307 801,-161 801,-40.4915 616.883,-20.4469 519.625,-18.2651"/>
<polygon fill="grey" stroke="grey" stroke-width="2" points="519.41,-14.7611 509.353,-18.0937 519.293,-21.7601 519.41,-14.7611"/>
</g>
<!-- 4 -->
<g id="node5" class="node"><title>4</title>
<path fill="none" stroke="#56d8b9" stroke-width="2" d="M512.5,-396C512.5,-396 447.5,-396 447.5,-396 441.5,-396 435.5,-390 435.5,-384 435.5,-384 435.5,-372 435.5,-372 435.5,-366 441.5,-360 447.5,-360 447.5,-360 512.5,-360 512.5,-360 518.5,-360 524.5,-366 524.5,-372 524.5,-372 524.5,-384 524.5,-384 524.5,-390 518.5,-396 512.5,-396"/>
<text text-anchor="middle" x="480" y="-375.5" font-family="sans" font-size="10.00">count_variants</text>
</g>
<!-- 3&#45;&gt;4 -->
<g id="edge17" class="edge"><title>3&#45;&gt;4</title>
<path fill="none" stroke="grey" stroke-width="2" d="M480,-431.697C480,-423.983 480,-414.712 480,-406.112"/>
<polygon fill="grey" stroke="grey" stroke-width="2" points="483.5,-406.104 480,-396.104 476.5,-406.104 483.5,-406.104"/>
</g>
<!-- 4&#45;&gt;0 -->
<g id="edge4" class="edge"><title>4&#45;&gt;0</title>
<path fill="none" stroke="grey" stroke-width="2" d="M524.53,-374.574C604.227,-367.576 763,-340.405 763,-235 763,-235 763,-235 763,-161 763,-54.4152 607.044,-27.6874 519.277,-21.0849"/>
<polygon fill="grey" stroke="grey" stroke-width="2" points="519.403,-17.5854 509.187,-20.3916 518.923,-24.569 519.403,-17.5854"/>
</g>
<!-- 5 -->
<g id="node6" class="node"><title>5</title>
<path fill="none" stroke="#8fd856" stroke-width="2" d="M291,-180C291,-180 223,-180 223,-180 217,-180 211,-174 211,-168 211,-168 211,-156 211,-156 211,-150 217,-144 223,-144 223,-144 291,-144 291,-144 297,-144 303,-150 303,-156 303,-156 303,-168 303,-168 303,-174 297,-180 291,-180"/>
<text text-anchor="middle" x="257" y="-159.5" font-family="sans" font-size="10.00">analyze_counts</text>
</g>
<!-- 4&#45;&gt;5 -->
<g id="edge18" class="edge"><title>4&#45;&gt;5</title>
<path fill="none" stroke="grey" stroke-width="2" d="M435.444,-368.047C403.72,-360.148 361.181,-346.339 329,-324 294.782,-300.246 285.771,-290.129 269,-252 260.434,-232.526 257.591,-208.526 256.803,-190.358"/>
<polygon fill="grey" stroke="grey" stroke-width="2" points="260.297,-190.062 256.547,-180.153 253.299,-190.238 260.297,-190.062"/>
</g>
<!-- 6 -->
<g id="node7" class="node"><title>6</title>
<path fill="none" stroke="#d8cb56" stroke-width="2" d="M450,-324C450,-324 350,-324 350,-324 344,-324 338,-318 338,-312 338,-312 338,-300 338,-300 338,-294 344,-288 350,-288 350,-288 450,-288 450,-288 456,-288 462,-294 462,-300 462,-300 462,-312 462,-312 462,-318 456,-324 450,-324"/>
<text text-anchor="middle" x="400" y="-303.5" font-family="sans" font-size="10.00">compute_Titeseq_Kds</text>
</g>
<!-- 4&#45;&gt;6 -->
<g id="edge19" class="edge"><title>4&#45;&gt;6</title>
<path fill="none" stroke="grey" stroke-width="2" d="M460.225,-359.697C450.246,-350.965 437.989,-340.24 427.143,-330.75"/>
<polygon fill="grey" stroke="grey" stroke-width="2" points="429.378,-328.055 419.548,-324.104 424.769,-333.323 429.378,-328.055"/>
</g>
<!-- 7 -->
<g id="node8" class="node"><title>7</title>
<path fill="none" stroke="#56a9d8" stroke-width="2" d="M668.5,-324C668.5,-324 531.5,-324 531.5,-324 525.5,-324 519.5,-318 519.5,-312 519.5,-312 519.5,-300 519.5,-300 519.5,-294 525.5,-288 531.5,-288 531.5,-288 668.5,-288 668.5,-288 674.5,-288 680.5,-294 680.5,-300 680.5,-300 680.5,-312 680.5,-312 680.5,-318 674.5,-324 668.5,-324"/>
<text text-anchor="middle" x="600" y="-303.5" font-family="sans" font-size="10.00">compute_expression_meanFs</text>
</g>
<!-- 4&#45;&gt;7 -->
<g id="edge20" class="edge"><title>4&#45;&gt;7</title>
<path fill="none" stroke="grey" stroke-width="2" d="M509.355,-359.876C525.045,-350.724 544.557,-339.342 561.454,-329.485"/>
<polygon fill="grey" stroke="grey" stroke-width="2" points="563.658,-332.252 570.532,-324.19 560.13,-326.205 563.658,-332.252"/>
</g>
<!-- 5&#45;&gt;0 -->
<g id="edge5" class="edge"><title>5&#45;&gt;0</title>
<path fill="none" stroke="grey" stroke-width="2" d="M264.493,-143.884C274.009,-123.997 292.221,-91.4365 317,-72 342.031,-52.3659 375.045,-39.5166 403.146,-31.3946"/>
<polygon fill="grey" stroke="grey" stroke-width="2" points="404.15,-34.7483 412.86,-28.7155 402.289,-28.0003 404.15,-34.7483"/>
</g>
<!-- 6&#45;&gt;0 -->
<g id="edge6" class="edge"><title>6&#45;&gt;0</title>
<path fill="none" stroke="grey" stroke-width="2" d="M345.18,-287.961C328.342,-279.866 311.705,-268.283 302,-252 293.808,-238.256 297.987,-231.488 302,-216 320.365,-145.127 332.445,-125.893 382,-72 392.718,-60.344 406.488,-49.9848 419.521,-41.5861"/>
<polygon fill="grey" stroke="grey" stroke-width="2" points="421.726,-44.3374 428.38,-36.0929 418.037,-38.3884 421.726,-44.3374"/>
</g>
<!-- 8 -->
<g id="node9" class="node"><title>8</title>
<path fill="none" stroke="#d8a456" stroke-width="2" d="M436.5,-252C436.5,-252 323.5,-252 323.5,-252 317.5,-252 311.5,-246 311.5,-240 311.5,-240 311.5,-228 311.5,-228 311.5,-222 317.5,-216 323.5,-216 323.5,-216 436.5,-216 436.5,-216 442.5,-216 448.5,-222 448.5,-228 448.5,-228 448.5,-240 448.5,-240 448.5,-246 442.5,-252 436.5,-252"/>
<text text-anchor="middle" x="380" y="-231.5" font-family="sans" font-size="10.00">global_epistasis_binding</text>
</g>
<!-- 6&#45;&gt;8 -->
<g id="edge21" class="edge"><title>6&#45;&gt;8</title>
<path fill="none" stroke="grey" stroke-width="2" d="M395.056,-287.697C392.828,-279.898 390.145,-270.509 387.665,-261.829"/>
<polygon fill="grey" stroke="grey" stroke-width="2" points="391,-260.758 384.887,-252.104 384.269,-262.681 391,-260.758"/>
</g>
<!-- 10 -->
<g id="node11" class="node"><title>10</title>
<path fill="none" stroke="#56d0d8" stroke-width="2" d="M538.5,-180C538.5,-180 453.5,-180 453.5,-180 447.5,-180 441.5,-174 441.5,-168 441.5,-168 441.5,-156 441.5,-156 441.5,-150 447.5,-144 453.5,-144 453.5,-144 538.5,-144 538.5,-144 544.5,-144 550.5,-150 550.5,-156 550.5,-156 550.5,-168 550.5,-168 550.5,-174 544.5,-180 538.5,-180"/>
<text text-anchor="middle" x="496" y="-159.5" font-family="sans" font-size="10.00">single_mut_effects</text>
</g>
<!-- 6&#45;&gt;10 -->
<g id="edge25" class="edge"><title>6&#45;&gt;10</title>
<path fill="none" stroke="grey" stroke-width="2" d="M423.124,-287.795C434.748,-278.246 448.372,-265.573 458,-252 471.533,-232.922 481.585,-208.273 487.94,-189.755"/>
<polygon fill="grey" stroke="grey" stroke-width="2" points="491.292,-190.764 491.089,-180.171 484.642,-188.579 491.292,-190.764"/>
</g>
<!-- 7&#45;&gt;0 -->
<g id="edge7" class="edge"><title>7&#45;&gt;0</title>
<path fill="none" stroke="grey" stroke-width="2" d="M661.405,-287.954C678.84,-279.968 695.832,-268.452 706,-252 714.412,-238.39 712.045,-230.814 706,-216 670.473,-128.938 571.803,-69.8361 511.068,-40.4918"/>
<polygon fill="grey" stroke="grey" stroke-width="2" points="512.197,-37.1542 501.661,-36.038 509.202,-43.4808 512.197,-37.1542"/>
</g>
<!-- 9 -->
<g id="node10" class="node"><title>9</title>
<path fill="none" stroke="#56d892" stroke-width="2" d="M685,-252C685,-252 555,-252 555,-252 549,-252 543,-246 543,-240 543,-240 543,-228 543,-228 543,-222 549,-216 555,-216 555,-216 685,-216 685,-216 691,-216 697,-222 697,-228 697,-228 697,-240 697,-240 697,-246 691,-252 685,-252"/>
<text text-anchor="middle" x="620" y="-231.5" font-family="sans" font-size="10.00">global_epistasis_expression</text>
</g>
<!-- 7&#45;&gt;9 -->
<g id="edge22" class="edge"><title>7&#45;&gt;9</title>
<path fill="none" stroke="grey" stroke-width="2" d="M604.944,-287.697C607.172,-279.898 609.855,-270.509 612.335,-261.829"/>
<polygon fill="grey" stroke="grey" stroke-width="2" points="615.731,-262.681 615.113,-252.104 609,-260.758 615.731,-262.681"/>
</g>
<!-- 7&#45;&gt;10 -->
<g id="edge26" class="edge"><title>7&#45;&gt;10</title>
<path fill="none" stroke="grey" stroke-width="2" d="M572.933,-287.915C559.824,-278.574 544.656,-266.051 534,-252 519.78,-233.251 509.745,-208.376 503.573,-189.692"/>
<polygon fill="grey" stroke="grey" stroke-width="2" points="506.873,-188.519 500.539,-180.026 500.194,-190.616 506.873,-188.519"/>
</g>
<!-- 8&#45;&gt;0 -->
<g id="edge8" class="edge"><title>8&#45;&gt;0</title>
<path fill="none" stroke="grey" stroke-width="2" d="M378.285,-215.832C376.008,-185.039 374.837,-119.231 400,-72 406.03,-60.6824 415.53,-50.69 425.255,-42.5192"/>
<polygon fill="grey" stroke="grey" stroke-width="2" points="427.718,-45.0345 433.404,-36.0951 423.384,-39.537 427.718,-45.0345"/>
</g>
<!-- 8&#45;&gt;10 -->
<g id="edge23" class="edge"><title>8&#45;&gt;10</title>
<path fill="none" stroke="grey" stroke-width="2" d="M408.377,-215.876C423.544,-206.724 442.405,-195.342 458.739,-185.485"/>
<polygon fill="grey" stroke="grey" stroke-width="2" points="460.761,-188.353 467.514,-180.19 457.144,-182.36 460.761,-188.353"/>
</g>
<!-- 9&#45;&gt;0 -->
<g id="edge9" class="edge"><title>9&#45;&gt;0</title>
<path fill="none" stroke="grey" stroke-width="2" d="M614.608,-215.822C604.102,-184.437 578.409,-116.928 539,-72 528.737,-60.2997 515.341,-49.9806 502.553,-41.6304"/>
<polygon fill="grey" stroke="grey" stroke-width="2" points="504.175,-38.5166 493.843,-36.1713 500.458,-44.4478 504.175,-38.5166"/>
</g>
<!-- 9&#45;&gt;10 -->
<g id="edge24" class="edge"><title>9&#45;&gt;10</title>
<path fill="none" stroke="grey" stroke-width="2" d="M589.666,-215.876C573.303,-206.639 552.917,-195.131 535.346,-185.212"/>
<polygon fill="grey" stroke="grey" stroke-width="2" points="536.879,-182.058 526.45,-180.19 533.438,-188.154 536.879,-182.058"/>
</g>
<!-- 10&#45;&gt;0 -->
<g id="edge10" class="edge"><title>10&#45;&gt;0</title>
<path fill="none" stroke="grey" stroke-width="2" d="M508.461,-143.761C520.056,-125.449 534.014,-95.904 523,-72 517.676,-60.4449 508.453,-50.4725 498.723,-42.3952"/>
<polygon fill="grey" stroke="grey" stroke-width="2" points="500.562,-39.3941 490.505,-36.0627 496.289,-44.9389 500.562,-39.3941"/>
</g>
<!-- 11 -->
<g id="node12" class="node"><title>11</title>
<path fill="none" stroke="#567bd8" stroke-width="2" d="M501.5,-108C501.5,-108 420.5,-108 420.5,-108 414.5,-108 408.5,-102 408.5,-96 408.5,-96 408.5,-84 408.5,-84 408.5,-78 414.5,-72 420.5,-72 420.5,-72 501.5,-72 501.5,-72 507.5,-72 513.5,-78 513.5,-84 513.5,-84 513.5,-96 513.5,-96 513.5,-102 507.5,-108 501.5,-108"/>
<text text-anchor="middle" x="461" y="-87.5" font-family="sans" font-size="10.00">structure_function</text>
</g>
<!-- 10&#45;&gt;11 -->
<g id="edge27" class="edge"><title>10&#45;&gt;11</title>
<path fill="none" stroke="grey" stroke-width="2" d="M487.348,-143.697C483.364,-135.728 478.55,-126.1 474.132,-117.264"/>
<polygon fill="grey" stroke="grey" stroke-width="2" points="477.155,-115.483 469.552,-108.104 470.894,-118.614 477.155,-115.483"/>
</g>
<!-- 11&#45;&gt;0 -->
<g id="edge11" class="edge"><title>11&#45;&gt;0</title>
<path fill="none" stroke="grey" stroke-width="2" d="M461,-71.6966C461,-63.9827 461,-54.7125 461,-46.1124"/>
<polygon fill="grey" stroke="grey" stroke-width="2" points="464.5,-46.1043 461,-36.1043 457.5,-46.1044 464.5,-46.1043"/>
</g>
<!-- 12 -->
<g id="node13" class="node"><title>12</title>
<path fill="none" stroke="#d87d56" stroke-width="2" d="M132,-612C132,-612 12,-612 12,-612 6,-612 0,-606 0,-600 0,-600 0,-588 0,-588 0,-582 6,-576 12,-576 12,-576 132,-576 132,-576 138,-576 144,-582 144,-588 144,-588 144,-600 144,-600 144,-606 138,-612 132,-612"/>
<text text-anchor="middle" x="72" y="-597" font-family="sans" font-size="10.00">build_ccs</text>
<text text-anchor="middle" x="72" y="-586" font-family="sans" font-size="10.00">pacbioRun: lib1_200415_A</text>
</g>
<!-- 12&#45;&gt;2 -->
<g id="edge12" class="edge"><title>12&#45;&gt;2</title>
<path fill="none" stroke="grey" stroke-width="2" d="M131.134,-575.966C172.917,-563.929 228.202,-548.004 267.202,-536.769"/>
<polygon fill="grey" stroke="grey" stroke-width="2" points="268.605,-540.007 277.246,-533.876 266.668,-533.281 268.605,-540.007"/>
</g>
<!-- 13 -->
<g id="node14" class="node"><title>13</title>
<path fill="none" stroke="#d87d56" stroke-width="2" d="M294,-612C294,-612 174,-612 174,-612 168,-612 162,-606 162,-600 162,-600 162,-588 162,-588 162,-582 168,-576 174,-576 174,-576 294,-576 294,-576 300,-576 306,-582 306,-588 306,-588 306,-600 306,-600 306,-606 300,-612 294,-612"/>
<text text-anchor="middle" x="234" y="-597" font-family="sans" font-size="10.00">build_ccs</text>
<text text-anchor="middle" x="234" y="-586" font-family="sans" font-size="10.00">pacbioRun: lib1_200415_B</text>
</g>
<!-- 13&#45;&gt;2 -->
<g id="edge13" class="edge"><title>13&#45;&gt;2</title>
<path fill="none" stroke="grey" stroke-width="2" d="M254.022,-575.697C264.126,-566.965 276.536,-556.24 287.518,-546.75"/>
<polygon fill="grey" stroke="grey" stroke-width="2" points="289.93,-549.291 295.208,-540.104 285.353,-543.995 289.93,-549.291"/>
</g>
<!-- 14 -->
<g id="node15" class="node"><title>14</title>
<path fill="none" stroke="#d87d56" stroke-width="2" d="M456,-612C456,-612 336,-612 336,-612 330,-612 324,-606 324,-600 324,-600 324,-588 324,-588 324,-582 330,-576 336,-576 336,-576 456,-576 456,-576 462,-576 468,-582 468,-588 468,-588 468,-600 468,-600 468,-606 462,-612 456,-612"/>
<text text-anchor="middle" x="396" y="-597" font-family="sans" font-size="10.00">build_ccs</text>
<text text-anchor="middle" x="396" y="-586" font-family="sans" font-size="10.00">pacbioRun: lib2_200415_A</text>
</g>
<!-- 14&#45;&gt;2 -->
<g id="edge14" class="edge"><title>14&#45;&gt;2</title>
<path fill="none" stroke="grey" stroke-width="2" d="M375.978,-575.697C365.874,-566.965 353.464,-556.24 342.482,-546.75"/>
<polygon fill="grey" stroke="grey" stroke-width="2" points="344.647,-543.995 334.792,-540.104 340.07,-549.291 344.647,-543.995"/>
</g>
<!-- 15 -->
<g id="node16" class="node"><title>15</title>
<path fill="none" stroke="#d87d56" stroke-width="2" d="M618,-612C618,-612 498,-612 498,-612 492,-612 486,-606 486,-600 486,-600 486,-588 486,-588 486,-582 492,-576 498,-576 498,-576 618,-576 618,-576 624,-576 630,-582 630,-588 630,-588 630,-600 630,-600 630,-606 624,-612 618,-612"/>
<text text-anchor="middle" x="558" y="-597" font-family="sans" font-size="10.00">build_ccs</text>
<text text-anchor="middle" x="558" y="-586" font-family="sans" font-size="10.00">pacbioRun: lib2_200415_B</text>
</g>
<!-- 15&#45;&gt;2 -->
<g id="edge15" class="edge"><title>15&#45;&gt;2</title>
<path fill="none" stroke="grey" stroke-width="2" d="M498.866,-575.966C457.083,-563.929 401.798,-548.004 362.798,-536.769"/>
<polygon fill="grey" stroke="grey" stroke-width="2" points="363.332,-533.281 352.754,-533.876 361.395,-540.007 363.332,-533.281"/>
</g>
</g>
</svg>
