<?xml version="1.0" encoding="UTF-8" standalone="no"?>
<!DOCTYPE svg PUBLIC "-//W3C//DTD SVG 1.1//EN"
 "http://www.w3.org/Graphics/SVG/1.1/DTD/svg11.dtd">
<!-- Generated by graphviz version 2.38.0 (20140413.2041)
 -->
<!-- Title: snakemake_dag Pages: 1 -->
<svg width="638pt" height="404pt"
 viewBox="0.00 0.00 638.00 404.00" xmlns="http://www.w3.org/2000/svg" xmlns:xlink="http://www.w3.org/1999/xlink">
<g id="graph0" class="graph" transform="scale(1 1) rotate(0) translate(4 400)">
<title>snakemake_dag</title>
<polygon fill="white" stroke="none" points="-4,4 -4,-400 634,-400 634,4 -4,4"/>
<!-- 0 -->
<g id="node1" class="node"><title>0</title>
<path fill="none" stroke="#59d856" stroke-width="2" d="M438,-36C438,-36 408,-36 408,-36 402,-36 396,-30 396,-24 396,-24 396,-12 396,-12 396,-6 402,-0 408,-0 408,-0 438,-0 438,-0 444,-0 450,-6 450,-12 450,-12 450,-24 450,-24 450,-30 444,-36 438,-36"/>
<text text-anchor="middle" x="423" y="-15.5" font-family="sans" font-size="10.00">all</text>
</g>
<!-- 1 -->
<g id="node2" class="node"><title>1</title>
<path fill="none" stroke="#97d856" stroke-width="2" d="M416,-108C416,-108 344,-108 344,-108 338,-108 332,-102 332,-96 332,-96 332,-84 332,-84 332,-78 338,-72 344,-72 344,-72 416,-72 416,-72 422,-72 428,-78 428,-84 428,-84 428,-96 428,-96 428,-102 422,-108 416,-108"/>
<text text-anchor="middle" x="380" y="-87.5" font-family="sans" font-size="10.00">make_summary</text>
</g>
<!-- 1&#45;&gt;0 -->
<g id="edge1" class="edge"><title>1&#45;&gt;0</title>
<path fill="none" stroke="grey" stroke-width="2" d="M390.629,-71.6966C395.628,-63.5589 401.691,-53.689 407.212,-44.7013"/>
<polygon fill="grey" stroke="grey" stroke-width="2" points="410.241,-46.4571 412.493,-36.1043 404.277,-42.7931 410.241,-46.4571"/>
</g>
<!-- 2 -->
<g id="node3" class="node"><title>2</title>
<path fill="none" stroke="#d89556" stroke-width="2" d="M509.5,-180C509.5,-180 444.5,-180 444.5,-180 438.5,-180 432.5,-174 432.5,-168 432.5,-168 432.5,-156 432.5,-156 432.5,-150 438.5,-144 444.5,-144 444.5,-144 509.5,-144 509.5,-144 515.5,-144 521.5,-150 521.5,-156 521.5,-156 521.5,-168 521.5,-168 521.5,-174 515.5,-180 509.5,-180"/>
<text text-anchor="middle" x="477" y="-159.5" font-family="sans" font-size="10.00">count_variants</text>
</g>
<!-- 2&#45;&gt;0 -->
<g id="edge2" class="edge"><title>2&#45;&gt;0</title>
<path fill="none" stroke="grey" stroke-width="2" d="M470.486,-143.871C461.202,-119.457 444.077,-74.4258 433.129,-45.6351"/>
<polygon fill="grey" stroke="grey" stroke-width="2" points="436.363,-44.2921 429.537,-36.1893 429.82,-46.7803 436.363,-44.2921"/>
</g>
<!-- 2&#45;&gt;1 -->
<g id="edge6" class="edge"><title>2&#45;&gt;1</title>
<path fill="none" stroke="grey" stroke-width="2" d="M453.022,-143.697C440.689,-134.796 425.484,-123.823 412.147,-114.199"/>
<polygon fill="grey" stroke="grey" stroke-width="2" points="413.859,-111.118 403.702,-108.104 409.763,-116.794 413.859,-111.118"/>
</g>
<!-- 3 -->
<g id="node4" class="node"><title>3</title>
<path fill="none" stroke="#d85656" stroke-width="2" d="M402,-180C402,-180 358,-180 358,-180 352,-180 346,-174 346,-168 346,-168 346,-156 346,-156 346,-150 352,-144 358,-144 358,-144 402,-144 402,-144 408,-144 414,-150 414,-156 414,-156 414,-168 414,-168 414,-174 408,-180 402,-180"/>
<text text-anchor="middle" x="380" y="-159.5" font-family="sans" font-size="10.00">make_dag</text>
</g>
<!-- 3&#45;&gt;1 -->
<g id="edge3" class="edge"><title>3&#45;&gt;1</title>
<path fill="none" stroke="grey" stroke-width="2" d="M380,-143.697C380,-135.983 380,-126.712 380,-118.112"/>
<polygon fill="grey" stroke="grey" stroke-width="2" points="383.5,-118.104 380,-108.104 376.5,-118.104 383.5,-118.104"/>
</g>
<!-- 4 -->
<g id="node5" class="node"><title>4</title>
<path fill="none" stroke="#56d89a" stroke-width="2" d="M340.5,-324C340.5,-324 289.5,-324 289.5,-324 283.5,-324 277.5,-318 277.5,-312 277.5,-312 277.5,-300 277.5,-300 277.5,-294 283.5,-288 289.5,-288 289.5,-288 340.5,-288 340.5,-288 346.5,-288 352.5,-294 352.5,-300 352.5,-300 352.5,-312 352.5,-312 352.5,-318 346.5,-324 340.5,-324"/>
<text text-anchor="middle" x="315" y="-303.5" font-family="sans" font-size="10.00">process_ccs</text>
</g>
<!-- 4&#45;&gt;1 -->
<g id="edge4" class="edge"><title>4&#45;&gt;1</title>
<path fill="none" stroke="grey" stroke-width="2" d="M308.036,-287.889C301.637,-269.933 293.866,-240.909 299,-216 306.034,-181.877 310.865,-173.115 330,-144 336.663,-133.862 345.351,-123.881 353.612,-115.363"/>
<polygon fill="grey" stroke="grey" stroke-width="2" points="356.096,-117.829 360.7,-108.287 351.15,-112.875 356.096,-117.829"/>
</g>
<!-- 5 -->
<g id="node6" class="node"><title>5</title>
<path fill="none" stroke="#d6d856" stroke-width="2" d="M382,-252C382,-252 320,-252 320,-252 314,-252 308,-246 308,-240 308,-240 308,-228 308,-228 308,-222 314,-216 320,-216 320,-216 382,-216 382,-216 388,-216 394,-222 394,-228 394,-228 394,-240 394,-240 394,-246 388,-252 382,-252"/>
<text text-anchor="middle" x="351" y="-231.5" font-family="sans" font-size="10.00">build_variants</text>
</g>
<!-- 4&#45;&gt;5 -->
<g id="edge12" class="edge"><title>4&#45;&gt;5</title>
<path fill="none" stroke="grey" stroke-width="2" d="M323.899,-287.697C327.997,-279.728 332.949,-270.1 337.493,-261.264"/>
<polygon fill="grey" stroke="grey" stroke-width="2" points="340.742,-262.598 342.203,-252.104 334.517,-259.396 340.742,-262.598"/>
</g>
<!-- 5&#45;&gt;1 -->
<g id="edge5" class="edge"><title>5&#45;&gt;1</title>
<path fill="none" stroke="grey" stroke-width="2" d="M343.426,-215.811C336.484,-197.54 328.478,-168.029 337,-144 340.662,-133.675 347.287,-123.896 354.257,-115.614"/>
<polygon fill="grey" stroke="grey" stroke-width="2" points="356.874,-117.938 360.961,-108.163 351.67,-113.256 356.874,-117.938"/>
</g>
<!-- 5&#45;&gt;2 -->
<g id="edge7" class="edge"><title>5&#45;&gt;2</title>
<path fill="none" stroke="grey" stroke-width="2" d="M381.823,-215.876C398.45,-206.639 419.165,-195.131 437.019,-185.212"/>
<polygon fill="grey" stroke="grey" stroke-width="2" points="439.017,-188.106 446.058,-180.19 435.617,-181.987 439.017,-188.106"/>
</g>
<!-- 6 -->
<g id="node7" class="node"><title>6</title>
<path fill="none" stroke="#569ad8" stroke-width="2" d="M132,-396C132,-396 12,-396 12,-396 6,-396 0,-390 0,-384 0,-384 0,-372 0,-372 0,-366 6,-360 12,-360 12,-360 132,-360 132,-360 138,-360 144,-366 144,-372 144,-372 144,-384 144,-384 144,-390 138,-396 132,-396"/>
<text text-anchor="middle" x="72" y="-381" font-family="sans" font-size="10.00">build_ccs</text>
<text text-anchor="middle" x="72" y="-370" font-family="sans" font-size="10.00">pacbioRun: lib1_200415_A</text>
</g>
<!-- 6&#45;&gt;4 -->
<g id="edge8" class="edge"><title>6&#45;&gt;4</title>
<path fill="none" stroke="grey" stroke-width="2" d="M131.134,-359.966C172.917,-347.929 228.202,-332.004 267.202,-320.769"/>
<polygon fill="grey" stroke="grey" stroke-width="2" points="268.605,-324.007 277.246,-317.876 266.668,-317.281 268.605,-324.007"/>
</g>
<!-- 7 -->
<g id="node8" class="node"><title>7</title>
<path fill="none" stroke="#569ad8" stroke-width="2" d="M294,-396C294,-396 174,-396 174,-396 168,-396 162,-390 162,-384 162,-384 162,-372 162,-372 162,-366 168,-360 174,-360 174,-360 294,-360 294,-360 300,-360 306,-366 306,-372 306,-372 306,-384 306,-384 306,-390 300,-396 294,-396"/>
<text text-anchor="middle" x="234" y="-381" font-family="sans" font-size="10.00">build_ccs</text>
<text text-anchor="middle" x="234" y="-370" font-family="sans" font-size="10.00">pacbioRun: lib1_200415_B</text>
</g>
<!-- 7&#45;&gt;4 -->
<g id="edge9" class="edge"><title>7&#45;&gt;4</title>
<path fill="none" stroke="grey" stroke-width="2" d="M254.022,-359.697C264.126,-350.965 276.536,-340.24 287.518,-330.75"/>
<polygon fill="grey" stroke="grey" stroke-width="2" points="289.93,-333.291 295.208,-324.104 285.353,-327.995 289.93,-333.291"/>
</g>
<!-- 8 -->
<g id="node9" class="node"><title>8</title>
<path fill="none" stroke="#569ad8" stroke-width="2" d="M456,-396C456,-396 336,-396 336,-396 330,-396 324,-390 324,-384 324,-384 324,-372 324,-372 324,-366 330,-360 336,-360 336,-360 456,-360 456,-360 462,-360 468,-366 468,-372 468,-372 468,-384 468,-384 468,-390 462,-396 456,-396"/>
<text text-anchor="middle" x="396" y="-381" font-family="sans" font-size="10.00">build_ccs</text>
<text text-anchor="middle" x="396" y="-370" font-family="sans" font-size="10.00">pacbioRun: lib2_200415_A</text>
</g>
<!-- 8&#45;&gt;4 -->
<g id="edge10" class="edge"><title>8&#45;&gt;4</title>
<path fill="none" stroke="grey" stroke-width="2" d="M375.978,-359.697C365.874,-350.965 353.464,-340.24 342.482,-330.75"/>
<polygon fill="grey" stroke="grey" stroke-width="2" points="344.647,-327.995 334.792,-324.104 340.07,-333.291 344.647,-327.995"/>
</g>
<!-- 9 -->
<g id="node10" class="node"><title>9</title>
<path fill="none" stroke="#569ad8" stroke-width="2" d="M618,-396C618,-396 498,-396 498,-396 492,-396 486,-390 486,-384 486,-384 486,-372 486,-372 486,-366 492,-360 498,-360 498,-360 618,-360 618,-360 624,-360 630,-366 630,-372 630,-372 630,-384 630,-384 630,-390 624,-396 618,-396"/>
<text text-anchor="middle" x="558" y="-381" font-family="sans" font-size="10.00">build_ccs</text>
<text text-anchor="middle" x="558" y="-370" font-family="sans" font-size="10.00">pacbioRun: lib2_200415_B</text>
</g>
<!-- 9&#45;&gt;4 -->
<g id="edge11" class="edge"><title>9&#45;&gt;4</title>
<path fill="none" stroke="grey" stroke-width="2" d="M498.866,-359.966C457.083,-347.929 401.798,-332.004 362.798,-320.769"/>
<polygon fill="grey" stroke="grey" stroke-width="2" points="363.332,-317.281 352.754,-317.876 361.395,-324.007 363.332,-317.281"/>
</g>
</g>
</svg>
