<?xml version="1.0" encoding="UTF-8" standalone="no"?>
<!DOCTYPE svg PUBLIC "-//W3C//DTD SVG 1.1//EN"
 "http://www.w3.org/Graphics/SVG/1.1/DTD/svg11.dtd">
<!-- Generated by graphviz version 2.38.0 (20140413.2041)
 -->
<!-- Title: snakemake_dag Pages: 1 -->
<svg width="1158pt" height="620pt"
 viewBox="0.00 0.00 1158.00 620.00" xmlns="http://www.w3.org/2000/svg" xmlns:xlink="http://www.w3.org/1999/xlink">
<g id="graph0" class="graph" transform="scale(1 1) rotate(0) translate(4 616)">
<title>snakemake_dag</title>
<polygon fill="white" stroke="none" points="-4,4 -4,-616 1154,-616 1154,4 -4,4"/>
<!-- 0 -->
<g id="node1" class="node"><title>0</title>
<path fill="none" stroke="#d89556" stroke-width="2" d="M679,-36C679,-36 607,-36 607,-36 601,-36 595,-30 595,-24 595,-24 595,-12 595,-12 595,-6 601,-0 607,-0 607,-0 679,-0 679,-0 685,-0 691,-6 691,-12 691,-12 691,-24 691,-24 691,-30 685,-36 679,-36"/>
<text text-anchor="middle" x="643" y="-15.5" font-family="sans" font-size="10.00">make_summary</text>
</g>
<!-- 1 -->
<g id="node2" class="node"><title>1</title>
<path fill="none" stroke="#d8b456" stroke-width="2" d="M56,-108C56,-108 12,-108 12,-108 6,-108 0,-102 0,-96 0,-96 0,-84 0,-84 0,-78 6,-72 12,-72 12,-72 56,-72 56,-72 62,-72 68,-78 68,-84 68,-84 68,-96 68,-96 68,-102 62,-108 56,-108"/>
<text text-anchor="middle" x="34" y="-87.5" font-family="sans" font-size="10.00">make_dag</text>
</g>
<!-- 1&#45;&gt;0 -->
<g id="edge1" class="edge"><title>1&#45;&gt;0</title>
<path fill="none" stroke="grey" stroke-width="2" d="M68.0489,-75.7897C72.6865,-74.3306 77.4247,-73.0101 82,-72 262.328,-32.1884 481.743,-22.2717 584.555,-19.8088"/>
<polygon fill="grey" stroke="grey" stroke-width="2" points="584.81,-23.3041 594.729,-19.5805 584.653,-16.3058 584.81,-23.3041"/>
</g>
<!-- 2 -->
<g id="node3" class="node"><title>2</title>
<path fill="none" stroke="#88d856" stroke-width="2" d="M449.5,-540C449.5,-540 398.5,-540 398.5,-540 392.5,-540 386.5,-534 386.5,-528 386.5,-528 386.5,-516 386.5,-516 386.5,-510 392.5,-504 398.5,-504 398.5,-504 449.5,-504 449.5,-504 455.5,-504 461.5,-510 461.5,-516 461.5,-516 461.5,-528 461.5,-528 461.5,-534 455.5,-540 449.5,-540"/>
<text text-anchor="middle" x="424" y="-519.5" font-family="sans" font-size="10.00">process_ccs</text>
</g>
<!-- 2&#45;&gt;0 -->
<g id="edge2" class="edge"><title>2&#45;&gt;0</title>
<path fill="none" stroke="grey" stroke-width="2" d="M386.374,-521.442C300.219,-520.292 96,-504.345 96,-379 96,-379 96,-379 96,-161 96,-102.819 139.17,-96.3746 192,-72 260.586,-40.3558 479.179,-26.3894 584.788,-21.366"/>
<polygon fill="grey" stroke="grey" stroke-width="2" points="585.126,-24.8542 594.953,-20.8936 584.801,-17.8617 585.126,-24.8542"/>
</g>
<!-- 3 -->
<g id="node4" class="node"><title>3</title>
<path fill="none" stroke="#d87556" stroke-width="2" d="M722,-468C722,-468 660,-468 660,-468 654,-468 648,-462 648,-456 648,-456 648,-444 648,-444 648,-438 654,-432 660,-432 660,-432 722,-432 722,-432 728,-432 734,-438 734,-444 734,-444 734,-456 734,-456 734,-462 728,-468 722,-468"/>
<text text-anchor="middle" x="691" y="-447.5" font-family="sans" font-size="10.00">build_variants</text>
</g>
<!-- 2&#45;&gt;3 -->
<g id="edge20" class="edge"><title>2&#45;&gt;3</title>
<path fill="none" stroke="grey" stroke-width="2" d="M461.688,-511.119C507.738,-499.046 585.935,-478.545 638.023,-464.889"/>
<polygon fill="grey" stroke="grey" stroke-width="2" points="638.967,-468.26 647.753,-462.338 637.192,-461.489 638.967,-468.26"/>
</g>
<!-- 3&#45;&gt;0 -->
<g id="edge3" class="edge"><title>3&#45;&gt;0</title>
<path fill="none" stroke="grey" stroke-width="2" d="M734.182,-444.96C848.443,-433.083 1150,-393.542 1150,-307 1150,-307 1150,-307 1150,-161 1150,-110.949 1124.54,-96.6894 1081,-72 1017.41,-35.9364 805.11,-24.1866 701.24,-20.5427"/>
<polygon fill="grey" stroke="grey" stroke-width="2" points="701.346,-17.0444 691.234,-20.205 701.11,-24.0404 701.346,-17.0444"/>
</g>
<!-- 4 -->
<g id="node5" class="node"><title>4</title>
<path fill="none" stroke="#68d856" stroke-width="2" d="M723.5,-396C723.5,-396 658.5,-396 658.5,-396 652.5,-396 646.5,-390 646.5,-384 646.5,-384 646.5,-372 646.5,-372 646.5,-366 652.5,-360 658.5,-360 658.5,-360 723.5,-360 723.5,-360 729.5,-360 735.5,-366 735.5,-372 735.5,-372 735.5,-384 735.5,-384 735.5,-390 729.5,-396 723.5,-396"/>
<text text-anchor="middle" x="691" y="-375.5" font-family="sans" font-size="10.00">count_variants</text>
</g>
<!-- 3&#45;&gt;4 -->
<g id="edge21" class="edge"><title>3&#45;&gt;4</title>
<path fill="none" stroke="grey" stroke-width="2" d="M691,-431.697C691,-423.983 691,-414.712 691,-406.112"/>
<polygon fill="grey" stroke="grey" stroke-width="2" points="694.5,-406.104 691,-396.104 687.5,-406.104 694.5,-406.104"/>
</g>
<!-- 4&#45;&gt;0 -->
<g id="edge4" class="edge"><title>4&#45;&gt;0</title>
<path fill="none" stroke="grey" stroke-width="2" d="M735.656,-371.595C844.005,-357.241 1112,-313.775 1112,-235 1112,-235 1112,-235 1112,-161 1112,-110.676 1085.72,-96.9263 1042,-72 985.113,-39.5648 797.662,-26.2146 701.313,-21.3896"/>
<polygon fill="grey" stroke="grey" stroke-width="2" points="701.312,-17.8856 691.154,-20.8956 700.972,-24.8773 701.312,-17.8856"/>
</g>
<!-- 5 -->
<g id="node6" class="node"><title>5</title>
<path fill="none" stroke="#9fd856" stroke-width="2" d="M204,-180C204,-180 136,-180 136,-180 130,-180 124,-174 124,-168 124,-168 124,-156 124,-156 124,-150 130,-144 136,-144 136,-144 204,-144 204,-144 210,-144 216,-150 216,-156 216,-156 216,-168 216,-168 216,-174 210,-180 204,-180"/>
<text text-anchor="middle" x="170" y="-159.5" font-family="sans" font-size="10.00">analyze_counts</text>
</g>
<!-- 4&#45;&gt;5 -->
<g id="edge22" class="edge"><title>4&#45;&gt;5</title>
<path fill="none" stroke="grey" stroke-width="2" d="M646.337,-375.054C558.617,-369.198 360.988,-345.752 230,-252 207.862,-236.155 191.451,-209.41 181.44,-189.366"/>
<polygon fill="grey" stroke="grey" stroke-width="2" points="184.505,-187.662 177.043,-180.141 178.187,-190.674 184.505,-187.662"/>
</g>
<!-- 6 -->
<g id="node7" class="node"><title>6</title>
<path fill="none" stroke="#56d8a2" stroke-width="2" d="M661,-324C661,-324 561,-324 561,-324 555,-324 549,-318 549,-312 549,-312 549,-300 549,-300 549,-294 555,-288 561,-288 561,-288 661,-288 661,-288 667,-288 673,-294 673,-300 673,-300 673,-312 673,-312 673,-318 667,-324 661,-324"/>
<text text-anchor="middle" x="611" y="-303.5" font-family="sans" font-size="10.00">compute_Titeseq_Kds</text>
</g>
<!-- 4&#45;&gt;6 -->
<g id="edge23" class="edge"><title>4&#45;&gt;6</title>
<path fill="none" stroke="grey" stroke-width="2" d="M671.225,-359.697C661.246,-350.965 648.989,-340.24 638.143,-330.75"/>
<polygon fill="grey" stroke="grey" stroke-width="2" points="640.378,-328.055 630.548,-324.104 635.769,-333.323 640.378,-328.055"/>
</g>
<!-- 7 -->
<g id="node8" class="node"><title>7</title>
<path fill="none" stroke="#5692d8" stroke-width="2" d="M879.5,-324C879.5,-324 742.5,-324 742.5,-324 736.5,-324 730.5,-318 730.5,-312 730.5,-312 730.5,-300 730.5,-300 730.5,-294 736.5,-288 742.5,-288 742.5,-288 879.5,-288 879.5,-288 885.5,-288 891.5,-294 891.5,-300 891.5,-300 891.5,-312 891.5,-312 891.5,-318 885.5,-324 879.5,-324"/>
<text text-anchor="middle" x="811" y="-303.5" font-family="sans" font-size="10.00">compute_expression_meanFs</text>
</g>
<!-- 4&#45;&gt;7 -->
<g id="edge24" class="edge"><title>4&#45;&gt;7</title>
<path fill="none" stroke="grey" stroke-width="2" d="M720.355,-359.876C736.045,-350.724 755.557,-339.342 772.454,-329.485"/>
<polygon fill="grey" stroke="grey" stroke-width="2" points="774.658,-332.252 781.532,-324.19 771.13,-326.205 774.658,-332.252"/>
</g>
<!-- 5&#45;&gt;0 -->
<g id="edge5" class="edge"><title>5&#45;&gt;0</title>
<path fill="none" stroke="grey" stroke-width="2" d="M176.329,-143.976C185.012,-123.217 202.719,-88.8248 230,-72 288.089,-36.175 485.164,-24.3644 584.601,-20.6327"/>
<polygon fill="grey" stroke="grey" stroke-width="2" points="584.913,-24.1238 594.781,-20.2662 584.661,-17.1284 584.913,-24.1238"/>
</g>
<!-- 6&#45;&gt;0 -->
<g id="edge6" class="edge"><title>6&#45;&gt;0</title>
<path fill="none" stroke="grey" stroke-width="2" d="M548.664,-289.209C430.37,-256.409 192.776,-175.28 282,-72 320.379,-27.5748 492.435,-19.6965 584.47,-18.7315"/>
<polygon fill="grey" stroke="grey" stroke-width="2" points="584.77,-22.2293 594.742,-18.649 584.714,-15.2295 584.77,-22.2293"/>
</g>
<!-- 8 -->
<g id="node9" class="node"><title>8</title>
<path fill="none" stroke="#56d882" stroke-width="2" d="M647.5,-252C647.5,-252 534.5,-252 534.5,-252 528.5,-252 522.5,-246 522.5,-240 522.5,-240 522.5,-228 522.5,-228 522.5,-222 528.5,-216 534.5,-216 534.5,-216 647.5,-216 647.5,-216 653.5,-216 659.5,-222 659.5,-228 659.5,-228 659.5,-240 659.5,-240 659.5,-246 653.5,-252 647.5,-252"/>
<text text-anchor="middle" x="591" y="-231.5" font-family="sans" font-size="10.00">global_epistasis_binding</text>
</g>
<!-- 6&#45;&gt;8 -->
<g id="edge25" class="edge"><title>6&#45;&gt;8</title>
<path fill="none" stroke="grey" stroke-width="2" d="M606.056,-287.697C603.828,-279.898 601.145,-270.509 598.665,-261.829"/>
<polygon fill="grey" stroke="grey" stroke-width="2" points="602,-260.758 595.887,-252.104 595.269,-262.681 602,-260.758"/>
</g>
<!-- 10 -->
<g id="node11" class="node"><title>10</title>
<path fill="none" stroke="#d85656" stroke-width="2" d="M749.5,-180C749.5,-180 664.5,-180 664.5,-180 658.5,-180 652.5,-174 652.5,-168 652.5,-168 652.5,-156 652.5,-156 652.5,-150 658.5,-144 664.5,-144 664.5,-144 749.5,-144 749.5,-144 755.5,-144 761.5,-150 761.5,-156 761.5,-156 761.5,-168 761.5,-168 761.5,-174 755.5,-180 749.5,-180"/>
<text text-anchor="middle" x="707" y="-159.5" font-family="sans" font-size="10.00">single_mut_effects</text>
</g>
<!-- 6&#45;&gt;10 -->
<g id="edge29" class="edge"><title>6&#45;&gt;10</title>
<path fill="none" stroke="grey" stroke-width="2" d="M634.124,-287.795C645.748,-278.246 659.372,-265.573 669,-252 682.533,-232.922 692.585,-208.273 698.94,-189.755"/>
<polygon fill="grey" stroke="grey" stroke-width="2" points="702.292,-190.764 702.089,-180.171 695.642,-188.579 702.292,-190.764"/>
</g>
<!-- 7&#45;&gt;0 -->
<g id="edge7" class="edge"><title>7&#45;&gt;0</title>
<path fill="none" stroke="grey" stroke-width="2" d="M854.175,-287.927C874.313,-278.867 897.975,-266.581 917,-252 989.984,-196.067 1079.31,-141.409 1019,-72 978.532,-25.4282 796.229,-18.6259 701.136,-18.3343"/>
<polygon fill="grey" stroke="grey" stroke-width="2" points="701.102,-14.8344 691.1,-18.3267 701.097,-21.8344 701.102,-14.8344"/>
</g>
<!-- 9 -->
<g id="node10" class="node"><title>9</title>
<path fill="none" stroke="#56d8c1" stroke-width="2" d="M896,-252C896,-252 766,-252 766,-252 760,-252 754,-246 754,-240 754,-240 754,-228 754,-228 754,-222 760,-216 766,-216 766,-216 896,-216 896,-216 902,-216 908,-222 908,-228 908,-228 908,-240 908,-240 908,-246 902,-252 896,-252"/>
<text text-anchor="middle" x="831" y="-231.5" font-family="sans" font-size="10.00">global_epistasis_expression</text>
</g>
<!-- 7&#45;&gt;9 -->
<g id="edge26" class="edge"><title>7&#45;&gt;9</title>
<path fill="none" stroke="grey" stroke-width="2" d="M815.944,-287.697C818.172,-279.898 820.855,-270.509 823.335,-261.829"/>
<polygon fill="grey" stroke="grey" stroke-width="2" points="826.731,-262.681 826.113,-252.104 820,-260.758 826.731,-262.681"/>
</g>
<!-- 7&#45;&gt;10 -->
<g id="edge30" class="edge"><title>7&#45;&gt;10</title>
<path fill="none" stroke="grey" stroke-width="2" d="M783.933,-287.915C770.824,-278.574 755.656,-266.051 745,-252 730.78,-233.251 720.745,-208.376 714.573,-189.692"/>
<polygon fill="grey" stroke="grey" stroke-width="2" points="717.873,-188.519 711.539,-180.026 711.194,-190.616 717.873,-188.519"/>
</g>
<!-- 8&#45;&gt;0 -->
<g id="edge8" class="edge"><title>8&#45;&gt;0</title>
<path fill="none" stroke="grey" stroke-width="2" d="M522.176,-221.713C415.973,-201.469 231.302,-153.331 301,-72 336.869,-30.1443 497.011,-21.061 584.857,-19.2734"/>
<polygon fill="grey" stroke="grey" stroke-width="2" points="585.003,-22.7714 594.939,-19.0938 584.878,-15.7725 585.003,-22.7714"/>
</g>
<!-- 8&#45;&gt;10 -->
<g id="edge27" class="edge"><title>8&#45;&gt;10</title>
<path fill="none" stroke="grey" stroke-width="2" d="M619.377,-215.876C634.544,-206.724 653.405,-195.342 669.739,-185.485"/>
<polygon fill="grey" stroke="grey" stroke-width="2" points="671.761,-188.353 678.514,-180.19 668.144,-182.36 671.761,-188.353"/>
</g>
<!-- 9&#45;&gt;0 -->
<g id="edge9" class="edge"><title>9&#45;&gt;0</title>
<path fill="none" stroke="grey" stroke-width="2" d="M873.599,-215.893C938.038,-187.636 1047.87,-128.68 999,-72 961.284,-28.2528 792.379,-20.0503 701.436,-18.8694"/>
<polygon fill="grey" stroke="grey" stroke-width="2" points="701.317,-15.368 691.281,-18.7625 701.243,-22.3677 701.317,-15.368"/>
</g>
<!-- 9&#45;&gt;10 -->
<g id="edge28" class="edge"><title>9&#45;&gt;10</title>
<path fill="none" stroke="grey" stroke-width="2" d="M800.666,-215.876C784.303,-206.639 763.917,-195.131 746.346,-185.212"/>
<polygon fill="grey" stroke="grey" stroke-width="2" points="747.879,-182.058 737.45,-180.19 744.438,-188.154 747.879,-182.058"/>
</g>
<!-- 10&#45;&gt;0 -->
<g id="edge10" class="edge"><title>10&#45;&gt;0</title>
<path fill="none" stroke="grey" stroke-width="2" d="M761.872,-160.673C857.946,-158.251 1040.82,-144.332 979,-72 943.975,-31.0173 788.004,-21.5336 701.418,-19.4648"/>
<polygon fill="grey" stroke="grey" stroke-width="2" points="701.288,-15.9613 691.216,-19.2476 701.139,-22.9597 701.288,-15.9613"/>
</g>
<!-- 11 -->
<g id="node12" class="node"><title>11</title>
<path fill="none" stroke="#56d863" stroke-width="2" d="M403.5,-108C403.5,-108 322.5,-108 322.5,-108 316.5,-108 310.5,-102 310.5,-96 310.5,-96 310.5,-84 310.5,-84 310.5,-78 316.5,-72 322.5,-72 322.5,-72 403.5,-72 403.5,-72 409.5,-72 415.5,-78 415.5,-84 415.5,-84 415.5,-96 415.5,-96 415.5,-102 409.5,-108 403.5,-108"/>
<text text-anchor="middle" x="363" y="-87.5" font-family="sans" font-size="10.00">structure_function</text>
</g>
<!-- 10&#45;&gt;11 -->
<g id="edge31" class="edge"><title>10&#45;&gt;11</title>
<path fill="none" stroke="grey" stroke-width="2" d="M652.401,-152.102C597.507,-142.85 510.286,-127.317 425.483,-108.012"/>
<polygon fill="grey" stroke="grey" stroke-width="2" points="426.22,-104.59 415.691,-105.763 424.654,-111.412 426.22,-104.59"/>
</g>
<!-- 12 -->
<g id="node13" class="node"><title>12</title>
<path fill="none" stroke="#56d0d8" stroke-width="2" d="M556,-108C556,-108 446,-108 446,-108 440,-108 434,-102 434,-96 434,-96 434,-84 434,-84 434,-78 440,-72 446,-72 446,-72 556,-72 556,-72 562,-72 568,-78 568,-84 568,-84 568,-96 568,-96 568,-102 562,-108 556,-108"/>
<text text-anchor="middle" x="501" y="-87.5" font-family="sans" font-size="10.00">logoplots_of_muteffects</text>
</g>
<!-- 10&#45;&gt;12 -->
<g id="edge32" class="edge"><title>10&#45;&gt;12</title>
<path fill="none" stroke="grey" stroke-width="2" d="M656.87,-143.966C627.962,-134.142 591.431,-121.729 561.002,-111.389"/>
<polygon fill="grey" stroke="grey" stroke-width="2" points="561.949,-108.014 551.355,-108.111 559.697,-114.642 561.949,-108.014"/>
</g>
<!-- 13 -->
<g id="node14" class="node"><title>13</title>
<path fill="none" stroke="#d8d356" stroke-width="2" d="M687.5,-108C687.5,-108 598.5,-108 598.5,-108 592.5,-108 586.5,-102 586.5,-96 586.5,-96 586.5,-84 586.5,-84 586.5,-78 592.5,-72 598.5,-72 598.5,-72 687.5,-72 687.5,-72 693.5,-72 699.5,-78 699.5,-84 699.5,-84 699.5,-96 699.5,-96 699.5,-102 693.5,-108 687.5,-108"/>
<text text-anchor="middle" x="643" y="-87.5" font-family="sans" font-size="10.00">circulating_variants</text>
</g>
<!-- 10&#45;&gt;13 -->
<g id="edge33" class="edge"><title>10&#45;&gt;13</title>
<path fill="none" stroke="grey" stroke-width="2" d="M691.18,-143.697C683.43,-135.22 673.961,-124.864 665.476,-115.583"/>
<polygon fill="grey" stroke="grey" stroke-width="2" points="667.969,-113.123 658.638,-108.104 662.803,-117.846 667.969,-113.123"/>
</g>
<!-- 14 -->
<g id="node15" class="node"><title>14</title>
<path fill="none" stroke="#56b1d8" stroke-width="2" d="M812.5,-108C812.5,-108 729.5,-108 729.5,-108 723.5,-108 717.5,-102 717.5,-96 717.5,-96 717.5,-84 717.5,-84 717.5,-78 723.5,-72 729.5,-72 729.5,-72 812.5,-72 812.5,-72 818.5,-72 824.5,-78 824.5,-84 824.5,-84 824.5,-96 824.5,-96 824.5,-102 818.5,-108 812.5,-108"/>
<text text-anchor="middle" x="771" y="-87.5" font-family="sans" font-size="10.00">antibody_epitopes</text>
</g>
<!-- 10&#45;&gt;14 -->
<g id="edge34" class="edge"><title>10&#45;&gt;14</title>
<path fill="none" stroke="grey" stroke-width="2" d="M722.82,-143.697C730.57,-135.22 740.039,-124.864 748.524,-115.583"/>
<polygon fill="grey" stroke="grey" stroke-width="2" points="751.197,-117.846 755.362,-108.104 746.031,-113.123 751.197,-117.846"/>
</g>
<!-- 15 -->
<g id="node16" class="node"><title>15</title>
<path fill="none" stroke="#bed856" stroke-width="2" d="M957.5,-108C957.5,-108 854.5,-108 854.5,-108 848.5,-108 842.5,-102 842.5,-96 842.5,-96 842.5,-84 842.5,-84 842.5,-78 848.5,-72 854.5,-72 854.5,-72 957.5,-72 957.5,-72 963.5,-72 969.5,-78 969.5,-84 969.5,-84 969.5,-96 969.5,-96 969.5,-102 963.5,-108 957.5,-108"/>
<text text-anchor="middle" x="906" y="-87.5" font-family="sans" font-size="10.00">sarbecovirus_diversity</text>
</g>
<!-- 10&#45;&gt;15 -->
<g id="edge35" class="edge"><title>10&#45;&gt;15</title>
<path fill="none" stroke="grey" stroke-width="2" d="M755.426,-143.966C783.231,-134.185 818.336,-121.836 847.654,-111.524"/>
<polygon fill="grey" stroke="grey" stroke-width="2" points="849.084,-114.731 857.356,-108.111 846.762,-108.127 849.084,-114.731"/>
</g>
<!-- 11&#45;&gt;0 -->
<g id="edge11" class="edge"><title>11&#45;&gt;0</title>
<path fill="none" stroke="grey" stroke-width="2" d="M415.737,-74.4275C418.869,-73.597 421.974,-72.7824 425,-72 479.051,-58.0227 540.916,-43.0822 584.901,-32.6389"/>
<polygon fill="grey" stroke="grey" stroke-width="2" points="585.918,-35.9948 594.842,-30.2829 584.304,-29.1834 585.918,-35.9948"/>
</g>
<!-- 12&#45;&gt;0 -->
<g id="edge12" class="edge"><title>12&#45;&gt;0</title>
<path fill="none" stroke="grey" stroke-width="2" d="M535.737,-71.8761C554.819,-62.4693 578.679,-50.7077 599.047,-40.6672"/>
<polygon fill="grey" stroke="grey" stroke-width="2" points="600.708,-43.7506 608.129,-36.1898 597.612,-37.472 600.708,-43.7506"/>
</g>
<!-- 13&#45;&gt;0 -->
<g id="edge13" class="edge"><title>13&#45;&gt;0</title>
<path fill="none" stroke="grey" stroke-width="2" d="M643,-71.6966C643,-63.9827 643,-54.7125 643,-46.1124"/>
<polygon fill="grey" stroke="grey" stroke-width="2" points="646.5,-46.1043 643,-36.1043 639.5,-46.1044 646.5,-46.1043"/>
</g>
<!-- 14&#45;&gt;0 -->
<g id="edge14" class="edge"><title>14&#45;&gt;0</title>
<path fill="none" stroke="grey" stroke-width="2" d="M739.688,-71.8761C722.797,-62.6388 701.753,-51.1308 683.615,-41.2116"/>
<polygon fill="grey" stroke="grey" stroke-width="2" points="684.886,-37.9171 674.433,-36.1898 681.527,-44.0587 684.886,-37.9171"/>
</g>
<!-- 15&#45;&gt;0 -->
<g id="edge15" class="edge"><title>15&#45;&gt;0</title>
<path fill="none" stroke="grey" stroke-width="2" d="M842.335,-72.055C799.269,-60.5924 742.835,-45.5721 701.011,-34.4401"/>
<polygon fill="grey" stroke="grey" stroke-width="2" points="701.812,-31.0315 691.248,-31.8416 700.011,-37.796 701.812,-31.0315"/>
</g>
<!-- 16 -->
<g id="node17" class="node"><title>16</title>
<path fill="none" stroke="#5673d8" stroke-width="2" d="M241,-612C241,-612 121,-612 121,-612 115,-612 109,-606 109,-600 109,-600 109,-588 109,-588 109,-582 115,-576 121,-576 121,-576 241,-576 241,-576 247,-576 253,-582 253,-588 253,-588 253,-600 253,-600 253,-606 247,-612 241,-612"/>
<text text-anchor="middle" x="181" y="-597" font-family="sans" font-size="10.00">build_ccs</text>
<text text-anchor="middle" x="181" y="-586" font-family="sans" font-size="10.00">pacbioRun: lib1_200415_A</text>
</g>
<!-- 16&#45;&gt;2 -->
<g id="edge16" class="edge"><title>16&#45;&gt;2</title>
<path fill="none" stroke="grey" stroke-width="2" d="M240.134,-575.966C281.917,-563.929 337.202,-548.004 376.202,-536.769"/>
<polygon fill="grey" stroke="grey" stroke-width="2" points="377.605,-540.007 386.246,-533.876 375.668,-533.281 377.605,-540.007"/>
</g>
<!-- 17 -->
<g id="node18" class="node"><title>17</title>
<path fill="none" stroke="#5673d8" stroke-width="2" d="M403,-612C403,-612 283,-612 283,-612 277,-612 271,-606 271,-600 271,-600 271,-588 271,-588 271,-582 277,-576 283,-576 283,-576 403,-576 403,-576 409,-576 415,-582 415,-588 415,-588 415,-600 415,-600 415,-606 409,-612 403,-612"/>
<text text-anchor="middle" x="343" y="-597" font-family="sans" font-size="10.00">build_ccs</text>
<text text-anchor="middle" x="343" y="-586" font-family="sans" font-size="10.00">pacbioRun: lib1_200415_B</text>
</g>
<!-- 17&#45;&gt;2 -->
<g id="edge17" class="edge"><title>17&#45;&gt;2</title>
<path fill="none" stroke="grey" stroke-width="2" d="M363.022,-575.697C373.126,-566.965 385.536,-556.24 396.518,-546.75"/>
<polygon fill="grey" stroke="grey" stroke-width="2" points="398.93,-549.291 404.208,-540.104 394.353,-543.995 398.93,-549.291"/>
</g>
<!-- 18 -->
<g id="node19" class="node"><title>18</title>
<path fill="none" stroke="#5673d8" stroke-width="2" d="M565,-612C565,-612 445,-612 445,-612 439,-612 433,-606 433,-600 433,-600 433,-588 433,-588 433,-582 439,-576 445,-576 445,-576 565,-576 565,-576 571,-576 577,-582 577,-588 577,-588 577,-600 577,-600 577,-606 571,-612 565,-612"/>
<text text-anchor="middle" x="505" y="-597" font-family="sans" font-size="10.00">build_ccs</text>
<text text-anchor="middle" x="505" y="-586" font-family="sans" font-size="10.00">pacbioRun: lib2_200415_A</text>
</g>
<!-- 18&#45;&gt;2 -->
<g id="edge18" class="edge"><title>18&#45;&gt;2</title>
<path fill="none" stroke="grey" stroke-width="2" d="M484.978,-575.697C474.874,-566.965 462.464,-556.24 451.482,-546.75"/>
<polygon fill="grey" stroke="grey" stroke-width="2" points="453.647,-543.995 443.792,-540.104 449.07,-549.291 453.647,-543.995"/>
</g>
<!-- 19 -->
<g id="node20" class="node"><title>19</title>
<path fill="none" stroke="#5673d8" stroke-width="2" d="M727,-612C727,-612 607,-612 607,-612 601,-612 595,-606 595,-600 595,-600 595,-588 595,-588 595,-582 601,-576 607,-576 607,-576 727,-576 727,-576 733,-576 739,-582 739,-588 739,-588 739,-600 739,-600 739,-606 733,-612 727,-612"/>
<text text-anchor="middle" x="667" y="-597" font-family="sans" font-size="10.00">build_ccs</text>
<text text-anchor="middle" x="667" y="-586" font-family="sans" font-size="10.00">pacbioRun: lib2_200415_B</text>
</g>
<!-- 19&#45;&gt;2 -->
<g id="edge19" class="edge"><title>19&#45;&gt;2</title>
<path fill="none" stroke="grey" stroke-width="2" d="M607.866,-575.966C566.083,-563.929 510.798,-548.004 471.798,-536.769"/>
<polygon fill="grey" stroke="grey" stroke-width="2" points="472.332,-533.281 461.754,-533.876 470.395,-540.007 472.332,-533.281"/>
</g>
</g>
</svg>
