<?xml version="1.0" encoding="UTF-8" standalone="no"?>
<!DOCTYPE svg PUBLIC "-//W3C//DTD SVG 1.1//EN"
 "http://www.w3.org/Graphics/SVG/1.1/DTD/svg11.dtd">
<!-- Generated by graphviz version 2.38.0 (20140413.2041)
 -->
<!-- Title: snakemake_dag Pages: 1 -->
<svg width="1006pt" height="620pt"
 viewBox="0.00 0.00 1006.00 620.00" xmlns="http://www.w3.org/2000/svg" xmlns:xlink="http://www.w3.org/1999/xlink">
<g id="graph0" class="graph" transform="scale(1 1) rotate(0) translate(4 616)">
<title>snakemake_dag</title>
<polygon fill="white" stroke="none" points="-4,4 -4,-616 1002,-616 1002,4 -4,4"/>
<!-- 0 -->
<g id="node1" class="node"><title>0</title>
<path fill="none" stroke="#567bd8" stroke-width="2" d="M598,-36C598,-36 526,-36 526,-36 520,-36 514,-30 514,-24 514,-24 514,-12 514,-12 514,-6 520,-0 526,-0 526,-0 598,-0 598,-0 604,-0 610,-6 610,-12 610,-12 610,-24 610,-24 610,-30 604,-36 598,-36"/>
<text text-anchor="middle" x="562" y="-15.5" font-family="sans" font-size="10.00">make_summary</text>
</g>
<!-- 1 -->
<g id="node2" class="node"><title>1</title>
<path fill="none" stroke="#97d856" stroke-width="2" d="M56,-108C56,-108 12,-108 12,-108 6,-108 0,-102 0,-96 0,-96 0,-84 0,-84 0,-78 6,-72 12,-72 12,-72 56,-72 56,-72 62,-72 68,-78 68,-84 68,-84 68,-96 68,-96 68,-102 62,-108 56,-108"/>
<text text-anchor="middle" x="34" y="-87.5" font-family="sans" font-size="10.00">make_dag</text>
</g>
<!-- 1&#45;&gt;0 -->
<g id="edge1" class="edge"><title>1&#45;&gt;0</title>
<path fill="none" stroke="grey" stroke-width="2" d="M68.0642,-75.8577C72.6993,-74.3878 77.4328,-73.0462 82,-72 231.512,-37.7526 412.473,-25.3866 503.574,-21.1179"/>
<polygon fill="grey" stroke="grey" stroke-width="2" points="503.868,-24.6083 513.7,-20.6597 503.552,-17.6155 503.868,-24.6083"/>
</g>
<!-- 2 -->
<g id="node3" class="node"><title>2</title>
<path fill="none" stroke="#56d8d8" stroke-width="2" d="M379.5,-540C379.5,-540 328.5,-540 328.5,-540 322.5,-540 316.5,-534 316.5,-528 316.5,-528 316.5,-516 316.5,-516 316.5,-510 322.5,-504 328.5,-504 328.5,-504 379.5,-504 379.5,-504 385.5,-504 391.5,-510 391.5,-516 391.5,-516 391.5,-528 391.5,-528 391.5,-534 385.5,-540 379.5,-540"/>
<text text-anchor="middle" x="354" y="-519.5" font-family="sans" font-size="10.00">process_ccs</text>
</g>
<!-- 2&#45;&gt;0 -->
<g id="edge2" class="edge"><title>2&#45;&gt;0</title>
<path fill="none" stroke="grey" stroke-width="2" d="M316.485,-517.569C244.929,-508.748 96,-478.444 96,-379 96,-379 96,-379 96,-161 96,-102.492 140.128,-97.0551 193,-72 246.851,-46.4809 414.17,-30.2506 503.845,-23.1505"/>
<polygon fill="grey" stroke="grey" stroke-width="2" points="504.159,-26.6367 513.856,-22.3702 503.615,-19.6579 504.159,-26.6367"/>
</g>
<!-- 3 -->
<g id="node4" class="node"><title>3</title>
<path fill="none" stroke="#56d89a" stroke-width="2" d="M645,-468C645,-468 583,-468 583,-468 577,-468 571,-462 571,-456 571,-456 571,-444 571,-444 571,-438 577,-432 583,-432 583,-432 645,-432 645,-432 651,-432 657,-438 657,-444 657,-444 657,-456 657,-456 657,-462 651,-468 645,-468"/>
<text text-anchor="middle" x="614" y="-447.5" font-family="sans" font-size="10.00">build_variants</text>
</g>
<!-- 2&#45;&gt;3 -->
<g id="edge19" class="edge"><title>2&#45;&gt;3</title>
<path fill="none" stroke="grey" stroke-width="2" d="M391.529,-510.896C436.09,-498.899 510.708,-478.809 561.109,-465.24"/>
<polygon fill="grey" stroke="grey" stroke-width="2" points="562.105,-468.597 570.851,-462.617 560.285,-461.837 562.105,-468.597"/>
</g>
<!-- 3&#45;&gt;0 -->
<g id="edge3" class="edge"><title>3&#45;&gt;0</title>
<path fill="none" stroke="grey" stroke-width="2" d="M657.303,-442.416C757.729,-425.93 998,-378.967 998,-307 998,-307 998,-307 998,-161 998,-114.027 980.545,-97.35 941,-72 889.042,-38.6929 712.888,-25.8155 620.168,-21.2572"/>
<polygon fill="grey" stroke="grey" stroke-width="2" points="620.258,-17.7576 610.103,-20.779 619.925,-24.7498 620.258,-17.7576"/>
</g>
<!-- 4 -->
<g id="node5" class="node"><title>4</title>
<path fill="none" stroke="#d8b456" stroke-width="2" d="M646.5,-396C646.5,-396 581.5,-396 581.5,-396 575.5,-396 569.5,-390 569.5,-384 569.5,-384 569.5,-372 569.5,-372 569.5,-366 575.5,-360 581.5,-360 581.5,-360 646.5,-360 646.5,-360 652.5,-360 658.5,-366 658.5,-372 658.5,-372 658.5,-384 658.5,-384 658.5,-390 652.5,-396 646.5,-396"/>
<text text-anchor="middle" x="614" y="-375.5" font-family="sans" font-size="10.00">count_variants</text>
</g>
<!-- 3&#45;&gt;4 -->
<g id="edge20" class="edge"><title>3&#45;&gt;4</title>
<path fill="none" stroke="grey" stroke-width="2" d="M614,-431.697C614,-423.983 614,-414.712 614,-406.112"/>
<polygon fill="grey" stroke="grey" stroke-width="2" points="617.5,-406.104 614,-396.104 610.5,-406.104 617.5,-406.104"/>
</g>
<!-- 4&#45;&gt;0 -->
<g id="edge4" class="edge"><title>4&#45;&gt;0</title>
<path fill="none" stroke="grey" stroke-width="2" d="M658.525,-368.48C751.974,-349.324 960,-299.444 960,-235 960,-235 960,-235 960,-161 960,-115.188 945.888,-97.7544 908,-72 862.241,-40.8947 706.513,-27.2243 620.415,-21.9238"/>
<polygon fill="grey" stroke="grey" stroke-width="2" points="620.464,-18.4205 610.273,-21.3183 620.046,-25.4081 620.464,-18.4205"/>
</g>
<!-- 5 -->
<g id="node6" class="node"><title>5</title>
<path fill="none" stroke="#d85656" stroke-width="2" d="M204,-180C204,-180 136,-180 136,-180 130,-180 124,-174 124,-168 124,-168 124,-156 124,-156 124,-150 130,-144 136,-144 136,-144 204,-144 204,-144 210,-144 216,-150 216,-156 216,-156 216,-168 216,-168 216,-174 210,-180 204,-180"/>
<text text-anchor="middle" x="170" y="-159.5" font-family="sans" font-size="10.00">analyze_counts</text>
</g>
<!-- 4&#45;&gt;5 -->
<g id="edge21" class="edge"><title>4&#45;&gt;5</title>
<path fill="none" stroke="grey" stroke-width="2" d="M569.387,-372.026C492.999,-361.576 335.234,-331.364 230,-252 208.392,-235.704 191.99,-209.253 181.842,-189.415"/>
<polygon fill="grey" stroke="grey" stroke-width="2" points="184.91,-187.721 177.367,-180.28 178.623,-190.8 184.91,-187.721"/>
</g>
<!-- 6 -->
<g id="node7" class="node"><title>6</title>
<path fill="none" stroke="#d89556" stroke-width="2" d="M584,-324C584,-324 484,-324 484,-324 478,-324 472,-318 472,-312 472,-312 472,-300 472,-300 472,-294 478,-288 484,-288 484,-288 584,-288 584,-288 590,-288 596,-294 596,-300 596,-300 596,-312 596,-312 596,-318 590,-324 584,-324"/>
<text text-anchor="middle" x="534" y="-303.5" font-family="sans" font-size="10.00">compute_Titeseq_Kds</text>
</g>
<!-- 4&#45;&gt;6 -->
<g id="edge22" class="edge"><title>4&#45;&gt;6</title>
<path fill="none" stroke="grey" stroke-width="2" d="M594.225,-359.697C584.246,-350.965 571.989,-340.24 561.143,-330.75"/>
<polygon fill="grey" stroke="grey" stroke-width="2" points="563.378,-328.055 553.548,-324.104 558.769,-333.323 563.378,-328.055"/>
</g>
<!-- 7 -->
<g id="node8" class="node"><title>7</title>
<path fill="none" stroke="#56d8b9" stroke-width="2" d="M802.5,-324C802.5,-324 665.5,-324 665.5,-324 659.5,-324 653.5,-318 653.5,-312 653.5,-312 653.5,-300 653.5,-300 653.5,-294 659.5,-288 665.5,-288 665.5,-288 802.5,-288 802.5,-288 808.5,-288 814.5,-294 814.5,-300 814.5,-300 814.5,-312 814.5,-312 814.5,-318 808.5,-324 802.5,-324"/>
<text text-anchor="middle" x="734" y="-303.5" font-family="sans" font-size="10.00">compute_expression_meanFs</text>
</g>
<!-- 4&#45;&gt;7 -->
<g id="edge23" class="edge"><title>4&#45;&gt;7</title>
<path fill="none" stroke="grey" stroke-width="2" d="M643.355,-359.876C659.045,-350.724 678.557,-339.342 695.454,-329.485"/>
<polygon fill="grey" stroke="grey" stroke-width="2" points="697.658,-332.252 704.532,-324.19 694.13,-326.205 697.658,-332.252"/>
</g>
<!-- 5&#45;&gt;0 -->
<g id="edge5" class="edge"><title>5&#45;&gt;0</title>
<path fill="none" stroke="grey" stroke-width="2" d="M176.567,-143.749C185.391,-123.093 203.138,-89.1409 230,-72 274.401,-43.668 421.198,-28.9423 503.952,-22.7194"/>
<polygon fill="grey" stroke="grey" stroke-width="2" points="504.243,-26.2075 513.96,-21.9847 503.731,-19.2263 504.243,-26.2075"/>
</g>
<!-- 6&#45;&gt;0 -->
<g id="edge6" class="edge"><title>6&#45;&gt;0</title>
<path fill="none" stroke="grey" stroke-width="2" d="M488.576,-287.9C398.196,-251.41 210.681,-161.887 285,-72 312.172,-39.1359 430.606,-26.4572 503.532,-21.7099"/>
<polygon fill="grey" stroke="grey" stroke-width="2" points="504.18,-25.1765 513.945,-21.0655 503.748,-18.1899 504.18,-25.1765"/>
</g>
<!-- 8 -->
<g id="node9" class="node"><title>8</title>
<path fill="none" stroke="#59d856" stroke-width="2" d="M570.5,-252C570.5,-252 457.5,-252 457.5,-252 451.5,-252 445.5,-246 445.5,-240 445.5,-240 445.5,-228 445.5,-228 445.5,-222 451.5,-216 457.5,-216 457.5,-216 570.5,-216 570.5,-216 576.5,-216 582.5,-222 582.5,-228 582.5,-228 582.5,-240 582.5,-240 582.5,-246 576.5,-252 570.5,-252"/>
<text text-anchor="middle" x="514" y="-231.5" font-family="sans" font-size="10.00">global_epistasis_binding</text>
</g>
<!-- 6&#45;&gt;8 -->
<g id="edge24" class="edge"><title>6&#45;&gt;8</title>
<path fill="none" stroke="grey" stroke-width="2" d="M529.056,-287.697C526.828,-279.898 524.145,-270.509 521.665,-261.829"/>
<polygon fill="grey" stroke="grey" stroke-width="2" points="525,-260.758 518.887,-252.104 518.269,-262.681 525,-260.758"/>
</g>
<!-- 10 -->
<g id="node11" class="node"><title>10</title>
<path fill="none" stroke="#d6d856" stroke-width="2" d="M672.5,-180C672.5,-180 587.5,-180 587.5,-180 581.5,-180 575.5,-174 575.5,-168 575.5,-168 575.5,-156 575.5,-156 575.5,-150 581.5,-144 587.5,-144 587.5,-144 672.5,-144 672.5,-144 678.5,-144 684.5,-150 684.5,-156 684.5,-156 684.5,-168 684.5,-168 684.5,-174 678.5,-180 672.5,-180"/>
<text text-anchor="middle" x="630" y="-159.5" font-family="sans" font-size="10.00">single_mut_effects</text>
</g>
<!-- 6&#45;&gt;10 -->
<g id="edge28" class="edge"><title>6&#45;&gt;10</title>
<path fill="none" stroke="grey" stroke-width="2" d="M557.124,-287.795C568.748,-278.246 582.372,-265.573 592,-252 605.533,-232.922 615.585,-208.273 621.94,-189.755"/>
<polygon fill="grey" stroke="grey" stroke-width="2" points="625.292,-190.764 625.089,-180.171 618.642,-188.579 625.292,-190.764"/>
</g>
<!-- 7&#45;&gt;0 -->
<g id="edge7" class="edge"><title>7&#45;&gt;0</title>
<path fill="none" stroke="grey" stroke-width="2" d="M788.217,-287.936C806.871,-279.696 826.451,-268.026 840,-252 893.171,-189.109 937.296,-134.785 884,-72 850.828,-32.9215 703.67,-22.6075 620.24,-19.9187"/>
<polygon fill="grey" stroke="grey" stroke-width="2" points="620.246,-16.4174 610.147,-19.6205 620.039,-23.4144 620.246,-16.4174"/>
</g>
<!-- 9 -->
<g id="node10" class="node"><title>9</title>
<path fill="none" stroke="#56d87b" stroke-width="2" d="M819,-252C819,-252 689,-252 689,-252 683,-252 677,-246 677,-240 677,-240 677,-228 677,-228 677,-222 683,-216 689,-216 689,-216 819,-216 819,-216 825,-216 831,-222 831,-228 831,-228 831,-240 831,-240 831,-246 825,-252 819,-252"/>
<text text-anchor="middle" x="754" y="-231.5" font-family="sans" font-size="10.00">global_epistasis_expression</text>
</g>
<!-- 7&#45;&gt;9 -->
<g id="edge25" class="edge"><title>7&#45;&gt;9</title>
<path fill="none" stroke="grey" stroke-width="2" d="M738.944,-287.697C741.172,-279.898 743.855,-270.509 746.335,-261.829"/>
<polygon fill="grey" stroke="grey" stroke-width="2" points="749.731,-262.681 749.113,-252.104 743,-260.758 749.731,-262.681"/>
</g>
<!-- 7&#45;&gt;10 -->
<g id="edge29" class="edge"><title>7&#45;&gt;10</title>
<path fill="none" stroke="grey" stroke-width="2" d="M706.933,-287.915C693.824,-278.574 678.656,-266.051 668,-252 653.78,-233.251 643.745,-208.376 637.573,-189.692"/>
<polygon fill="grey" stroke="grey" stroke-width="2" points="640.873,-188.519 634.539,-180.026 634.194,-190.616 640.873,-188.519"/>
</g>
<!-- 8&#45;&gt;0 -->
<g id="edge8" class="edge"><title>8&#45;&gt;0</title>
<path fill="none" stroke="grey" stroke-width="2" d="M454.867,-215.938C374.952,-189.955 248.196,-136.604 301,-72 326.084,-41.3103 434.635,-27.9558 503.603,-22.4821"/>
<polygon fill="grey" stroke="grey" stroke-width="2" points="504.188,-25.9478 513.895,-21.7002 503.658,-18.9679 504.188,-25.9478"/>
</g>
<!-- 8&#45;&gt;10 -->
<g id="edge26" class="edge"><title>8&#45;&gt;10</title>
<path fill="none" stroke="grey" stroke-width="2" d="M542.377,-215.876C557.544,-206.724 576.405,-195.342 592.739,-185.485"/>
<polygon fill="grey" stroke="grey" stroke-width="2" points="594.761,-188.353 601.514,-180.19 591.144,-182.36 594.761,-188.353"/>
</g>
<!-- 9&#45;&gt;0 -->
<g id="edge9" class="edge"><title>9&#45;&gt;0</title>
<path fill="none" stroke="grey" stroke-width="2" d="M781.312,-215.784C826.105,-185.469 906.279,-121.126 865,-72 834.382,-35.5614 699.506,-24.171 620.401,-20.6134"/>
<polygon fill="grey" stroke="grey" stroke-width="2" points="620.236,-17.1034 610.098,-20.18 619.942,-24.0973 620.236,-17.1034"/>
</g>
<!-- 9&#45;&gt;10 -->
<g id="edge27" class="edge"><title>9&#45;&gt;10</title>
<path fill="none" stroke="grey" stroke-width="2" d="M723.666,-215.876C707.303,-206.639 686.917,-195.131 669.346,-185.212"/>
<polygon fill="grey" stroke="grey" stroke-width="2" points="670.879,-182.058 660.45,-180.19 667.438,-188.154 670.879,-182.058"/>
</g>
<!-- 10&#45;&gt;0 -->
<g id="edge10" class="edge"><title>10&#45;&gt;0</title>
<path fill="none" stroke="grey" stroke-width="2" d="M666.514,-143.924C680.598,-135.293 695.176,-123.349 703,-108 710.266,-93.7451 712.108,-85.1543 703,-72 684.341,-45.0533 650.157,-31.7882 620.12,-25.2671"/>
<polygon fill="grey" stroke="grey" stroke-width="2" points="620.609,-21.7962 610.122,-23.3041 619.26,-28.6651 620.609,-21.7962"/>
</g>
<!-- 11 -->
<g id="node12" class="node"><title>11</title>
<path fill="none" stroke="#78d856" stroke-width="2" d="M843.5,-108C843.5,-108 762.5,-108 762.5,-108 756.5,-108 750.5,-102 750.5,-96 750.5,-96 750.5,-84 750.5,-84 750.5,-78 756.5,-72 762.5,-72 762.5,-72 843.5,-72 843.5,-72 849.5,-72 855.5,-78 855.5,-84 855.5,-84 855.5,-96 855.5,-96 855.5,-102 849.5,-108 843.5,-108"/>
<text text-anchor="middle" x="803" y="-87.5" font-family="sans" font-size="10.00">structure_function</text>
</g>
<!-- 10&#45;&gt;11 -->
<g id="edge30" class="edge"><title>10&#45;&gt;11</title>
<path fill="none" stroke="grey" stroke-width="2" d="M672.321,-143.876C696.181,-134.222 726.172,-122.087 751.403,-111.878"/>
<polygon fill="grey" stroke="grey" stroke-width="2" points="752.86,-115.064 760.817,-108.068 750.234,-108.575 752.86,-115.064"/>
</g>
<!-- 12 -->
<g id="node13" class="node"><title>12</title>
<path fill="none" stroke="#b6d856" stroke-width="2" d="M411.5,-108C411.5,-108 322.5,-108 322.5,-108 316.5,-108 310.5,-102 310.5,-96 310.5,-96 310.5,-84 310.5,-84 310.5,-78 316.5,-72 322.5,-72 322.5,-72 411.5,-72 411.5,-72 417.5,-72 423.5,-78 423.5,-84 423.5,-84 423.5,-96 423.5,-96 423.5,-102 417.5,-108 411.5,-108"/>
<text text-anchor="middle" x="367" y="-87.5" font-family="sans" font-size="10.00">circulating_variants</text>
</g>
<!-- 10&#45;&gt;12 -->
<g id="edge31" class="edge"><title>10&#45;&gt;12</title>
<path fill="none" stroke="grey" stroke-width="2" d="M575.187,-146.411C533.899,-135.422 477.109,-120.306 433.27,-108.638"/>
<polygon fill="grey" stroke="grey" stroke-width="2" points="434.122,-105.243 423.558,-106.054 432.322,-112.008 434.122,-105.243"/>
</g>
<!-- 13 -->
<g id="node14" class="node"><title>13</title>
<path fill="none" stroke="#d87556" stroke-width="2" d="M536.5,-108C536.5,-108 453.5,-108 453.5,-108 447.5,-108 441.5,-102 441.5,-96 441.5,-96 441.5,-84 441.5,-84 441.5,-78 447.5,-72 453.5,-72 453.5,-72 536.5,-72 536.5,-72 542.5,-72 548.5,-78 548.5,-84 548.5,-84 548.5,-96 548.5,-96 548.5,-102 542.5,-108 536.5,-108"/>
<text text-anchor="middle" x="495" y="-87.5" font-family="sans" font-size="10.00">antibody_epitopes</text>
</g>
<!-- 10&#45;&gt;13 -->
<g id="edge32" class="edge"><title>10&#45;&gt;13</title>
<path fill="none" stroke="grey" stroke-width="2" d="M596.975,-143.876C578.915,-134.512 556.355,-122.814 537.049,-112.803"/>
<polygon fill="grey" stroke="grey" stroke-width="2" points="538.64,-109.686 528.152,-108.19 535.418,-115.9 538.64,-109.686"/>
</g>
<!-- 14 -->
<g id="node15" class="node"><title>14</title>
<path fill="none" stroke="#569ad8" stroke-width="2" d="M681.5,-108C681.5,-108 578.5,-108 578.5,-108 572.5,-108 566.5,-102 566.5,-96 566.5,-96 566.5,-84 566.5,-84 566.5,-78 572.5,-72 578.5,-72 578.5,-72 681.5,-72 681.5,-72 687.5,-72 693.5,-78 693.5,-84 693.5,-84 693.5,-96 693.5,-96 693.5,-102 687.5,-108 681.5,-108"/>
<text text-anchor="middle" x="630" y="-87.5" font-family="sans" font-size="10.00">sarbecovirus_diversity</text>
</g>
<!-- 10&#45;&gt;14 -->
<g id="edge33" class="edge"><title>10&#45;&gt;14</title>
<path fill="none" stroke="grey" stroke-width="2" d="M630,-143.697C630,-135.983 630,-126.712 630,-118.112"/>
<polygon fill="grey" stroke="grey" stroke-width="2" points="633.5,-118.104 630,-108.104 626.5,-118.104 633.5,-118.104"/>
</g>
<!-- 11&#45;&gt;0 -->
<g id="edge11" class="edge"><title>11&#45;&gt;0</title>
<path fill="none" stroke="grey" stroke-width="2" d="M750.409,-73.7247C711.978,-62.5621 659.863,-47.425 620.185,-35.9002"/>
<polygon fill="grey" stroke="grey" stroke-width="2" points="620.96,-32.4809 610.381,-33.0526 619.008,-39.203 620.96,-32.4809"/>
</g>
<!-- 12&#45;&gt;0 -->
<g id="edge12" class="edge"><title>12&#45;&gt;0</title>
<path fill="none" stroke="grey" stroke-width="2" d="M414.702,-71.8761C441.952,-62.094 476.297,-49.7653 504.966,-39.4738"/>
<polygon fill="grey" stroke="grey" stroke-width="2" points="506.223,-42.7412 514.453,-36.0683 503.858,-36.1528 506.223,-42.7412"/>
</g>
<!-- 13&#45;&gt;0 -->
<g id="edge13" class="edge"><title>13&#45;&gt;0</title>
<path fill="none" stroke="grey" stroke-width="2" d="M511.562,-71.6966C519.675,-63.2198 529.588,-52.8636 538.471,-43.5826"/>
<polygon fill="grey" stroke="grey" stroke-width="2" points="541.243,-45.7486 545.629,-36.1043 536.186,-40.9084 541.243,-45.7486"/>
</g>
<!-- 14&#45;&gt;0 -->
<g id="edge14" class="edge"><title>14&#45;&gt;0</title>
<path fill="none" stroke="grey" stroke-width="2" d="M613.191,-71.6966C604.874,-63.135 594.695,-52.6562 585.61,-43.3045"/>
<polygon fill="grey" stroke="grey" stroke-width="2" points="588.094,-40.8384 578.616,-36.1043 583.073,-45.7159 588.094,-40.8384"/>
</g>
<!-- 15 -->
<g id="node16" class="node"><title>15</title>
<path fill="none" stroke="#56b9d8" stroke-width="2" d="M171,-612C171,-612 51,-612 51,-612 45,-612 39,-606 39,-600 39,-600 39,-588 39,-588 39,-582 45,-576 51,-576 51,-576 171,-576 171,-576 177,-576 183,-582 183,-588 183,-588 183,-600 183,-600 183,-606 177,-612 171,-612"/>
<text text-anchor="middle" x="111" y="-597" font-family="sans" font-size="10.00">build_ccs</text>
<text text-anchor="middle" x="111" y="-586" font-family="sans" font-size="10.00">pacbioRun: lib1_200415_A</text>
</g>
<!-- 15&#45;&gt;2 -->
<g id="edge15" class="edge"><title>15&#45;&gt;2</title>
<path fill="none" stroke="grey" stroke-width="2" d="M170.134,-575.966C211.917,-563.929 267.202,-548.004 306.202,-536.769"/>
<polygon fill="grey" stroke="grey" stroke-width="2" points="307.605,-540.007 316.246,-533.876 305.668,-533.281 307.605,-540.007"/>
</g>
<!-- 16 -->
<g id="node17" class="node"><title>16</title>
<path fill="none" stroke="#56b9d8" stroke-width="2" d="M333,-612C333,-612 213,-612 213,-612 207,-612 201,-606 201,-600 201,-600 201,-588 201,-588 201,-582 207,-576 213,-576 213,-576 333,-576 333,-576 339,-576 345,-582 345,-588 345,-588 345,-600 345,-600 345,-606 339,-612 333,-612"/>
<text text-anchor="middle" x="273" y="-597" font-family="sans" font-size="10.00">build_ccs</text>
<text text-anchor="middle" x="273" y="-586" font-family="sans" font-size="10.00">pacbioRun: lib1_200415_B</text>
</g>
<!-- 16&#45;&gt;2 -->
<g id="edge16" class="edge"><title>16&#45;&gt;2</title>
<path fill="none" stroke="grey" stroke-width="2" d="M293.022,-575.697C303.126,-566.965 315.536,-556.24 326.518,-546.75"/>
<polygon fill="grey" stroke="grey" stroke-width="2" points="328.93,-549.291 334.208,-540.104 324.353,-543.995 328.93,-549.291"/>
</g>
<!-- 17 -->
<g id="node18" class="node"><title>17</title>
<path fill="none" stroke="#56b9d8" stroke-width="2" d="M495,-612C495,-612 375,-612 375,-612 369,-612 363,-606 363,-600 363,-600 363,-588 363,-588 363,-582 369,-576 375,-576 375,-576 495,-576 495,-576 501,-576 507,-582 507,-588 507,-588 507,-600 507,-600 507,-606 501,-612 495,-612"/>
<text text-anchor="middle" x="435" y="-597" font-family="sans" font-size="10.00">build_ccs</text>
<text text-anchor="middle" x="435" y="-586" font-family="sans" font-size="10.00">pacbioRun: lib2_200415_A</text>
</g>
<!-- 17&#45;&gt;2 -->
<g id="edge17" class="edge"><title>17&#45;&gt;2</title>
<path fill="none" stroke="grey" stroke-width="2" d="M414.978,-575.697C404.874,-566.965 392.464,-556.24 381.482,-546.75"/>
<polygon fill="grey" stroke="grey" stroke-width="2" points="383.647,-543.995 373.792,-540.104 379.07,-549.291 383.647,-543.995"/>
</g>
<!-- 18 -->
<g id="node19" class="node"><title>18</title>
<path fill="none" stroke="#56b9d8" stroke-width="2" d="M657,-612C657,-612 537,-612 537,-612 531,-612 525,-606 525,-600 525,-600 525,-588 525,-588 525,-582 531,-576 537,-576 537,-576 657,-576 657,-576 663,-576 669,-582 669,-588 669,-588 669,-600 669,-600 669,-606 663,-612 657,-612"/>
<text text-anchor="middle" x="597" y="-597" font-family="sans" font-size="10.00">build_ccs</text>
<text text-anchor="middle" x="597" y="-586" font-family="sans" font-size="10.00">pacbioRun: lib2_200415_B</text>
</g>
<!-- 18&#45;&gt;2 -->
<g id="edge18" class="edge"><title>18&#45;&gt;2</title>
<path fill="none" stroke="grey" stroke-width="2" d="M537.866,-575.966C496.083,-563.929 440.798,-548.004 401.798,-536.769"/>
<polygon fill="grey" stroke="grey" stroke-width="2" points="402.332,-533.281 391.754,-533.876 400.395,-540.007 402.332,-533.281"/>
</g>
</g>
</svg>
