<?xml version="1.0" encoding="UTF-8" standalone="no"?>
<!DOCTYPE svg PUBLIC "-//W3C//DTD SVG 1.1//EN"
 "http://www.w3.org/Graphics/SVG/1.1/DTD/svg11.dtd">
<!-- Generated by graphviz version 2.36.0 (20140111.2315)
 -->
<!-- Title: snakemake_dag Pages: 1 -->
<svg width="473pt" height="476pt"
 viewBox="0.00 0.00 473.06 476.00" xmlns="http://www.w3.org/2000/svg" xmlns:xlink="http://www.w3.org/1999/xlink">
<g id="graph0" class="graph" transform="scale(1 1) rotate(0) translate(4 472)">
<title>snakemake_dag</title>
<polygon fill="white" stroke="none" points="-4,4 -4,-472 469.063,-472 469.063,4 -4,4"/>
<!-- 0 -->
<g id="node1" class="node"><title>0</title>
<path fill="none" stroke="#d85656" stroke-width="2" d="M418,-36C418,-36 388,-36 388,-36 382,-36 376,-30 376,-24 376,-24 376,-12 376,-12 376,-6 382,-0 388,-0 388,-0 418,-0 418,-0 424,-0 430,-6 430,-12 430,-12 430,-24 430,-24 430,-30 424,-36 418,-36"/>
<text text-anchor="middle" x="403" y="-15.5" font-family="sans" font-size="10.00">all</text>
</g>
<!-- 1 -->
<g id="node2" class="node"><title>1</title>
<path fill="none" stroke="#d89556" stroke-width="2" d="M344.25,-108C344.25,-108 273.75,-108 273.75,-108 267.75,-108 261.75,-102 261.75,-96 261.75,-96 261.75,-84 261.75,-84 261.75,-78 267.75,-72 273.75,-72 273.75,-72 344.25,-72 344.25,-72 350.25,-72 356.25,-78 356.25,-84 356.25,-84 356.25,-96 356.25,-96 356.25,-102 350.25,-108 344.25,-108"/>
<text text-anchor="middle" x="309" y="-87.5" font-family="sans" font-size="10.00">make_summary</text>
</g>
<!-- 1&#45;&gt;0 -->
<g id="edge1" class="edge"><title>1&#45;&gt;0</title>
<path fill="none" stroke="grey" stroke-width="2" d="M332.236,-71.6966C344.188,-62.796 358.923,-51.8232 371.847,-42.1989"/>
<polygon fill="grey" stroke="grey" stroke-width="2" points="374.101,-44.8842 380.031,-36.1043 369.92,-39.2699 374.101,-44.8842"/>
</g>
<!-- 2 -->
<g id="node3" class="node"><title>2</title>
<path fill="none" stroke="#59d856" stroke-width="2" d="M414.25,-252C414.25,-252 351.75,-252 351.75,-252 345.75,-252 339.75,-246 339.75,-240 339.75,-240 339.75,-228 339.75,-228 339.75,-222 345.75,-216 351.75,-216 351.75,-216 414.25,-216 414.25,-216 420.25,-216 426.25,-222 426.25,-228 426.25,-228 426.25,-240 426.25,-240 426.25,-246 420.25,-252 414.25,-252"/>
<text text-anchor="middle" x="383" y="-231.5" font-family="sans" font-size="10.00">count_variants</text>
</g>
<!-- 2&#45;&gt;0 -->
<g id="edge2" class="edge"><title>2&#45;&gt;0</title>
<path fill="none" stroke="grey" stroke-width="2" d="M420.391,-215.798C434.544,-207.203 449.128,-195.321 457,-180 480.376,-134.504 447.265,-76.7275 423.495,-44.2121"/>
<polygon fill="grey" stroke="grey" stroke-width="2" points="426.211,-42.0007 417.393,-36.1271 420.623,-46.2175 426.211,-42.0007"/>
</g>
<!-- 2&#45;&gt;1 -->
<g id="edge7" class="edge"><title>2&#45;&gt;1</title>
<path fill="none" stroke="grey" stroke-width="2" d="M370.998,-215.728C364.164,-205.554 355.664,-192.304 349,-180 337.904,-159.514 327.186,-135.352 319.642,-117.377"/>
<polygon fill="grey" stroke="grey" stroke-width="2" points="322.855,-115.989 315.795,-108.09 316.388,-118.668 322.855,-115.989"/>
</g>
<!-- 3 -->
<g id="node4" class="node"><title>3</title>
<path fill="none" stroke="#97d856" stroke-width="2" d="M436.25,-180C436.25,-180 369.75,-180 369.75,-180 363.75,-180 357.75,-174 357.75,-168 357.75,-168 357.75,-156 357.75,-156 357.75,-150 363.75,-144 369.75,-144 369.75,-144 436.25,-144 436.25,-144 442.25,-144 448.25,-150 448.25,-156 448.25,-156 448.25,-168 448.25,-168 448.25,-174 442.25,-180 436.25,-180"/>
<text text-anchor="middle" x="403" y="-159.5" font-family="sans" font-size="10.00">analyze_counts</text>
</g>
<!-- 2&#45;&gt;3 -->
<g id="edge10" class="edge"><title>2&#45;&gt;3</title>
<path fill="none" stroke="grey" stroke-width="2" d="M387.944,-215.697C390.172,-207.898 392.855,-198.509 395.335,-189.829"/>
<polygon fill="grey" stroke="grey" stroke-width="2" points="398.731,-190.681 398.113,-180.104 392,-188.758 398.731,-190.681"/>
</g>
<!-- 3&#45;&gt;0 -->
<g id="edge3" class="edge"><title>3&#45;&gt;0</title>
<path fill="none" stroke="grey" stroke-width="2" d="M403,-143.871C403,-119.67 403,-75.2108 403,-46.3932"/>
<polygon fill="grey" stroke="grey" stroke-width="2" points="406.5,-46.1892 403,-36.1893 399.5,-46.1893 406.5,-46.1892"/>
</g>
<!-- 3&#45;&gt;1 -->
<g id="edge8" class="edge"><title>3&#45;&gt;1</title>
<path fill="none" stroke="grey" stroke-width="2" d="M379.764,-143.697C367.812,-134.796 353.077,-123.823 340.153,-114.199"/>
<polygon fill="grey" stroke="grey" stroke-width="2" points="342.08,-111.27 331.969,-108.104 337.899,-116.884 342.08,-111.27"/>
</g>
<!-- 4 -->
<g id="node5" class="node"><title>4</title>
<path fill="none" stroke="#d6d856" stroke-width="2" d="M250.25,-180C250.25,-180 207.75,-180 207.75,-180 201.75,-180 195.75,-174 195.75,-168 195.75,-168 195.75,-156 195.75,-156 195.75,-150 201.75,-144 207.75,-144 207.75,-144 250.25,-144 250.25,-144 256.25,-144 262.25,-150 262.25,-156 262.25,-156 262.25,-168 262.25,-168 262.25,-174 256.25,-180 250.25,-180"/>
<text text-anchor="middle" x="229" y="-159.5" font-family="sans" font-size="10.00">make_dag</text>
</g>
<!-- 4&#45;&gt;1 -->
<g id="edge4" class="edge"><title>4&#45;&gt;1</title>
<path fill="none" stroke="grey" stroke-width="2" d="M248.775,-143.697C258.754,-134.965 271.011,-124.24 281.857,-114.75"/>
<polygon fill="grey" stroke="grey" stroke-width="2" points="284.231,-117.323 289.452,-108.104 279.622,-112.055 284.231,-117.323"/>
</g>
<!-- 5 -->
<g id="node6" class="node"><title>5</title>
<path fill="none" stroke="#56d8d8" stroke-width="2" d="M254.25,-396C254.25,-396 203.75,-396 203.75,-396 197.75,-396 191.75,-390 191.75,-384 191.75,-384 191.75,-372 191.75,-372 191.75,-366 197.75,-360 203.75,-360 203.75,-360 254.25,-360 254.25,-360 260.25,-360 266.25,-366 266.25,-372 266.25,-372 266.25,-384 266.25,-384 266.25,-390 260.25,-396 254.25,-396"/>
<text text-anchor="middle" x="229" y="-375.5" font-family="sans" font-size="10.00">process_ccs</text>
</g>
<!-- 5&#45;&gt;1 -->
<g id="edge5" class="edge"><title>5&#45;&gt;1</title>
<path fill="none" stroke="grey" stroke-width="2" d="M218.152,-359.842C193.768,-318.874 140.214,-213.585 186,-144 200.781,-121.536 227.309,-108.552 251.954,-101.067"/>
<polygon fill="grey" stroke="grey" stroke-width="2" points="252.945,-104.425 261.637,-98.3681 251.065,-97.6819 252.945,-104.425"/>
</g>
<!-- 6 -->
<g id="node7" class="node"><title>6</title>
<path fill="none" stroke="#56d89a" stroke-width="2" d="M320.25,-324C320.25,-324 261.75,-324 261.75,-324 255.75,-324 249.75,-318 249.75,-312 249.75,-312 249.75,-300 249.75,-300 249.75,-294 255.75,-288 261.75,-288 261.75,-288 320.25,-288 320.25,-288 326.25,-288 332.25,-294 332.25,-300 332.25,-300 332.25,-312 332.25,-312 332.25,-318 326.25,-324 320.25,-324"/>
<text text-anchor="middle" x="291" y="-303.5" font-family="sans" font-size="10.00">build_variants</text>
</g>
<!-- 5&#45;&gt;6 -->
<g id="edge14" class="edge"><title>5&#45;&gt;6</title>
<path fill="none" stroke="grey" stroke-width="2" d="M244.326,-359.697C251.759,-351.305 260.823,-341.07 268.98,-331.861"/>
<polygon fill="grey" stroke="grey" stroke-width="2" points="271.84,-333.911 275.85,-324.104 266.6,-329.27 271.84,-333.911"/>
</g>
<!-- 6&#45;&gt;1 -->
<g id="edge6" class="edge"><title>6&#45;&gt;1</title>
<path fill="none" stroke="grey" stroke-width="2" d="M292.443,-287.849C295.556,-250.832 302.929,-163.181 306.696,-118.386"/>
<polygon fill="grey" stroke="grey" stroke-width="2" points="310.2,-118.491 307.551,-108.232 303.225,-117.904 310.2,-118.491"/>
</g>
<!-- 6&#45;&gt;2 -->
<g id="edge9" class="edge"><title>6&#45;&gt;2</title>
<path fill="none" stroke="grey" stroke-width="2" d="M313.742,-287.697C325.44,-278.796 339.861,-267.823 352.51,-258.199"/>
<polygon fill="grey" stroke="grey" stroke-width="2" points="354.681,-260.945 360.52,-252.104 350.442,-255.374 354.681,-260.945"/>
</g>
<!-- 7 -->
<g id="node8" class="node"><title>7</title>
<path fill="none" stroke="#569ad8" stroke-width="2" d="M128.25,-468C128.25,-468 11.75,-468 11.75,-468 5.75,-468 -0.25,-462 -0.25,-456 -0.25,-456 -0.25,-444 -0.25,-444 -0.25,-438 5.75,-432 11.75,-432 11.75,-432 128.25,-432 128.25,-432 134.25,-432 140.25,-438 140.25,-444 140.25,-444 140.25,-456 140.25,-456 140.25,-462 134.25,-468 128.25,-468"/>
<text text-anchor="middle" x="70" y="-453" font-family="sans" font-size="10.00">build_ccs</text>
<text text-anchor="middle" x="70" y="-442" font-family="sans" font-size="10.00">pacbioRun: lib1_200415_A</text>
</g>
<!-- 7&#45;&gt;5 -->
<g id="edge11" class="edge"><title>7&#45;&gt;5</title>
<path fill="none" stroke="grey" stroke-width="2" d="M108.896,-431.876C131.036,-422.129 158.92,-409.853 182.246,-399.584"/>
<polygon fill="grey" stroke="grey" stroke-width="2" points="183.859,-402.698 191.601,-395.465 181.038,-396.291 183.859,-402.698"/>
</g>
<!-- 8 -->
<g id="node9" class="node"><title>8</title>
<path fill="none" stroke="#569ad8" stroke-width="2" d="M287.25,-468C287.25,-468 170.75,-468 170.75,-468 164.75,-468 158.75,-462 158.75,-456 158.75,-456 158.75,-444 158.75,-444 158.75,-438 164.75,-432 170.75,-432 170.75,-432 287.25,-432 287.25,-432 293.25,-432 299.25,-438 299.25,-444 299.25,-444 299.25,-456 299.25,-456 299.25,-462 293.25,-468 287.25,-468"/>
<text text-anchor="middle" x="229" y="-453" font-family="sans" font-size="10.00">build_ccs</text>
<text text-anchor="middle" x="229" y="-442" font-family="sans" font-size="10.00">pacbioRun: lib1_200415_B</text>
</g>
<!-- 8&#45;&gt;5 -->
<g id="edge12" class="edge"><title>8&#45;&gt;5</title>
<path fill="none" stroke="grey" stroke-width="2" d="M229,-431.697C229,-423.983 229,-414.712 229,-406.112"/>
<polygon fill="grey" stroke="grey" stroke-width="2" points="232.5,-406.104 229,-396.104 225.5,-406.104 232.5,-406.104"/>
</g>
<!-- 9 -->
<g id="node10" class="node"><title>9</title>
<path fill="none" stroke="#569ad8" stroke-width="2" d="M446.25,-468C446.25,-468 329.75,-468 329.75,-468 323.75,-468 317.75,-462 317.75,-456 317.75,-456 317.75,-444 317.75,-444 317.75,-438 323.75,-432 329.75,-432 329.75,-432 446.25,-432 446.25,-432 452.25,-432 458.25,-438 458.25,-444 458.25,-444 458.25,-456 458.25,-456 458.25,-462 452.25,-468 446.25,-468"/>
<text text-anchor="middle" x="388" y="-453" font-family="sans" font-size="10.00">build_ccs</text>
<text text-anchor="middle" x="388" y="-442" font-family="sans" font-size="10.00">pacbioRun: lib2_200415_A</text>
</g>
<!-- 9&#45;&gt;5 -->
<g id="edge13" class="edge"><title>9&#45;&gt;5</title>
<path fill="none" stroke="grey" stroke-width="2" d="M349.104,-431.876C326.964,-422.129 299.08,-409.853 275.754,-399.584"/>
<polygon fill="grey" stroke="grey" stroke-width="2" points="276.962,-396.291 266.399,-395.465 274.141,-402.698 276.962,-396.291"/>
</g>
</g>
</svg>
