<?xml version="1.0" encoding="UTF-8" standalone="no"?>
<!DOCTYPE svg PUBLIC "-//W3C//DTD SVG 1.1//EN"
 "http://www.w3.org/Graphics/SVG/1.1/DTD/svg11.dtd">
<!-- Generated by graphviz version 2.38.0 (20140413.2041)
 -->
<!-- Title: snakemake_dag Pages: 1 -->
<svg width="638pt" height="476pt"
 viewBox="0.00 0.00 638.00 476.00" xmlns="http://www.w3.org/2000/svg" xmlns:xlink="http://www.w3.org/1999/xlink">
<g id="graph0" class="graph" transform="scale(1 1) rotate(0) translate(4 472)">
<title>snakemake_dag</title>
<polygon fill="white" stroke="none" points="-4,4 -4,-472 634,-472 634,4 -4,4"/>
<!-- 0 -->
<g id="node1" class="node"><title>0</title>
<path fill="none" stroke="#569ad8" stroke-width="2" d="M525,-36C525,-36 495,-36 495,-36 489,-36 483,-30 483,-24 483,-24 483,-12 483,-12 483,-6 489,-0 495,-0 495,-0 525,-0 525,-0 531,-0 537,-6 537,-12 537,-12 537,-24 537,-24 537,-30 531,-36 525,-36"/>
<text text-anchor="middle" x="510" y="-15.5" font-family="sans" font-size="10.00">all</text>
</g>
<!-- 1 -->
<g id="node2" class="node"><title>1</title>
<path fill="none" stroke="#56d8d8" stroke-width="2" d="M429,-108C429,-108 357,-108 357,-108 351,-108 345,-102 345,-96 345,-96 345,-84 345,-84 345,-78 351,-72 357,-72 357,-72 429,-72 429,-72 435,-72 441,-78 441,-84 441,-84 441,-96 441,-96 441,-102 435,-108 429,-108"/>
<text text-anchor="middle" x="393" y="-87.5" font-family="sans" font-size="10.00">make_summary</text>
</g>
<!-- 1&#45;&gt;0 -->
<g id="edge1" class="edge"><title>1&#45;&gt;0</title>
<path fill="none" stroke="grey" stroke-width="2" d="M421.621,-71.8761C437.376,-62.4504 457.082,-50.6602 473.886,-40.6065"/>
<polygon fill="grey" stroke="grey" stroke-width="2" points="476.095,-43.3634 482.88,-35.2257 472.501,-37.3564 476.095,-43.3634"/>
</g>
<!-- 2 -->
<g id="node3" class="node"><title>2</title>
<path fill="none" stroke="#d89556" stroke-width="2" d="M442.5,-252C442.5,-252 377.5,-252 377.5,-252 371.5,-252 365.5,-246 365.5,-240 365.5,-240 365.5,-228 365.5,-228 365.5,-222 371.5,-216 377.5,-216 377.5,-216 442.5,-216 442.5,-216 448.5,-216 454.5,-222 454.5,-228 454.5,-228 454.5,-240 454.5,-240 454.5,-246 448.5,-252 442.5,-252"/>
<text text-anchor="middle" x="410" y="-231.5" font-family="sans" font-size="10.00">count_variants</text>
</g>
<!-- 2&#45;&gt;0 -->
<g id="edge2" class="edge"><title>2&#45;&gt;0</title>
<path fill="none" stroke="grey" stroke-width="2" d="M454.77,-231.843C492.595,-228.205 544.693,-216.356 571,-180 601.692,-137.585 561.828,-77.8411 533.59,-44.3374"/>
<polygon fill="grey" stroke="grey" stroke-width="2" points="535.909,-41.6698 526.712,-36.4114 530.623,-46.258 535.909,-41.6698"/>
</g>
<!-- 2&#45;&gt;1 -->
<g id="edge6" class="edge"><title>2&#45;&gt;1</title>
<path fill="none" stroke="grey" stroke-width="2" d="M394.817,-215.703C387.268,-205.939 378.934,-193.095 375,-180 368.83,-159.459 374.302,-135.613 380.785,-117.777"/>
<polygon fill="grey" stroke="grey" stroke-width="2" points="384.112,-118.88 384.53,-108.294 377.601,-116.309 384.112,-118.88"/>
</g>
<!-- 6 -->
<g id="node7" class="node"><title>6</title>
<path fill="none" stroke="#56d89a" stroke-width="2" d="M464,-180C464,-180 396,-180 396,-180 390,-180 384,-174 384,-168 384,-168 384,-156 384,-156 384,-150 390,-144 396,-144 396,-144 464,-144 464,-144 470,-144 476,-150 476,-156 476,-156 476,-168 476,-168 476,-174 470,-180 464,-180"/>
<text text-anchor="middle" x="430" y="-159.5" font-family="sans" font-size="10.00">analyze_counts</text>
</g>
<!-- 2&#45;&gt;6 -->
<g id="edge14" class="edge"><title>2&#45;&gt;6</title>
<path fill="none" stroke="grey" stroke-width="2" d="M414.944,-215.697C417.172,-207.898 419.855,-198.509 422.335,-189.829"/>
<polygon fill="grey" stroke="grey" stroke-width="2" points="425.731,-190.681 425.113,-180.104 419,-188.758 425.731,-190.681"/>
</g>
<!-- 3 -->
<g id="node4" class="node"><title>3</title>
<path fill="none" stroke="#97d856" stroke-width="2" d="M550,-180C550,-180 506,-180 506,-180 500,-180 494,-174 494,-168 494,-168 494,-156 494,-156 494,-150 500,-144 506,-144 506,-144 550,-144 550,-144 556,-144 562,-150 562,-156 562,-156 562,-168 562,-168 562,-174 556,-180 550,-180"/>
<text text-anchor="middle" x="528" y="-159.5" font-family="sans" font-size="10.00">make_dag</text>
</g>
<!-- 3&#45;&gt;1 -->
<g id="edge3" class="edge"><title>3&#45;&gt;1</title>
<path fill="none" stroke="grey" stroke-width="2" d="M494.975,-143.876C476.915,-134.512 454.355,-122.814 435.049,-112.803"/>
<polygon fill="grey" stroke="grey" stroke-width="2" points="436.64,-109.686 426.152,-108.19 433.418,-115.9 436.64,-109.686"/>
</g>
<!-- 4 -->
<g id="node5" class="node"><title>4</title>
<path fill="none" stroke="#d6d856" stroke-width="2" d="M340.5,-396C340.5,-396 289.5,-396 289.5,-396 283.5,-396 277.5,-390 277.5,-384 277.5,-384 277.5,-372 277.5,-372 277.5,-366 283.5,-360 289.5,-360 289.5,-360 340.5,-360 340.5,-360 346.5,-360 352.5,-366 352.5,-372 352.5,-372 352.5,-384 352.5,-384 352.5,-390 346.5,-396 340.5,-396"/>
<text text-anchor="middle" x="315" y="-375.5" font-family="sans" font-size="10.00">process_ccs</text>
</g>
<!-- 4&#45;&gt;1 -->
<g id="edge4" class="edge"><title>4&#45;&gt;1</title>
<path fill="none" stroke="grey" stroke-width="2" d="M308.155,-359.912C301.853,-341.976 294.161,-312.968 299,-288 312.129,-220.264 324.542,-204.885 357,-144 361.971,-134.675 368.21,-124.972 374.092,-116.456"/>
<polygon fill="grey" stroke="grey" stroke-width="2" points="377.102,-118.261 380.023,-108.077 371.389,-114.217 377.102,-118.261"/>
</g>
<!-- 5 -->
<g id="node6" class="node"><title>5</title>
<path fill="none" stroke="#59d856" stroke-width="2" d="M382,-324C382,-324 320,-324 320,-324 314,-324 308,-318 308,-312 308,-312 308,-300 308,-300 308,-294 314,-288 320,-288 320,-288 382,-288 382,-288 388,-288 394,-294 394,-300 394,-300 394,-312 394,-312 394,-318 388,-324 382,-324"/>
<text text-anchor="middle" x="351" y="-303.5" font-family="sans" font-size="10.00">build_variants</text>
</g>
<!-- 4&#45;&gt;5 -->
<g id="edge13" class="edge"><title>4&#45;&gt;5</title>
<path fill="none" stroke="grey" stroke-width="2" d="M323.899,-359.697C327.997,-351.728 332.949,-342.1 337.493,-333.264"/>
<polygon fill="grey" stroke="grey" stroke-width="2" points="340.742,-334.598 342.203,-324.104 334.517,-331.396 340.742,-334.598"/>
</g>
<!-- 5&#45;&gt;1 -->
<g id="edge5" class="edge"><title>5&#45;&gt;1</title>
<path fill="none" stroke="grey" stroke-width="2" d="M350.807,-287.642C350.94,-257.648 353.277,-194.484 369,-144 371.763,-135.128 375.64,-125.787 379.473,-117.461"/>
<polygon fill="grey" stroke="grey" stroke-width="2" points="382.725,-118.773 383.883,-108.242 376.411,-115.752 382.725,-118.773"/>
</g>
<!-- 5&#45;&gt;2 -->
<g id="edge8" class="edge"><title>5&#45;&gt;2</title>
<path fill="none" stroke="grey" stroke-width="2" d="M365.584,-287.697C372.658,-279.305 381.283,-269.07 389.045,-259.861"/>
<polygon fill="grey" stroke="grey" stroke-width="2" points="391.815,-262.006 395.583,-252.104 386.463,-257.495 391.815,-262.006"/>
</g>
<!-- 6&#45;&gt;1 -->
<g id="edge7" class="edge"><title>6&#45;&gt;1</title>
<path fill="none" stroke="grey" stroke-width="2" d="M420.854,-143.697C416.597,-135.644 411.444,-125.894 406.734,-116.982"/>
<polygon fill="grey" stroke="grey" stroke-width="2" points="409.808,-115.31 402.041,-108.104 403.62,-118.581 409.808,-115.31"/>
</g>
<!-- 7 -->
<g id="node8" class="node"><title>7</title>
<path fill="none" stroke="#d85656" stroke-width="2" d="M132,-468C132,-468 12,-468 12,-468 6,-468 0,-462 0,-456 0,-456 0,-444 0,-444 0,-438 6,-432 12,-432 12,-432 132,-432 132,-432 138,-432 144,-438 144,-444 144,-444 144,-456 144,-456 144,-462 138,-468 132,-468"/>
<text text-anchor="middle" x="72" y="-453" font-family="sans" font-size="10.00">build_ccs</text>
<text text-anchor="middle" x="72" y="-442" font-family="sans" font-size="10.00">pacbioRun: lib1_200415_A</text>
</g>
<!-- 7&#45;&gt;4 -->
<g id="edge9" class="edge"><title>7&#45;&gt;4</title>
<path fill="none" stroke="grey" stroke-width="2" d="M131.134,-431.966C172.917,-419.929 228.202,-404.004 267.202,-392.769"/>
<polygon fill="grey" stroke="grey" stroke-width="2" points="268.605,-396.007 277.246,-389.876 266.668,-389.281 268.605,-396.007"/>
</g>
<!-- 8 -->
<g id="node9" class="node"><title>8</title>
<path fill="none" stroke="#d85656" stroke-width="2" d="M294,-468C294,-468 174,-468 174,-468 168,-468 162,-462 162,-456 162,-456 162,-444 162,-444 162,-438 168,-432 174,-432 174,-432 294,-432 294,-432 300,-432 306,-438 306,-444 306,-444 306,-456 306,-456 306,-462 300,-468 294,-468"/>
<text text-anchor="middle" x="234" y="-453" font-family="sans" font-size="10.00">build_ccs</text>
<text text-anchor="middle" x="234" y="-442" font-family="sans" font-size="10.00">pacbioRun: lib1_200415_B</text>
</g>
<!-- 8&#45;&gt;4 -->
<g id="edge10" class="edge"><title>8&#45;&gt;4</title>
<path fill="none" stroke="grey" stroke-width="2" d="M254.022,-431.697C264.126,-422.965 276.536,-412.24 287.518,-402.75"/>
<polygon fill="grey" stroke="grey" stroke-width="2" points="289.93,-405.291 295.208,-396.104 285.353,-399.995 289.93,-405.291"/>
</g>
<!-- 9 -->
<g id="node10" class="node"><title>9</title>
<path fill="none" stroke="#d85656" stroke-width="2" d="M456,-468C456,-468 336,-468 336,-468 330,-468 324,-462 324,-456 324,-456 324,-444 324,-444 324,-438 330,-432 336,-432 336,-432 456,-432 456,-432 462,-432 468,-438 468,-444 468,-444 468,-456 468,-456 468,-462 462,-468 456,-468"/>
<text text-anchor="middle" x="396" y="-453" font-family="sans" font-size="10.00">build_ccs</text>
<text text-anchor="middle" x="396" y="-442" font-family="sans" font-size="10.00">pacbioRun: lib2_200415_A</text>
</g>
<!-- 9&#45;&gt;4 -->
<g id="edge11" class="edge"><title>9&#45;&gt;4</title>
<path fill="none" stroke="grey" stroke-width="2" d="M375.978,-431.697C365.874,-422.965 353.464,-412.24 342.482,-402.75"/>
<polygon fill="grey" stroke="grey" stroke-width="2" points="344.647,-399.995 334.792,-396.104 340.07,-405.291 344.647,-399.995"/>
</g>
<!-- 10 -->
<g id="node11" class="node"><title>10</title>
<path fill="none" stroke="#d85656" stroke-width="2" d="M618,-468C618,-468 498,-468 498,-468 492,-468 486,-462 486,-456 486,-456 486,-444 486,-444 486,-438 492,-432 498,-432 498,-432 618,-432 618,-432 624,-432 630,-438 630,-444 630,-444 630,-456 630,-456 630,-462 624,-468 618,-468"/>
<text text-anchor="middle" x="558" y="-453" font-family="sans" font-size="10.00">build_ccs</text>
<text text-anchor="middle" x="558" y="-442" font-family="sans" font-size="10.00">pacbioRun: lib2_200415_B</text>
</g>
<!-- 10&#45;&gt;4 -->
<g id="edge12" class="edge"><title>10&#45;&gt;4</title>
<path fill="none" stroke="grey" stroke-width="2" d="M498.866,-431.966C457.083,-419.929 401.798,-404.004 362.798,-392.769"/>
<polygon fill="grey" stroke="grey" stroke-width="2" points="363.332,-389.281 352.754,-389.876 361.395,-396.007 363.332,-389.281"/>
</g>
</g>
</svg>
