<?xml version="1.0" encoding="UTF-8" standalone="no"?>
<!DOCTYPE svg PUBLIC "-//W3C//DTD SVG 1.1//EN"
 "http://www.w3.org/Graphics/SVG/1.1/DTD/svg11.dtd">
<!-- Generated by graphviz version 2.38.0 (20140413.2041)
 -->
<!-- Title: snakemake_dag Pages: 1 -->
<svg width="834pt" height="548pt"
 viewBox="0.00 0.00 833.50 548.00" xmlns="http://www.w3.org/2000/svg" xmlns:xlink="http://www.w3.org/1999/xlink">
<g id="graph0" class="graph" transform="scale(1 1) rotate(0) translate(4 544)">
<title>snakemake_dag</title>
<polygon fill="white" stroke="none" points="-4,4 -4,-544 829.5,-544 829.5,4 -4,4"/>
<!-- 0 -->
<g id="node1" class="node"><title>0</title>
<path fill="none" stroke="#5682d8" stroke-width="2" d="M399.5,-36C399.5,-36 369.5,-36 369.5,-36 363.5,-36 357.5,-30 357.5,-24 357.5,-24 357.5,-12 357.5,-12 357.5,-6 363.5,-0 369.5,-0 369.5,-0 399.5,-0 399.5,-0 405.5,-0 411.5,-6 411.5,-12 411.5,-12 411.5,-24 411.5,-24 411.5,-30 405.5,-36 399.5,-36"/>
<text text-anchor="middle" x="384.5" y="-15.5" font-family="sans" font-size="10.00">all</text>
</g>
<!-- 1 -->
<g id="node2" class="node"><title>1</title>
<path fill="none" stroke="#d88556" stroke-width="2" d="M420.5,-108C420.5,-108 348.5,-108 348.5,-108 342.5,-108 336.5,-102 336.5,-96 336.5,-96 336.5,-84 336.5,-84 336.5,-78 342.5,-72 348.5,-72 348.5,-72 420.5,-72 420.5,-72 426.5,-72 432.5,-78 432.5,-84 432.5,-84 432.5,-96 432.5,-96 432.5,-102 426.5,-108 420.5,-108"/>
<text text-anchor="middle" x="384.5" y="-87.5" font-family="sans" font-size="10.00">make_summary</text>
</g>
<!-- 1&#45;&gt;0 -->
<g id="edge1" class="edge"><title>1&#45;&gt;0</title>
<path fill="none" stroke="grey" stroke-width="2" d="M384.5,-71.6966C384.5,-63.9827 384.5,-54.7125 384.5,-46.1124"/>
<polygon fill="grey" stroke="grey" stroke-width="2" points="388,-46.1043 384.5,-36.1043 381,-46.1044 388,-46.1043"/>
</g>
<!-- 2 -->
<g id="node3" class="node"><title>2</title>
<path fill="none" stroke="#56d8a9" stroke-width="2" d="M125,-180C125,-180 12,-180 12,-180 6,-180 0,-174 0,-168 0,-168 0,-156 0,-156 0,-150 6,-144 12,-144 12,-144 125,-144 125,-144 131,-144 137,-150 137,-156 137,-156 137,-168 137,-168 137,-174 131,-180 125,-180"/>
<text text-anchor="middle" x="68.5" y="-159.5" font-family="sans" font-size="10.00">global_epistasis_binding</text>
</g>
<!-- 2&#45;&gt;0 -->
<g id="edge2" class="edge"><title>2&#45;&gt;0</title>
<path fill="none" stroke="grey" stroke-width="2" d="M106.617,-143.871C168.009,-116.284 287.981,-62.3725 348.196,-35.3136"/>
<polygon fill="grey" stroke="grey" stroke-width="2" points="349.643,-38.5009 357.329,-31.2095 346.773,-32.116 349.643,-38.5009"/>
</g>
<!-- 2&#45;&gt;1 -->
<g id="edge11" class="edge"><title>2&#45;&gt;1</title>
<path fill="none" stroke="grey" stroke-width="2" d="M137.067,-145.811C193.513,-133.307 272.664,-115.774 326.12,-103.932"/>
<polygon fill="grey" stroke="grey" stroke-width="2" points="327.116,-107.297 336.122,-101.717 325.602,-100.462 327.116,-107.297"/>
</g>
<!-- 3 -->
<g id="node4" class="node"><title>3</title>
<path fill="none" stroke="#afd856" stroke-width="2" d="M716.5,-180C716.5,-180 586.5,-180 586.5,-180 580.5,-180 574.5,-174 574.5,-168 574.5,-168 574.5,-156 574.5,-156 574.5,-150 580.5,-144 586.5,-144 586.5,-144 716.5,-144 716.5,-144 722.5,-144 728.5,-150 728.5,-156 728.5,-156 728.5,-168 728.5,-168 728.5,-174 722.5,-180 716.5,-180"/>
<text text-anchor="middle" x="651.5" y="-159.5" font-family="sans" font-size="10.00">global_epistasis_expression</text>
</g>
<!-- 3&#45;&gt;0 -->
<g id="edge3" class="edge"><title>3&#45;&gt;0</title>
<path fill="none" stroke="grey" stroke-width="2" d="M619.294,-143.871C569.181,-117.22 472.872,-65.9995 420.522,-38.1577"/>
<polygon fill="grey" stroke="grey" stroke-width="2" points="422.06,-35.0114 411.587,-33.4059 418.773,-41.1917 422.06,-35.0114"/>
</g>
<!-- 3&#45;&gt;1 -->
<g id="edge12" class="edge"><title>3&#45;&gt;1</title>
<path fill="none" stroke="grey" stroke-width="2" d="M586.526,-143.966C542.511,-132.426 484.862,-117.312 442.417,-106.184"/>
<polygon fill="grey" stroke="grey" stroke-width="2" points="443.077,-102.739 432.516,-103.588 441.302,-109.51 443.077,-102.739"/>
</g>
<!-- 4 -->
<g id="node5" class="node"><title>4</title>
<path fill="none" stroke="#80d856" stroke-width="2" d="M506.5,-180C506.5,-180 462.5,-180 462.5,-180 456.5,-180 450.5,-174 450.5,-168 450.5,-168 450.5,-156 450.5,-156 450.5,-150 456.5,-144 462.5,-144 462.5,-144 506.5,-144 506.5,-144 512.5,-144 518.5,-150 518.5,-156 518.5,-156 518.5,-168 518.5,-168 518.5,-174 512.5,-180 506.5,-180"/>
<text text-anchor="middle" x="484.5" y="-159.5" font-family="sans" font-size="10.00">make_dag</text>
</g>
<!-- 4&#45;&gt;1 -->
<g id="edge4" class="edge"><title>4&#45;&gt;1</title>
<path fill="none" stroke="grey" stroke-width="2" d="M460.037,-143.876C447.204,-134.893 431.304,-123.763 417.406,-114.034"/>
<polygon fill="grey" stroke="grey" stroke-width="2" points="419.256,-111.057 409.057,-108.19 415.242,-116.792 419.256,-111.057"/>
</g>
<!-- 5 -->
<g id="node6" class="node"><title>5</title>
<path fill="none" stroke="#d8ac56" stroke-width="2" d="M536,-468C536,-468 485,-468 485,-468 479,-468 473,-462 473,-456 473,-456 473,-444 473,-444 473,-438 479,-432 485,-432 485,-432 536,-432 536,-432 542,-432 548,-438 548,-444 548,-444 548,-456 548,-456 548,-462 542,-468 536,-468"/>
<text text-anchor="middle" x="510.5" y="-447.5" font-family="sans" font-size="10.00">process_ccs</text>
</g>
<!-- 5&#45;&gt;1 -->
<g id="edge5" class="edge"><title>5&#45;&gt;1</title>
<path fill="none" stroke="grey" stroke-width="2" d="M517.785,-431.867C528.304,-405.531 546.5,-353.288 546.5,-307 546.5,-307 546.5,-307 546.5,-233 546.5,-192.553 553.959,-174.592 527.5,-144 506.103,-119.262 472.057,-106.057 442.553,-99.0152"/>
<polygon fill="grey" stroke="grey" stroke-width="2" points="443.265,-95.5882 432.746,-96.8557 441.759,-102.424 443.265,-95.5882"/>
</g>
<!-- 6 -->
<g id="node7" class="node"><title>6</title>
<path fill="none" stroke="#56d882" stroke-width="2" d="M506.5,-396C506.5,-396 444.5,-396 444.5,-396 438.5,-396 432.5,-390 432.5,-384 432.5,-384 432.5,-372 432.5,-372 432.5,-366 438.5,-360 444.5,-360 444.5,-360 506.5,-360 506.5,-360 512.5,-360 518.5,-366 518.5,-372 518.5,-372 518.5,-384 518.5,-384 518.5,-390 512.5,-396 506.5,-396"/>
<text text-anchor="middle" x="475.5" y="-375.5" font-family="sans" font-size="10.00">build_variants</text>
</g>
<!-- 5&#45;&gt;6 -->
<g id="edge19" class="edge"><title>5&#45;&gt;6</title>
<path fill="none" stroke="grey" stroke-width="2" d="M501.848,-431.697C497.864,-423.728 493.05,-414.1 488.632,-405.264"/>
<polygon fill="grey" stroke="grey" stroke-width="2" points="491.655,-403.483 484.052,-396.104 485.394,-406.614 491.655,-403.483"/>
</g>
<!-- 6&#45;&gt;1 -->
<g id="edge6" class="edge"><title>6&#45;&gt;1</title>
<path fill="none" stroke="grey" stroke-width="2" d="M482.35,-359.941C493.501,-329.32 512.086,-263.776 488.5,-216 476.852,-192.406 459.308,-199.371 441.5,-180 423.971,-160.933 408.444,-135.835 398.039,-117.153"/>
<polygon fill="grey" stroke="grey" stroke-width="2" points="401.073,-115.405 393.22,-108.294 394.924,-118.751 401.073,-115.405"/>
</g>
<!-- 7 -->
<g id="node8" class="node"><title>7</title>
<path fill="none" stroke="#56d8d8" stroke-width="2" d="M287,-324C287,-324 222,-324 222,-324 216,-324 210,-318 210,-312 210,-312 210,-300 210,-300 210,-294 216,-288 222,-288 222,-288 287,-288 287,-288 293,-288 299,-294 299,-300 299,-300 299,-312 299,-312 299,-318 293,-324 287,-324"/>
<text text-anchor="middle" x="254.5" y="-303.5" font-family="sans" font-size="10.00">count_variants</text>
</g>
<!-- 6&#45;&gt;7 -->
<g id="edge20" class="edge"><title>6&#45;&gt;7</title>
<path fill="none" stroke="grey" stroke-width="2" d="M432.364,-363.337C397.079,-352.161 346.975,-336.291 308.932,-324.241"/>
<polygon fill="grey" stroke="grey" stroke-width="2" points="309.632,-320.791 299.042,-321.108 307.518,-327.465 309.632,-320.791"/>
</g>
<!-- 7&#45;&gt;1 -->
<g id="edge7" class="edge"><title>7&#45;&gt;1</title>
<path fill="none" stroke="grey" stroke-width="2" d="M229.12,-287.955C217.785,-278.786 205.622,-266.4 199.5,-252 193.24,-237.275 192.172,-230.223 199.5,-216 225.632,-165.278 282.878,-131.558 326.816,-112.058"/>
<polygon fill="grey" stroke="grey" stroke-width="2" points="328.455,-115.163 336.256,-107.994 325.687,-108.734 328.455,-115.163"/>
</g>
<!-- 8 -->
<g id="node9" class="node"><title>8</title>
<path fill="none" stroke="#d6d856" stroke-width="2" d="M288.5,-252C288.5,-252 220.5,-252 220.5,-252 214.5,-252 208.5,-246 208.5,-240 208.5,-240 208.5,-228 208.5,-228 208.5,-222 214.5,-216 220.5,-216 220.5,-216 288.5,-216 288.5,-216 294.5,-216 300.5,-222 300.5,-228 300.5,-228 300.5,-240 300.5,-240 300.5,-246 294.5,-252 288.5,-252"/>
<text text-anchor="middle" x="254.5" y="-231.5" font-family="sans" font-size="10.00">analyze_counts</text>
</g>
<!-- 7&#45;&gt;8 -->
<g id="edge21" class="edge"><title>7&#45;&gt;8</title>
<path fill="none" stroke="grey" stroke-width="2" d="M254.5,-287.697C254.5,-279.983 254.5,-270.712 254.5,-262.112"/>
<polygon fill="grey" stroke="grey" stroke-width="2" points="258,-262.104 254.5,-252.104 251,-262.104 258,-262.104"/>
</g>
<!-- 9 -->
<g id="node10" class="node"><title>9</title>
<path fill="none" stroke="#59d856" stroke-width="2" d="M140.5,-252C140.5,-252 40.5,-252 40.5,-252 34.5,-252 28.5,-246 28.5,-240 28.5,-240 28.5,-228 28.5,-228 28.5,-222 34.5,-216 40.5,-216 40.5,-216 140.5,-216 140.5,-216 146.5,-216 152.5,-222 152.5,-228 152.5,-228 152.5,-240 152.5,-240 152.5,-246 146.5,-252 140.5,-252"/>
<text text-anchor="middle" x="90.5" y="-231.5" font-family="sans" font-size="10.00">compute_Titeseq_Kds</text>
</g>
<!-- 7&#45;&gt;9 -->
<g id="edge22" class="edge"><title>7&#45;&gt;9</title>
<path fill="none" stroke="grey" stroke-width="2" d="M214.381,-287.876C191.862,-278.264 163.582,-266.193 139.729,-256.013"/>
<polygon fill="grey" stroke="grey" stroke-width="2" points="141.06,-252.775 130.489,-252.068 138.312,-259.213 141.06,-252.775"/>
</g>
<!-- 10 -->
<g id="node11" class="node"><title>10</title>
<path fill="none" stroke="#d85656" stroke-width="2" d="M468,-252C468,-252 331,-252 331,-252 325,-252 319,-246 319,-240 319,-240 319,-228 319,-228 319,-222 325,-216 331,-216 331,-216 468,-216 468,-216 474,-216 480,-222 480,-228 480,-228 480,-240 480,-240 480,-246 474,-252 468,-252"/>
<text text-anchor="middle" x="399.5" y="-231.5" font-family="sans" font-size="10.00">compute_expression_meanFs</text>
</g>
<!-- 7&#45;&gt;10 -->
<g id="edge23" class="edge"><title>7&#45;&gt;10</title>
<path fill="none" stroke="grey" stroke-width="2" d="M289.971,-287.876C309.617,-278.392 334.222,-266.513 355.132,-256.419"/>
<polygon fill="grey" stroke="grey" stroke-width="2" points="356.66,-259.568 364.144,-252.068 353.617,-253.264 356.66,-259.568"/>
</g>
<!-- 8&#45;&gt;1 -->
<g id="edge8" class="edge"><title>8&#45;&gt;1</title>
<path fill="none" stroke="grey" stroke-width="2" d="M270.181,-215.871C293.02,-190.924 335.567,-144.45 361.821,-115.773"/>
<polygon fill="grey" stroke="grey" stroke-width="2" points="364.592,-117.929 368.763,-108.189 359.429,-113.202 364.592,-117.929"/>
</g>
<!-- 9&#45;&gt;1 -->
<g id="edge9" class="edge"><title>9&#45;&gt;1</title>
<path fill="none" stroke="grey" stroke-width="2" d="M108.648,-215.847C134.629,-191.422 180.316,-149.003 189.5,-144 232.385,-120.637 286.289,-107.011 326.548,-99.4409"/>
<polygon fill="grey" stroke="grey" stroke-width="2" points="327.257,-102.869 336.474,-97.6444 326.011,-95.9813 327.257,-102.869"/>
</g>
<!-- 9&#45;&gt;2 -->
<g id="edge13" class="edge"><title>9&#45;&gt;2</title>
<path fill="none" stroke="grey" stroke-width="2" d="M85.0618,-215.697C82.6108,-207.898 79.6598,-198.509 76.932,-189.829"/>
<polygon fill="grey" stroke="grey" stroke-width="2" points="80.213,-188.595 73.8756,-180.104 73.535,-190.694 80.213,-188.595"/>
</g>
<!-- 10&#45;&gt;1 -->
<g id="edge10" class="edge"><title>10&#45;&gt;1</title>
<path fill="none" stroke="grey" stroke-width="2" d="M397.691,-215.871C395.134,-191.67 390.438,-147.211 387.394,-118.393"/>
<polygon fill="grey" stroke="grey" stroke-width="2" points="390.847,-117.766 386.316,-108.189 383.886,-118.502 390.847,-117.766"/>
</g>
<!-- 10&#45;&gt;3 -->
<g id="edge14" class="edge"><title>10&#45;&gt;3</title>
<path fill="none" stroke="grey" stroke-width="2" d="M460.824,-215.966C496.799,-205.972 542.426,-193.298 580.026,-182.854"/>
<polygon fill="grey" stroke="grey" stroke-width="2" points="581.203,-186.16 589.901,-180.111 579.329,-179.415 581.203,-186.16"/>
</g>
<!-- 11 -->
<g id="node12" class="node"><title>11</title>
<path fill="none" stroke="#56a9d8" stroke-width="2" d="M327.5,-540C327.5,-540 207.5,-540 207.5,-540 201.5,-540 195.5,-534 195.5,-528 195.5,-528 195.5,-516 195.5,-516 195.5,-510 201.5,-504 207.5,-504 207.5,-504 327.5,-504 327.5,-504 333.5,-504 339.5,-510 339.5,-516 339.5,-516 339.5,-528 339.5,-528 339.5,-534 333.5,-540 327.5,-540"/>
<text text-anchor="middle" x="267.5" y="-525" font-family="sans" font-size="10.00">build_ccs</text>
<text text-anchor="middle" x="267.5" y="-514" font-family="sans" font-size="10.00">pacbioRun: lib1_200415_A</text>
</g>
<!-- 11&#45;&gt;5 -->
<g id="edge15" class="edge"><title>11&#45;&gt;5</title>
<path fill="none" stroke="grey" stroke-width="2" d="M326.634,-503.966C368.417,-491.929 423.702,-476.004 462.702,-464.769"/>
<polygon fill="grey" stroke="grey" stroke-width="2" points="464.105,-468.007 472.746,-461.876 462.168,-461.281 464.105,-468.007"/>
</g>
<!-- 12 -->
<g id="node13" class="node"><title>12</title>
<path fill="none" stroke="#56a9d8" stroke-width="2" d="M489.5,-540C489.5,-540 369.5,-540 369.5,-540 363.5,-540 357.5,-534 357.5,-528 357.5,-528 357.5,-516 357.5,-516 357.5,-510 363.5,-504 369.5,-504 369.5,-504 489.5,-504 489.5,-504 495.5,-504 501.5,-510 501.5,-516 501.5,-516 501.5,-528 501.5,-528 501.5,-534 495.5,-540 489.5,-540"/>
<text text-anchor="middle" x="429.5" y="-525" font-family="sans" font-size="10.00">build_ccs</text>
<text text-anchor="middle" x="429.5" y="-514" font-family="sans" font-size="10.00">pacbioRun: lib1_200415_B</text>
</g>
<!-- 12&#45;&gt;5 -->
<g id="edge16" class="edge"><title>12&#45;&gt;5</title>
<path fill="none" stroke="grey" stroke-width="2" d="M449.522,-503.697C459.626,-494.965 472.036,-484.24 483.018,-474.75"/>
<polygon fill="grey" stroke="grey" stroke-width="2" points="485.43,-477.291 490.708,-468.104 480.853,-471.995 485.43,-477.291"/>
</g>
<!-- 13 -->
<g id="node14" class="node"><title>13</title>
<path fill="none" stroke="#56a9d8" stroke-width="2" d="M651.5,-540C651.5,-540 531.5,-540 531.5,-540 525.5,-540 519.5,-534 519.5,-528 519.5,-528 519.5,-516 519.5,-516 519.5,-510 525.5,-504 531.5,-504 531.5,-504 651.5,-504 651.5,-504 657.5,-504 663.5,-510 663.5,-516 663.5,-516 663.5,-528 663.5,-528 663.5,-534 657.5,-540 651.5,-540"/>
<text text-anchor="middle" x="591.5" y="-525" font-family="sans" font-size="10.00">build_ccs</text>
<text text-anchor="middle" x="591.5" y="-514" font-family="sans" font-size="10.00">pacbioRun: lib2_200415_A</text>
</g>
<!-- 13&#45;&gt;5 -->
<g id="edge17" class="edge"><title>13&#45;&gt;5</title>
<path fill="none" stroke="grey" stroke-width="2" d="M571.478,-503.697C561.374,-494.965 548.964,-484.24 537.982,-474.75"/>
<polygon fill="grey" stroke="grey" stroke-width="2" points="540.147,-471.995 530.292,-468.104 535.57,-477.291 540.147,-471.995"/>
</g>
<!-- 14 -->
<g id="node15" class="node"><title>14</title>
<path fill="none" stroke="#56a9d8" stroke-width="2" d="M813.5,-540C813.5,-540 693.5,-540 693.5,-540 687.5,-540 681.5,-534 681.5,-528 681.5,-528 681.5,-516 681.5,-516 681.5,-510 687.5,-504 693.5,-504 693.5,-504 813.5,-504 813.5,-504 819.5,-504 825.5,-510 825.5,-516 825.5,-516 825.5,-528 825.5,-528 825.5,-534 819.5,-540 813.5,-540"/>
<text text-anchor="middle" x="753.5" y="-525" font-family="sans" font-size="10.00">build_ccs</text>
<text text-anchor="middle" x="753.5" y="-514" font-family="sans" font-size="10.00">pacbioRun: lib2_200415_B</text>
</g>
<!-- 14&#45;&gt;5 -->
<g id="edge18" class="edge"><title>14&#45;&gt;5</title>
<path fill="none" stroke="grey" stroke-width="2" d="M694.366,-503.966C652.583,-491.929 597.298,-476.004 558.298,-464.769"/>
<polygon fill="grey" stroke="grey" stroke-width="2" points="558.832,-461.281 548.254,-461.876 556.895,-468.007 558.832,-461.281"/>
</g>
</g>
</svg>
