<?xml version="1.0" encoding="UTF-8" standalone="no"?>
<!DOCTYPE svg PUBLIC "-//W3C//DTD SVG 1.1//EN"
 "http://www.w3.org/Graphics/SVG/1.1/DTD/svg11.dtd">
<!-- Generated by graphviz version 2.38.0 (20140413.2041)
 -->
<!-- Title: snakemake_dag Pages: 1 -->
<svg width="827pt" height="620pt"
 viewBox="0.00 0.00 827.00 620.00" xmlns="http://www.w3.org/2000/svg" xmlns:xlink="http://www.w3.org/1999/xlink">
<g id="graph0" class="graph" transform="scale(1 1) rotate(0) translate(4 616)">
<title>snakemake_dag</title>
<polygon fill="white" stroke="none" points="-4,4 -4,-616 823,-616 823,4 -4,4"/>
<!-- 0 -->
<g id="node1" class="node"><title>0</title>
<path fill="none" stroke="#59d856" stroke-width="2" d="M537,-36C537,-36 465,-36 465,-36 459,-36 453,-30 453,-24 453,-24 453,-12 453,-12 453,-6 459,-0 465,-0 465,-0 537,-0 537,-0 543,-0 549,-6 549,-12 549,-12 549,-24 549,-24 549,-30 543,-36 537,-36"/>
<text text-anchor="middle" x="501" y="-15.5" font-family="sans" font-size="10.00">make_summary</text>
</g>
<!-- 1 -->
<g id="node2" class="node"><title>1</title>
<path fill="none" stroke="#d87d56" stroke-width="2" d="M131,-108C131,-108 87,-108 87,-108 81,-108 75,-102 75,-96 75,-96 75,-84 75,-84 75,-78 81,-72 87,-72 87,-72 131,-72 131,-72 137,-72 143,-78 143,-84 143,-84 143,-96 143,-96 143,-102 137,-108 131,-108"/>
<text text-anchor="middle" x="109" y="-87.5" font-family="sans" font-size="10.00">make_dag</text>
</g>
<!-- 1&#45;&gt;0 -->
<g id="edge1" class="edge"><title>1&#45;&gt;0</title>
<path fill="none" stroke="grey" stroke-width="2" d="M143.109,-76.0421C147.737,-74.5428 152.456,-73.1439 157,-72 255.794,-47.1286 373.662,-32.0293 442.631,-24.6181"/>
<polygon fill="grey" stroke="grey" stroke-width="2" points="443.28,-28.0691 452.857,-23.5372 442.544,-21.1079 443.28,-28.0691"/>
</g>
<!-- 2 -->
<g id="node3" class="node"><title>2</title>
<path fill="none" stroke="#567bd8" stroke-width="2" d="M340.5,-540C340.5,-540 289.5,-540 289.5,-540 283.5,-540 277.5,-534 277.5,-528 277.5,-528 277.5,-516 277.5,-516 277.5,-510 283.5,-504 289.5,-504 289.5,-504 340.5,-504 340.5,-504 346.5,-504 352.5,-510 352.5,-516 352.5,-516 352.5,-528 352.5,-528 352.5,-534 346.5,-540 340.5,-540"/>
<text text-anchor="middle" x="315" y="-519.5" font-family="sans" font-size="10.00">process_ccs</text>
</g>
<!-- 2&#45;&gt;0 -->
<g id="edge2" class="edge"><title>2&#45;&gt;0</title>
<path fill="none" stroke="grey" stroke-width="2" d="M277.166,-503.899C234.501,-481.722 171,-438.688 171,-379 171,-379 171,-379 171,-161 171,-44.1044 347.876,-22.2599 442.642,-18.945"/>
<polygon fill="grey" stroke="grey" stroke-width="2" points="442.768,-22.4429 452.662,-18.6527 442.564,-15.4459 442.768,-22.4429"/>
</g>
<!-- 3 -->
<g id="node4" class="node"><title>3</title>
<path fill="none" stroke="#d8a456" stroke-width="2" d="M529,-468C529,-468 467,-468 467,-468 461,-468 455,-462 455,-456 455,-456 455,-444 455,-444 455,-438 461,-432 467,-432 467,-432 529,-432 529,-432 535,-432 541,-438 541,-444 541,-444 541,-456 541,-456 541,-462 535,-468 529,-468"/>
<text text-anchor="middle" x="498" y="-447.5" font-family="sans" font-size="10.00">build_variants</text>
</g>
<!-- 2&#45;&gt;3 -->
<g id="edge17" class="edge"><title>2&#45;&gt;3</title>
<path fill="none" stroke="grey" stroke-width="2" d="M352.918,-506.496C379.536,-496.314 415.496,-482.559 444.955,-471.29"/>
<polygon fill="grey" stroke="grey" stroke-width="2" points="446.584,-474.415 454.673,-467.573 444.083,-467.877 446.584,-474.415"/>
</g>
<!-- 3&#45;&gt;0 -->
<g id="edge3" class="edge"><title>3&#45;&gt;0</title>
<path fill="none" stroke="grey" stroke-width="2" d="M541.291,-448.979C628.911,-446.424 819,-427.049 819,-307 819,-307 819,-307 819,-161 819,-48.6377 651.422,-24.5793 559.566,-19.832"/>
<polygon fill="grey" stroke="grey" stroke-width="2" points="559.446,-16.3231 549.297,-19.3653 559.128,-23.3158 559.446,-16.3231"/>
</g>
<!-- 4 -->
<g id="node5" class="node"><title>4</title>
<path fill="none" stroke="#d8c356" stroke-width="2" d="M530.5,-396C530.5,-396 465.5,-396 465.5,-396 459.5,-396 453.5,-390 453.5,-384 453.5,-384 453.5,-372 453.5,-372 453.5,-366 459.5,-360 465.5,-360 465.5,-360 530.5,-360 530.5,-360 536.5,-360 542.5,-366 542.5,-372 542.5,-372 542.5,-384 542.5,-384 542.5,-390 536.5,-396 530.5,-396"/>
<text text-anchor="middle" x="498" y="-375.5" font-family="sans" font-size="10.00">count_variants</text>
</g>
<!-- 3&#45;&gt;4 -->
<g id="edge18" class="edge"><title>3&#45;&gt;4</title>
<path fill="none" stroke="grey" stroke-width="2" d="M498,-431.697C498,-423.983 498,-414.712 498,-406.112"/>
<polygon fill="grey" stroke="grey" stroke-width="2" points="501.5,-406.104 498,-396.104 494.5,-406.104 501.5,-406.104"/>
</g>
<!-- 4&#45;&gt;0 -->
<g id="edge4" class="edge"><title>4&#45;&gt;0</title>
<path fill="none" stroke="grey" stroke-width="2" d="M542.53,-374.574C622.227,-367.576 781,-340.405 781,-235 781,-235 781,-235 781,-161 781,-62.3717 641.103,-32.2258 559.081,-23.0271"/>
<polygon fill="grey" stroke="grey" stroke-width="2" points="559.445,-19.5461 549.134,-21.9819 558.713,-26.5078 559.445,-19.5461"/>
</g>
<!-- 5 -->
<g id="node6" class="node"><title>5</title>
<path fill="none" stroke="#78d856" stroke-width="2" d="M279,-180C279,-180 211,-180 211,-180 205,-180 199,-174 199,-168 199,-168 199,-156 199,-156 199,-150 205,-144 211,-144 211,-144 279,-144 279,-144 285,-144 291,-150 291,-156 291,-156 291,-168 291,-168 291,-174 285,-180 279,-180"/>
<text text-anchor="middle" x="245" y="-159.5" font-family="sans" font-size="10.00">analyze_counts</text>
</g>
<!-- 4&#45;&gt;5 -->
<g id="edge19" class="edge"><title>4&#45;&gt;5</title>
<path fill="none" stroke="grey" stroke-width="2" d="M453.444,-368.047C421.72,-360.148 379.181,-346.339 347,-324 298.675,-290.454 268.277,-225.852 254.213,-189.509"/>
<polygon fill="grey" stroke="grey" stroke-width="2" points="257.459,-188.197 250.678,-180.057 250.903,-190.649 257.459,-188.197"/>
</g>
<!-- 6 -->
<g id="node7" class="node"><title>6</title>
<path fill="none" stroke="#9fd856" stroke-width="2" d="M468,-324C468,-324 368,-324 368,-324 362,-324 356,-318 356,-312 356,-312 356,-300 356,-300 356,-294 362,-288 368,-288 368,-288 468,-288 468,-288 474,-288 480,-294 480,-300 480,-300 480,-312 480,-312 480,-318 474,-324 468,-324"/>
<text text-anchor="middle" x="418" y="-303.5" font-family="sans" font-size="10.00">compute_Titeseq_Kds</text>
</g>
<!-- 4&#45;&gt;6 -->
<g id="edge20" class="edge"><title>4&#45;&gt;6</title>
<path fill="none" stroke="grey" stroke-width="2" d="M478.225,-359.697C468.246,-350.965 455.989,-340.24 445.143,-330.75"/>
<polygon fill="grey" stroke="grey" stroke-width="2" points="447.378,-328.055 437.548,-324.104 442.769,-333.323 447.378,-328.055"/>
</g>
<!-- 7 -->
<g id="node8" class="node"><title>7</title>
<path fill="none" stroke="#c6d856" stroke-width="2" d="M686.5,-324C686.5,-324 549.5,-324 549.5,-324 543.5,-324 537.5,-318 537.5,-312 537.5,-312 537.5,-300 537.5,-300 537.5,-294 543.5,-288 549.5,-288 549.5,-288 686.5,-288 686.5,-288 692.5,-288 698.5,-294 698.5,-300 698.5,-300 698.5,-312 698.5,-312 698.5,-318 692.5,-324 686.5,-324"/>
<text text-anchor="middle" x="618" y="-303.5" font-family="sans" font-size="10.00">compute_expression_meanFs</text>
</g>
<!-- 4&#45;&gt;7 -->
<g id="edge21" class="edge"><title>4&#45;&gt;7</title>
<path fill="none" stroke="grey" stroke-width="2" d="M527.355,-359.876C543.045,-350.724 562.557,-339.342 579.454,-329.485"/>
<polygon fill="grey" stroke="grey" stroke-width="2" points="581.658,-332.252 588.532,-324.19 578.13,-326.205 581.658,-332.252"/>
</g>
<!-- 5&#45;&gt;0 -->
<g id="edge5" class="edge"><title>5&#45;&gt;0</title>
<path fill="none" stroke="grey" stroke-width="2" d="M252.041,-143.856C261.229,-123.629 279.233,-90.4288 305,-72 345.526,-43.0156 401.051,-29.8806 442.658,-23.9289"/>
<polygon fill="grey" stroke="grey" stroke-width="2" points="443.199,-27.3878 452.65,-22.5984 442.275,-20.4491 443.199,-27.3878"/>
</g>
<!-- 6&#45;&gt;0 -->
<g id="edge6" class="edge"><title>6&#45;&gt;0</title>
<path fill="none" stroke="grey" stroke-width="2" d="M363.18,-287.961C346.342,-279.866 329.705,-268.283 320,-252 291.259,-203.781 298.297,-139.427 360,-72 381.478,-48.5293 414.385,-35.3969 443.008,-28.0774"/>
<polygon fill="grey" stroke="grey" stroke-width="2" points="444.006,-31.4378 452.928,-25.7233 442.39,-24.6269 444.006,-31.4378"/>
</g>
<!-- 8 -->
<g id="node9" class="node"><title>8</title>
<path fill="none" stroke="#56d8a2" stroke-width="2" d="M454.5,-252C454.5,-252 341.5,-252 341.5,-252 335.5,-252 329.5,-246 329.5,-240 329.5,-240 329.5,-228 329.5,-228 329.5,-222 335.5,-216 341.5,-216 341.5,-216 454.5,-216 454.5,-216 460.5,-216 466.5,-222 466.5,-228 466.5,-228 466.5,-240 466.5,-240 466.5,-246 460.5,-252 454.5,-252"/>
<text text-anchor="middle" x="398" y="-231.5" font-family="sans" font-size="10.00">global_epistasis_binding</text>
</g>
<!-- 6&#45;&gt;8 -->
<g id="edge22" class="edge"><title>6&#45;&gt;8</title>
<path fill="none" stroke="grey" stroke-width="2" d="M413.056,-287.697C410.828,-279.898 408.145,-270.509 405.665,-261.829"/>
<polygon fill="grey" stroke="grey" stroke-width="2" points="409,-260.758 402.887,-252.104 402.269,-262.681 409,-260.758"/>
</g>
<!-- 10 -->
<g id="node11" class="node"><title>10</title>
<path fill="none" stroke="#d85656" stroke-width="2" d="M575.5,-180C575.5,-180 490.5,-180 490.5,-180 484.5,-180 478.5,-174 478.5,-168 478.5,-168 478.5,-156 478.5,-156 478.5,-150 484.5,-144 490.5,-144 490.5,-144 575.5,-144 575.5,-144 581.5,-144 587.5,-150 587.5,-156 587.5,-156 587.5,-168 587.5,-168 587.5,-174 581.5,-180 575.5,-180"/>
<text text-anchor="middle" x="533" y="-159.5" font-family="sans" font-size="10.00">single_mut_effects</text>
</g>
<!-- 6&#45;&gt;10 -->
<g id="edge26" class="edge"><title>6&#45;&gt;10</title>
<path fill="none" stroke="grey" stroke-width="2" d="M439.39,-287.813C450.93,-277.982 465.016,-265.041 476,-252 492.584,-232.311 508.111,-207.472 518.757,-189.042"/>
<polygon fill="grey" stroke="grey" stroke-width="2" points="521.824,-190.729 523.718,-180.304 515.737,-187.273 521.824,-190.729"/>
</g>
<!-- 7&#45;&gt;0 -->
<g id="edge7" class="edge"><title>7&#45;&gt;0</title>
<path fill="none" stroke="grey" stroke-width="2" d="M679.405,-287.954C696.84,-279.968 713.832,-268.452 724,-252 757.661,-197.535 732.002,-132.057 668,-72 638.524,-44.3413 594.653,-31.1162 559.272,-24.7928"/>
<polygon fill="grey" stroke="grey" stroke-width="2" points="559.5,-21.2834 549.065,-23.1147 558.365,-28.1907 559.5,-21.2834"/>
</g>
<!-- 9 -->
<g id="node10" class="node"><title>9</title>
<path fill="none" stroke="#56d87b" stroke-width="2" d="M703,-252C703,-252 573,-252 573,-252 567,-252 561,-246 561,-240 561,-240 561,-228 561,-228 561,-222 567,-216 573,-216 573,-216 703,-216 703,-216 709,-216 715,-222 715,-228 715,-228 715,-240 715,-240 715,-246 709,-252 703,-252"/>
<text text-anchor="middle" x="638" y="-231.5" font-family="sans" font-size="10.00">global_epistasis_expression</text>
</g>
<!-- 7&#45;&gt;9 -->
<g id="edge23" class="edge"><title>7&#45;&gt;9</title>
<path fill="none" stroke="grey" stroke-width="2" d="M622.944,-287.697C625.172,-279.898 627.855,-270.509 630.335,-261.829"/>
<polygon fill="grey" stroke="grey" stroke-width="2" points="633.731,-262.681 633.113,-252.104 627,-260.758 633.731,-262.681"/>
</g>
<!-- 7&#45;&gt;10 -->
<g id="edge27" class="edge"><title>7&#45;&gt;10</title>
<path fill="none" stroke="grey" stroke-width="2" d="M588.397,-287.805C575.333,-278.755 560.943,-266.513 552,-252 540.567,-233.447 535.939,-209.051 534.101,-190.493"/>
<polygon fill="grey" stroke="grey" stroke-width="2" points="537.576,-190.028 533.311,-180.329 530.597,-190.571 537.576,-190.028"/>
</g>
<!-- 8&#45;&gt;0 -->
<g id="edge8" class="edge"><title>8&#45;&gt;0</title>
<path fill="none" stroke="grey" stroke-width="2" d="M388.89,-215.823C373.628,-184.439 347.34,-116.933 377,-72 391.859,-49.4899 418.457,-36.5063 443.219,-29.0337"/>
<polygon fill="grey" stroke="grey" stroke-width="2" points="444.247,-32.3808 452.951,-26.3398 442.38,-25.6344 444.247,-32.3808"/>
</g>
<!-- 8&#45;&gt;10 -->
<g id="edge24" class="edge"><title>8&#45;&gt;10</title>
<path fill="none" stroke="grey" stroke-width="2" d="M431.025,-215.876C449.085,-206.512 471.645,-194.814 490.951,-184.803"/>
<polygon fill="grey" stroke="grey" stroke-width="2" points="492.582,-187.9 499.848,-180.19 489.36,-181.686 492.582,-187.9"/>
</g>
<!-- 9&#45;&gt;0 -->
<g id="edge9" class="edge"><title>9&#45;&gt;0</title>
<path fill="none" stroke="grey" stroke-width="2" d="M645.455,-215.846C657.938,-184.205 678.827,-115.885 648,-72 628.019,-43.5556 591.213,-30.3076 559.431,-24.1697"/>
<polygon fill="grey" stroke="grey" stroke-width="2" points="559.767,-20.6759 549.316,-22.4165 558.571,-27.573 559.767,-20.6759"/>
</g>
<!-- 9&#45;&gt;10 -->
<g id="edge25" class="edge"><title>9&#45;&gt;10</title>
<path fill="none" stroke="grey" stroke-width="2" d="M612.314,-215.876C598.712,-206.808 581.828,-195.552 567.139,-185.759"/>
<polygon fill="grey" stroke="grey" stroke-width="2" points="569.047,-182.825 558.785,-180.19 565.164,-188.649 569.047,-182.825"/>
</g>
<!-- 10&#45;&gt;0 -->
<g id="edge10" class="edge"><title>10&#45;&gt;0</title>
<path fill="none" stroke="grey" stroke-width="2" d="M587.562,-144.085C604.488,-135.984 621.245,-124.366 631,-108 639.192,-94.2563 639.926,-85.2787 631,-72 614.844,-47.9655 585.679,-34.8242 559.063,-27.6418"/>
<polygon fill="grey" stroke="grey" stroke-width="2" points="559.565,-24.1611 549.019,-25.1705 557.893,-30.9584 559.565,-24.1611"/>
</g>
<!-- 11 -->
<g id="node12" class="node"><title>11</title>
<path fill="none" stroke="#56d8c9" stroke-width="2" d="M478.5,-108C478.5,-108 397.5,-108 397.5,-108 391.5,-108 385.5,-102 385.5,-96 385.5,-96 385.5,-84 385.5,-84 385.5,-78 391.5,-72 397.5,-72 397.5,-72 478.5,-72 478.5,-72 484.5,-72 490.5,-78 490.5,-84 490.5,-84 490.5,-96 490.5,-96 490.5,-102 484.5,-108 478.5,-108"/>
<text text-anchor="middle" x="438" y="-87.5" font-family="sans" font-size="10.00">structure_function</text>
</g>
<!-- 10&#45;&gt;11 -->
<g id="edge28" class="edge"><title>10&#45;&gt;11</title>
<path fill="none" stroke="grey" stroke-width="2" d="M509.517,-143.697C497.437,-134.796 482.546,-123.823 469.484,-114.199"/>
<polygon fill="grey" stroke="grey" stroke-width="2" points="471.34,-111.219 461.213,-108.104 467.187,-116.854 471.34,-111.219"/>
</g>
<!-- 12 -->
<g id="node13" class="node"><title>12</title>
<path fill="none" stroke="#56a2d8" stroke-width="2" d="M609.5,-108C609.5,-108 520.5,-108 520.5,-108 514.5,-108 508.5,-102 508.5,-96 508.5,-96 508.5,-84 508.5,-84 508.5,-78 514.5,-72 520.5,-72 520.5,-72 609.5,-72 609.5,-72 615.5,-72 621.5,-78 621.5,-84 621.5,-84 621.5,-96 621.5,-96 621.5,-102 615.5,-108 609.5,-108"/>
<text text-anchor="middle" x="565" y="-87.5" font-family="sans" font-size="10.00">circulating_variants</text>
</g>
<!-- 10&#45;&gt;12 -->
<g id="edge29" class="edge"><title>10&#45;&gt;12</title>
<path fill="none" stroke="grey" stroke-width="2" d="M540.91,-143.697C544.553,-135.728 548.954,-126.1 552.994,-117.264"/>
<polygon fill="grey" stroke="grey" stroke-width="2" points="556.206,-118.654 557.181,-108.104 549.84,-115.744 556.206,-118.654"/>
</g>
<!-- 11&#45;&gt;0 -->
<g id="edge11" class="edge"><title>11&#45;&gt;0</title>
<path fill="none" stroke="grey" stroke-width="2" d="M453.573,-71.6966C461.202,-63.2198 470.523,-52.8636 478.876,-43.5826"/>
<polygon fill="grey" stroke="grey" stroke-width="2" points="481.518,-45.8787 485.606,-36.1043 476.315,-41.1959 481.518,-45.8787"/>
</g>
<!-- 12&#45;&gt;0 -->
<g id="edge12" class="edge"><title>12&#45;&gt;0</title>
<path fill="none" stroke="grey" stroke-width="2" d="M549.18,-71.6966C541.43,-63.2198 531.961,-52.8636 523.476,-43.5826"/>
<polygon fill="grey" stroke="grey" stroke-width="2" points="525.969,-41.1229 516.638,-36.1043 520.803,-45.8464 525.969,-41.1229"/>
</g>
<!-- 13 -->
<g id="node14" class="node"><title>13</title>
<path fill="none" stroke="#56c9d8" stroke-width="2" d="M132,-612C132,-612 12,-612 12,-612 6,-612 0,-606 0,-600 0,-600 0,-588 0,-588 0,-582 6,-576 12,-576 12,-576 132,-576 132,-576 138,-576 144,-582 144,-588 144,-588 144,-600 144,-600 144,-606 138,-612 132,-612"/>
<text text-anchor="middle" x="72" y="-597" font-family="sans" font-size="10.00">build_ccs</text>
<text text-anchor="middle" x="72" y="-586" font-family="sans" font-size="10.00">pacbioRun: lib1_200415_A</text>
</g>
<!-- 13&#45;&gt;2 -->
<g id="edge13" class="edge"><title>13&#45;&gt;2</title>
<path fill="none" stroke="grey" stroke-width="2" d="M131.134,-575.966C172.917,-563.929 228.202,-548.004 267.202,-536.769"/>
<polygon fill="grey" stroke="grey" stroke-width="2" points="268.605,-540.007 277.246,-533.876 266.668,-533.281 268.605,-540.007"/>
</g>
<!-- 14 -->
<g id="node15" class="node"><title>14</title>
<path fill="none" stroke="#56c9d8" stroke-width="2" d="M294,-612C294,-612 174,-612 174,-612 168,-612 162,-606 162,-600 162,-600 162,-588 162,-588 162,-582 168,-576 174,-576 174,-576 294,-576 294,-576 300,-576 306,-582 306,-588 306,-588 306,-600 306,-600 306,-606 300,-612 294,-612"/>
<text text-anchor="middle" x="234" y="-597" font-family="sans" font-size="10.00">build_ccs</text>
<text text-anchor="middle" x="234" y="-586" font-family="sans" font-size="10.00">pacbioRun: lib1_200415_B</text>
</g>
<!-- 14&#45;&gt;2 -->
<g id="edge14" class="edge"><title>14&#45;&gt;2</title>
<path fill="none" stroke="grey" stroke-width="2" d="M254.022,-575.697C264.126,-566.965 276.536,-556.24 287.518,-546.75"/>
<polygon fill="grey" stroke="grey" stroke-width="2" points="289.93,-549.291 295.208,-540.104 285.353,-543.995 289.93,-549.291"/>
</g>
<!-- 15 -->
<g id="node16" class="node"><title>15</title>
<path fill="none" stroke="#56c9d8" stroke-width="2" d="M456,-612C456,-612 336,-612 336,-612 330,-612 324,-606 324,-600 324,-600 324,-588 324,-588 324,-582 330,-576 336,-576 336,-576 456,-576 456,-576 462,-576 468,-582 468,-588 468,-588 468,-600 468,-600 468,-606 462,-612 456,-612"/>
<text text-anchor="middle" x="396" y="-597" font-family="sans" font-size="10.00">build_ccs</text>
<text text-anchor="middle" x="396" y="-586" font-family="sans" font-size="10.00">pacbioRun: lib2_200415_A</text>
</g>
<!-- 15&#45;&gt;2 -->
<g id="edge15" class="edge"><title>15&#45;&gt;2</title>
<path fill="none" stroke="grey" stroke-width="2" d="M375.978,-575.697C365.874,-566.965 353.464,-556.24 342.482,-546.75"/>
<polygon fill="grey" stroke="grey" stroke-width="2" points="344.647,-543.995 334.792,-540.104 340.07,-549.291 344.647,-543.995"/>
</g>
<!-- 16 -->
<g id="node17" class="node"><title>16</title>
<path fill="none" stroke="#56c9d8" stroke-width="2" d="M618,-612C618,-612 498,-612 498,-612 492,-612 486,-606 486,-600 486,-600 486,-588 486,-588 486,-582 492,-576 498,-576 498,-576 618,-576 618,-576 624,-576 630,-582 630,-588 630,-588 630,-600 630,-600 630,-606 624,-612 618,-612"/>
<text text-anchor="middle" x="558" y="-597" font-family="sans" font-size="10.00">build_ccs</text>
<text text-anchor="middle" x="558" y="-586" font-family="sans" font-size="10.00">pacbioRun: lib2_200415_B</text>
</g>
<!-- 16&#45;&gt;2 -->
<g id="edge16" class="edge"><title>16&#45;&gt;2</title>
<path fill="none" stroke="grey" stroke-width="2" d="M498.866,-575.966C457.083,-563.929 401.798,-548.004 362.798,-536.769"/>
<polygon fill="grey" stroke="grey" stroke-width="2" points="363.332,-533.281 352.754,-533.876 361.395,-540.007 363.332,-533.281"/>
</g>
</g>
</svg>
