<?xml version="1.0" encoding="UTF-8" standalone="no"?>
<!DOCTYPE svg PUBLIC "-//W3C//DTD SVG 1.1//EN"
 "http://www.w3.org/Graphics/SVG/1.1/DTD/svg11.dtd">
<!-- Generated by graphviz version 2.38.0 (20140413.2041)
 -->
<!-- Title: snakemake_dag Pages: 1 -->
<svg width="959pt" height="548pt"
 viewBox="0.00 0.00 958.50 548.00" xmlns="http://www.w3.org/2000/svg" xmlns:xlink="http://www.w3.org/1999/xlink">
<g id="graph0" class="graph" transform="scale(1 1) rotate(0) translate(4 544)">
<title>snakemake_dag</title>
<polygon fill="white" stroke="none" points="-4,4 -4,-544 954.5,-544 954.5,4 -4,4"/>
<!-- 0 -->
<g id="node1" class="node"><title>0</title>
<path fill="none" stroke="#56a9d8" stroke-width="2" d="M386.5,-36C386.5,-36 356.5,-36 356.5,-36 350.5,-36 344.5,-30 344.5,-24 344.5,-24 344.5,-12 344.5,-12 344.5,-6 350.5,-0 356.5,-0 356.5,-0 386.5,-0 386.5,-0 392.5,-0 398.5,-6 398.5,-12 398.5,-12 398.5,-24 398.5,-24 398.5,-30 392.5,-36 386.5,-36"/>
<text text-anchor="middle" x="371.5" y="-15.5" font-family="sans" font-size="10.00">all</text>
</g>
<!-- 1 -->
<g id="node2" class="node"><title>1</title>
<path fill="none" stroke="#d85656" stroke-width="2" d="M453.5,-108C453.5,-108 381.5,-108 381.5,-108 375.5,-108 369.5,-102 369.5,-96 369.5,-96 369.5,-84 369.5,-84 369.5,-78 375.5,-72 381.5,-72 381.5,-72 453.5,-72 453.5,-72 459.5,-72 465.5,-78 465.5,-84 465.5,-84 465.5,-96 465.5,-96 465.5,-102 459.5,-108 453.5,-108"/>
<text text-anchor="middle" x="417.5" y="-87.5" font-family="sans" font-size="10.00">make_summary</text>
</g>
<!-- 1&#45;&gt;0 -->
<g id="edge1" class="edge"><title>1&#45;&gt;0</title>
<path fill="none" stroke="grey" stroke-width="2" d="M406.129,-71.6966C400.782,-63.5589 394.296,-53.689 388.389,-44.7013"/>
<polygon fill="grey" stroke="grey" stroke-width="2" points="391.157,-42.5393 382.74,-36.1043 385.307,-46.3835 391.157,-42.5393"/>
</g>
<!-- 2 -->
<g id="node3" class="node"><title>2</title>
<path fill="none" stroke="#d8cb56" stroke-width="2" d="M125,-180C125,-180 12,-180 12,-180 6,-180 0,-174 0,-168 0,-168 0,-156 0,-156 0,-150 6,-144 12,-144 12,-144 125,-144 125,-144 131,-144 137,-150 137,-156 137,-156 137,-168 137,-168 137,-174 131,-180 125,-180"/>
<text text-anchor="middle" x="68.5" y="-159.5" font-family="sans" font-size="10.00">global_epistasis_binding</text>
</g>
<!-- 2&#45;&gt;0 -->
<g id="edge2" class="edge"><title>2&#45;&gt;0</title>
<path fill="none" stroke="grey" stroke-width="2" d="M105.049,-143.871C163.347,-116.55 276.735,-63.4112 335.001,-36.1049"/>
<polygon fill="grey" stroke="grey" stroke-width="2" points="336.631,-39.2065 344.201,-31.7936 333.661,-32.868 336.631,-39.2065"/>
</g>
<!-- 2&#45;&gt;1 -->
<g id="edge12" class="edge"><title>2&#45;&gt;1</title>
<path fill="none" stroke="grey" stroke-width="2" d="M137.386,-145.902C140.465,-145.254 143.514,-144.617 146.5,-144 219.866,-128.833 304.646,-112.433 359.566,-101.957"/>
<polygon fill="grey" stroke="grey" stroke-width="2" points="360.295,-105.382 369.464,-100.072 358.985,-98.5052 360.295,-105.382"/>
</g>
<!-- 3 -->
<g id="node4" class="node"><title>3</title>
<path fill="none" stroke="#56d86b" stroke-width="2" d="M841.5,-180C841.5,-180 711.5,-180 711.5,-180 705.5,-180 699.5,-174 699.5,-168 699.5,-168 699.5,-156 699.5,-156 699.5,-150 705.5,-144 711.5,-144 711.5,-144 841.5,-144 841.5,-144 847.5,-144 853.5,-150 853.5,-156 853.5,-156 853.5,-168 853.5,-168 853.5,-174 847.5,-180 841.5,-180"/>
<text text-anchor="middle" x="776.5" y="-159.5" font-family="sans" font-size="10.00">global_epistasis_expression</text>
</g>
<!-- 3&#45;&gt;0 -->
<g id="edge3" class="edge"><title>3&#45;&gt;0</title>
<path fill="none" stroke="grey" stroke-width="2" d="M727.648,-143.871C645.666,-115.127 482.178,-57.8058 408.737,-32.0558"/>
<polygon fill="grey" stroke="grey" stroke-width="2" points="409.584,-28.644 398.989,-28.6382 407.268,-35.2498 409.584,-28.644"/>
</g>
<!-- 3&#45;&gt;1 -->
<g id="edge14" class="edge"><title>3&#45;&gt;1</title>
<path fill="none" stroke="grey" stroke-width="2" d="M699.485,-145.983C632.252,-132.874 536.17,-114.139 475.327,-102.275"/>
<polygon fill="grey" stroke="grey" stroke-width="2" points="475.989,-98.8387 465.504,-100.36 474.649,-105.709 475.989,-98.8387"/>
</g>
<!-- 4 -->
<g id="node5" class="node"><title>4</title>
<path fill="none" stroke="#567bd8" stroke-width="2" d="M301.5,-180C301.5,-180 167.5,-180 167.5,-180 161.5,-180 155.5,-174 155.5,-168 155.5,-168 155.5,-156 155.5,-156 155.5,-150 161.5,-144 167.5,-144 167.5,-144 301.5,-144 301.5,-144 307.5,-144 313.5,-150 313.5,-156 313.5,-156 313.5,-168 313.5,-168 313.5,-174 307.5,-180 301.5,-180"/>
<text text-anchor="middle" x="234.5" y="-159.5" font-family="sans" font-size="10.00">censored_regression_binding</text>
</g>
<!-- 4&#45;&gt;0 -->
<g id="edge4" class="edge"><title>4&#45;&gt;0</title>
<path fill="none" stroke="grey" stroke-width="2" d="M251.025,-143.871C275.197,-118.817 320.316,-72.0519 347.953,-43.4062"/>
<polygon fill="grey" stroke="grey" stroke-width="2" points="350.492,-45.8161 354.916,-36.1893 345.454,-40.9558 350.492,-45.8161"/>
</g>
<!-- 4&#45;&gt;1 -->
<g id="edge13" class="edge"><title>4&#45;&gt;1</title>
<path fill="none" stroke="grey" stroke-width="2" d="M279.267,-143.876C304.618,-134.179 336.511,-121.98 363.273,-111.743"/>
<polygon fill="grey" stroke="grey" stroke-width="2" points="364.789,-114.91 372.879,-108.068 362.288,-108.372 364.789,-114.91"/>
</g>
<!-- 5 -->
<g id="node6" class="node"><title>5</title>
<path fill="none" stroke="#b6d856" stroke-width="2" d="M631.5,-180C631.5,-180 587.5,-180 587.5,-180 581.5,-180 575.5,-174 575.5,-168 575.5,-168 575.5,-156 575.5,-156 575.5,-150 581.5,-144 587.5,-144 587.5,-144 631.5,-144 631.5,-144 637.5,-144 643.5,-150 643.5,-156 643.5,-156 643.5,-168 643.5,-168 643.5,-174 637.5,-180 631.5,-180"/>
<text text-anchor="middle" x="609.5" y="-159.5" font-family="sans" font-size="10.00">make_dag</text>
</g>
<!-- 5&#45;&gt;1 -->
<g id="edge5" class="edge"><title>5&#45;&gt;1</title>
<path fill="none" stroke="grey" stroke-width="2" d="M575.174,-148.485C546.999,-138.213 506.532,-123.46 473.649,-111.471"/>
<polygon fill="grey" stroke="grey" stroke-width="2" points="474.746,-108.146 464.152,-108.009 472.348,-114.722 474.746,-108.146"/>
</g>
<!-- 6 -->
<g id="node7" class="node"><title>6</title>
<path fill="none" stroke="#d87d56" stroke-width="2" d="M661,-468C661,-468 610,-468 610,-468 604,-468 598,-462 598,-456 598,-456 598,-444 598,-444 598,-438 604,-432 610,-432 610,-432 661,-432 661,-432 667,-432 673,-438 673,-444 673,-444 673,-456 673,-456 673,-462 667,-468 661,-468"/>
<text text-anchor="middle" x="635.5" y="-447.5" font-family="sans" font-size="10.00">process_ccs</text>
</g>
<!-- 6&#45;&gt;1 -->
<g id="edge6" class="edge"><title>6&#45;&gt;1</title>
<path fill="none" stroke="grey" stroke-width="2" d="M642.785,-431.867C653.304,-405.531 671.5,-353.288 671.5,-307 671.5,-307 671.5,-307 671.5,-233 671.5,-192.553 680.935,-172.764 652.5,-144 640.063,-131.419 541.411,-112.316 475.941,-100.809"/>
<polygon fill="grey" stroke="grey" stroke-width="2" points="476.19,-97.2991 465.737,-99.029 474.987,-104.195 476.19,-97.2991"/>
</g>
<!-- 7 -->
<g id="node8" class="node"><title>7</title>
<path fill="none" stroke="#56d8b9" stroke-width="2" d="M631.5,-396C631.5,-396 569.5,-396 569.5,-396 563.5,-396 557.5,-390 557.5,-384 557.5,-384 557.5,-372 557.5,-372 557.5,-366 563.5,-360 569.5,-360 569.5,-360 631.5,-360 631.5,-360 637.5,-360 643.5,-366 643.5,-372 643.5,-372 643.5,-384 643.5,-384 643.5,-390 637.5,-396 631.5,-396"/>
<text text-anchor="middle" x="600.5" y="-375.5" font-family="sans" font-size="10.00">build_variants</text>
</g>
<!-- 6&#45;&gt;7 -->
<g id="edge22" class="edge"><title>6&#45;&gt;7</title>
<path fill="none" stroke="grey" stroke-width="2" d="M626.848,-431.697C622.864,-423.728 618.05,-414.1 613.632,-405.264"/>
<polygon fill="grey" stroke="grey" stroke-width="2" points="616.655,-403.483 609.052,-396.104 610.394,-406.614 616.655,-403.483"/>
</g>
<!-- 7&#45;&gt;1 -->
<g id="edge7" class="edge"><title>7&#45;&gt;1</title>
<path fill="none" stroke="grey" stroke-width="2" d="M607.755,-359.73C619.547,-328.775 639.116,-262.719 613.5,-216 609.054,-207.892 510.494,-147.313 454.871,-113.558"/>
<polygon fill="grey" stroke="grey" stroke-width="2" points="456.37,-110.373 446.004,-108.183 452.742,-116.36 456.37,-110.373"/>
</g>
<!-- 8 -->
<g id="node9" class="node"><title>8</title>
<path fill="none" stroke="#8fd856" stroke-width="2" d="M412,-324C412,-324 347,-324 347,-324 341,-324 335,-318 335,-312 335,-312 335,-300 335,-300 335,-294 341,-288 347,-288 347,-288 412,-288 412,-288 418,-288 424,-294 424,-300 424,-300 424,-312 424,-312 424,-318 418,-324 412,-324"/>
<text text-anchor="middle" x="379.5" y="-303.5" font-family="sans" font-size="10.00">count_variants</text>
</g>
<!-- 7&#45;&gt;8 -->
<g id="edge23" class="edge"><title>7&#45;&gt;8</title>
<path fill="none" stroke="grey" stroke-width="2" d="M557.364,-363.337C522.079,-352.161 471.975,-336.291 433.932,-324.241"/>
<polygon fill="grey" stroke="grey" stroke-width="2" points="434.632,-320.791 424.042,-321.108 432.518,-327.465 434.632,-320.791"/>
</g>
<!-- 8&#45;&gt;1 -->
<g id="edge8" class="edge"><title>8&#45;&gt;1</title>
<path fill="none" stroke="grey" stroke-width="2" d="M354.12,-287.955C342.785,-278.786 330.622,-266.4 324.5,-252 318.24,-237.275 318.814,-230.956 324.5,-216 332.108,-195.99 343.312,-196.862 356.5,-180 372.519,-159.519 389.1,-135.083 400.924,-117.002"/>
<polygon fill="grey" stroke="grey" stroke-width="2" points="404.14,-118.475 406.646,-108.181 398.268,-114.666 404.14,-118.475"/>
</g>
<!-- 9 -->
<g id="node10" class="node"><title>9</title>
<path fill="none" stroke="#68d856" stroke-width="2" d="M413.5,-252C413.5,-252 345.5,-252 345.5,-252 339.5,-252 333.5,-246 333.5,-240 333.5,-240 333.5,-228 333.5,-228 333.5,-222 339.5,-216 345.5,-216 345.5,-216 413.5,-216 413.5,-216 419.5,-216 425.5,-222 425.5,-228 425.5,-228 425.5,-240 425.5,-240 425.5,-246 419.5,-252 413.5,-252"/>
<text text-anchor="middle" x="379.5" y="-231.5" font-family="sans" font-size="10.00">analyze_counts</text>
</g>
<!-- 8&#45;&gt;9 -->
<g id="edge24" class="edge"><title>8&#45;&gt;9</title>
<path fill="none" stroke="grey" stroke-width="2" d="M379.5,-287.697C379.5,-279.983 379.5,-270.712 379.5,-262.112"/>
<polygon fill="grey" stroke="grey" stroke-width="2" points="383,-262.104 379.5,-252.104 376,-262.104 383,-262.104"/>
</g>
<!-- 10 -->
<g id="node11" class="node"><title>10</title>
<path fill="none" stroke="#56d0d8" stroke-width="2" d="M265.5,-252C265.5,-252 165.5,-252 165.5,-252 159.5,-252 153.5,-246 153.5,-240 153.5,-240 153.5,-228 153.5,-228 153.5,-222 159.5,-216 165.5,-216 165.5,-216 265.5,-216 265.5,-216 271.5,-216 277.5,-222 277.5,-228 277.5,-228 277.5,-240 277.5,-240 277.5,-246 271.5,-252 265.5,-252"/>
<text text-anchor="middle" x="215.5" y="-231.5" font-family="sans" font-size="10.00">compute_Titeseq_Kds</text>
</g>
<!-- 8&#45;&gt;10 -->
<g id="edge25" class="edge"><title>8&#45;&gt;10</title>
<path fill="none" stroke="grey" stroke-width="2" d="M339.381,-287.876C316.862,-278.264 288.582,-266.193 264.729,-256.013"/>
<polygon fill="grey" stroke="grey" stroke-width="2" points="266.06,-252.775 255.489,-252.068 263.312,-259.213 266.06,-252.775"/>
</g>
<!-- 11 -->
<g id="node12" class="node"><title>11</title>
<path fill="none" stroke="#56d892" stroke-width="2" d="M593,-252C593,-252 456,-252 456,-252 450,-252 444,-246 444,-240 444,-240 444,-228 444,-228 444,-222 450,-216 456,-216 456,-216 593,-216 593,-216 599,-216 605,-222 605,-228 605,-228 605,-240 605,-240 605,-246 599,-252 593,-252"/>
<text text-anchor="middle" x="524.5" y="-231.5" font-family="sans" font-size="10.00">compute_expression_meanFs</text>
</g>
<!-- 8&#45;&gt;11 -->
<g id="edge26" class="edge"><title>8&#45;&gt;11</title>
<path fill="none" stroke="grey" stroke-width="2" d="M414.971,-287.876C434.617,-278.392 459.222,-266.513 480.132,-256.419"/>
<polygon fill="grey" stroke="grey" stroke-width="2" points="481.66,-259.568 489.144,-252.068 478.617,-253.264 481.66,-259.568"/>
</g>
<!-- 9&#45;&gt;1 -->
<g id="edge9" class="edge"><title>9&#45;&gt;1</title>
<path fill="none" stroke="grey" stroke-width="2" d="M384.084,-215.871C390.589,-191.564 402.563,-146.819 410.271,-118.013"/>
<polygon fill="grey" stroke="grey" stroke-width="2" points="413.696,-118.754 412.9,-108.189 406.934,-116.945 413.696,-118.754"/>
</g>
<!-- 10&#45;&gt;1 -->
<g id="edge10" class="edge"><title>10&#45;&gt;1</title>
<path fill="none" stroke="grey" stroke-width="2" d="M256.959,-215.905C277.476,-206.603 302.143,-194.117 322.5,-180 337.183,-169.817 369.972,-138.258 392.898,-115.615"/>
<polygon fill="grey" stroke="grey" stroke-width="2" points="395.617,-117.848 400.254,-108.322 390.689,-112.877 395.617,-117.848"/>
</g>
<!-- 10&#45;&gt;2 -->
<g id="edge15" class="edge"><title>10&#45;&gt;2</title>
<path fill="none" stroke="grey" stroke-width="2" d="M179.54,-215.876C159.623,-206.392 134.678,-194.513 113.48,-184.419"/>
<polygon fill="grey" stroke="grey" stroke-width="2" points="114.877,-181.208 104.343,-180.068 111.867,-187.528 114.877,-181.208"/>
</g>
<!-- 10&#45;&gt;4 -->
<g id="edge17" class="edge"><title>10&#45;&gt;4</title>
<path fill="none" stroke="grey" stroke-width="2" d="M220.197,-215.697C222.313,-207.898 224.862,-198.509 227.218,-189.829"/>
<polygon fill="grey" stroke="grey" stroke-width="2" points="230.616,-190.672 229.857,-180.104 223.86,-188.838 230.616,-190.672"/>
</g>
<!-- 11&#45;&gt;1 -->
<g id="edge11" class="edge"><title>11&#45;&gt;1</title>
<path fill="none" stroke="grey" stroke-width="2" d="M511.593,-215.871C492.955,-191.137 458.373,-145.242 436.724,-116.512"/>
<polygon fill="grey" stroke="grey" stroke-width="2" points="439.266,-114.069 430.452,-108.189 433.675,-118.282 439.266,-114.069"/>
</g>
<!-- 11&#45;&gt;3 -->
<g id="edge16" class="edge"><title>11&#45;&gt;3</title>
<path fill="none" stroke="grey" stroke-width="2" d="M585.824,-215.966C621.799,-205.972 667.426,-193.298 705.026,-182.854"/>
<polygon fill="grey" stroke="grey" stroke-width="2" points="706.203,-186.16 714.901,-180.111 704.329,-179.415 706.203,-186.16"/>
</g>
<!-- 12 -->
<g id="node13" class="node"><title>12</title>
<path fill="none" stroke="#d8a456" stroke-width="2" d="M452.5,-540C452.5,-540 332.5,-540 332.5,-540 326.5,-540 320.5,-534 320.5,-528 320.5,-528 320.5,-516 320.5,-516 320.5,-510 326.5,-504 332.5,-504 332.5,-504 452.5,-504 452.5,-504 458.5,-504 464.5,-510 464.5,-516 464.5,-516 464.5,-528 464.5,-528 464.5,-534 458.5,-540 452.5,-540"/>
<text text-anchor="middle" x="392.5" y="-525" font-family="sans" font-size="10.00">build_ccs</text>
<text text-anchor="middle" x="392.5" y="-514" font-family="sans" font-size="10.00">pacbioRun: lib1_200415_A</text>
</g>
<!-- 12&#45;&gt;6 -->
<g id="edge18" class="edge"><title>12&#45;&gt;6</title>
<path fill="none" stroke="grey" stroke-width="2" d="M451.634,-503.966C493.417,-491.929 548.702,-476.004 587.702,-464.769"/>
<polygon fill="grey" stroke="grey" stroke-width="2" points="589.105,-468.007 597.746,-461.876 587.168,-461.281 589.105,-468.007"/>
</g>
<!-- 13 -->
<g id="node14" class="node"><title>13</title>
<path fill="none" stroke="#d8a456" stroke-width="2" d="M614.5,-540C614.5,-540 494.5,-540 494.5,-540 488.5,-540 482.5,-534 482.5,-528 482.5,-528 482.5,-516 482.5,-516 482.5,-510 488.5,-504 494.5,-504 494.5,-504 614.5,-504 614.5,-504 620.5,-504 626.5,-510 626.5,-516 626.5,-516 626.5,-528 626.5,-528 626.5,-534 620.5,-540 614.5,-540"/>
<text text-anchor="middle" x="554.5" y="-525" font-family="sans" font-size="10.00">build_ccs</text>
<text text-anchor="middle" x="554.5" y="-514" font-family="sans" font-size="10.00">pacbioRun: lib1_200415_B</text>
</g>
<!-- 13&#45;&gt;6 -->
<g id="edge19" class="edge"><title>13&#45;&gt;6</title>
<path fill="none" stroke="grey" stroke-width="2" d="M574.522,-503.697C584.626,-494.965 597.036,-484.24 608.018,-474.75"/>
<polygon fill="grey" stroke="grey" stroke-width="2" points="610.43,-477.291 615.708,-468.104 605.853,-471.995 610.43,-477.291"/>
</g>
<!-- 14 -->
<g id="node15" class="node"><title>14</title>
<path fill="none" stroke="#d8a456" stroke-width="2" d="M776.5,-540C776.5,-540 656.5,-540 656.5,-540 650.5,-540 644.5,-534 644.5,-528 644.5,-528 644.5,-516 644.5,-516 644.5,-510 650.5,-504 656.5,-504 656.5,-504 776.5,-504 776.5,-504 782.5,-504 788.5,-510 788.5,-516 788.5,-516 788.5,-528 788.5,-528 788.5,-534 782.5,-540 776.5,-540"/>
<text text-anchor="middle" x="716.5" y="-525" font-family="sans" font-size="10.00">build_ccs</text>
<text text-anchor="middle" x="716.5" y="-514" font-family="sans" font-size="10.00">pacbioRun: lib2_200415_A</text>
</g>
<!-- 14&#45;&gt;6 -->
<g id="edge20" class="edge"><title>14&#45;&gt;6</title>
<path fill="none" stroke="grey" stroke-width="2" d="M696.478,-503.697C686.374,-494.965 673.964,-484.24 662.982,-474.75"/>
<polygon fill="grey" stroke="grey" stroke-width="2" points="665.147,-471.995 655.292,-468.104 660.57,-477.291 665.147,-471.995"/>
</g>
<!-- 15 -->
<g id="node16" class="node"><title>15</title>
<path fill="none" stroke="#d8a456" stroke-width="2" d="M938.5,-540C938.5,-540 818.5,-540 818.5,-540 812.5,-540 806.5,-534 806.5,-528 806.5,-528 806.5,-516 806.5,-516 806.5,-510 812.5,-504 818.5,-504 818.5,-504 938.5,-504 938.5,-504 944.5,-504 950.5,-510 950.5,-516 950.5,-516 950.5,-528 950.5,-528 950.5,-534 944.5,-540 938.5,-540"/>
<text text-anchor="middle" x="878.5" y="-525" font-family="sans" font-size="10.00">build_ccs</text>
<text text-anchor="middle" x="878.5" y="-514" font-family="sans" font-size="10.00">pacbioRun: lib2_200415_B</text>
</g>
<!-- 15&#45;&gt;6 -->
<g id="edge21" class="edge"><title>15&#45;&gt;6</title>
<path fill="none" stroke="grey" stroke-width="2" d="M819.366,-503.966C777.583,-491.929 722.298,-476.004 683.298,-464.769"/>
<polygon fill="grey" stroke="grey" stroke-width="2" points="683.832,-461.281 673.254,-461.876 681.895,-468.007 683.832,-461.281"/>
</g>
</g>
</svg>
