<?xml version="1.0" encoding="UTF-8" standalone="no"?>
<!DOCTYPE svg PUBLIC "-//W3C//DTD SVG 1.1//EN"
 "http://www.w3.org/Graphics/SVG/1.1/DTD/svg11.dtd">
<!-- Generated by graphviz version 2.38.0 (20140413.2041)
 -->
<!-- Title: snakemake_dag Pages: 1 -->
<svg width="963pt" height="620pt"
 viewBox="0.00 0.00 962.50 620.00" xmlns="http://www.w3.org/2000/svg" xmlns:xlink="http://www.w3.org/1999/xlink">
<g id="graph0" class="graph" transform="scale(1 1) rotate(0) translate(4 616)">
<title>snakemake_dag</title>
<polygon fill="white" stroke="none" points="-4,4 -4,-616 958.5,-616 958.5,4 -4,4"/>
<!-- 0 -->
<g id="node1" class="node"><title>0</title>
<path fill="none" stroke="#68d856" stroke-width="2" d="M316.5,-36C316.5,-36 286.5,-36 286.5,-36 280.5,-36 274.5,-30 274.5,-24 274.5,-24 274.5,-12 274.5,-12 274.5,-6 280.5,-0 286.5,-0 286.5,-0 316.5,-0 316.5,-0 322.5,-0 328.5,-6 328.5,-12 328.5,-12 328.5,-24 328.5,-24 328.5,-30 322.5,-36 316.5,-36"/>
<text text-anchor="middle" x="301.5" y="-15.5" font-family="sans" font-size="10.00">all</text>
</g>
<!-- 1 -->
<g id="node2" class="node"><title>1</title>
<path fill="none" stroke="#d8a456" stroke-width="2" d="M408.5,-108C408.5,-108 336.5,-108 336.5,-108 330.5,-108 324.5,-102 324.5,-96 324.5,-96 324.5,-84 324.5,-84 324.5,-78 330.5,-72 336.5,-72 336.5,-72 408.5,-72 408.5,-72 414.5,-72 420.5,-78 420.5,-84 420.5,-84 420.5,-96 420.5,-96 420.5,-102 414.5,-108 408.5,-108"/>
<text text-anchor="middle" x="372.5" y="-87.5" font-family="sans" font-size="10.00">make_summary</text>
</g>
<!-- 1&#45;&gt;0 -->
<g id="edge1" class="edge"><title>1&#45;&gt;0</title>
<path fill="none" stroke="grey" stroke-width="2" d="M354.949,-71.6966C346.266,-63.135 335.637,-52.6562 326.152,-43.3045"/>
<polygon fill="grey" stroke="grey" stroke-width="2" points="328.427,-40.6327 318.849,-36.1043 323.512,-45.6175 328.427,-40.6327"/>
</g>
<!-- 2 -->
<g id="node3" class="node"><title>2</title>
<path fill="none" stroke="#56d86b" stroke-width="2" d="M208,-180C208,-180 123,-180 123,-180 117,-180 111,-174 111,-168 111,-168 111,-156 111,-156 111,-150 117,-144 123,-144 123,-144 208,-144 208,-144 214,-144 220,-150 220,-156 220,-156 220,-168 220,-168 220,-174 214,-180 208,-180"/>
<text text-anchor="middle" x="165.5" y="-159.5" font-family="sans" font-size="10.00">single_mut_effects</text>
</g>
<!-- 2&#45;&gt;0 -->
<g id="edge2" class="edge"><title>2&#45;&gt;0</title>
<path fill="none" stroke="grey" stroke-width="2" d="M181.905,-143.871C205.798,-118.924 250.309,-72.4495 277.774,-43.7729"/>
<polygon fill="grey" stroke="grey" stroke-width="2" points="280.648,-45.8322 285.037,-36.1893 275.592,-40.9904 280.648,-45.8322"/>
</g>
<!-- 2&#45;&gt;1 -->
<g id="edge12" class="edge"><title>2&#45;&gt;1</title>
<path fill="none" stroke="grey" stroke-width="2" d="M215.873,-143.966C245.677,-133.887 283.545,-121.081 314.581,-110.586"/>
<polygon fill="grey" stroke="grey" stroke-width="2" points="316.046,-113.785 324.398,-107.266 313.804,-107.154 316.046,-113.785"/>
</g>
<!-- 3 -->
<g id="node4" class="node"><title>3</title>
<path fill="none" stroke="#56a9d8" stroke-width="2" d="M294.5,-180C294.5,-180 250.5,-180 250.5,-180 244.5,-180 238.5,-174 238.5,-168 238.5,-168 238.5,-156 238.5,-156 238.5,-150 244.5,-144 250.5,-144 250.5,-144 294.5,-144 294.5,-144 300.5,-144 306.5,-150 306.5,-156 306.5,-156 306.5,-168 306.5,-168 306.5,-174 300.5,-180 294.5,-180"/>
<text text-anchor="middle" x="272.5" y="-159.5" font-family="sans" font-size="10.00">make_dag</text>
</g>
<!-- 3&#45;&gt;1 -->
<g id="edge3" class="edge"><title>3&#45;&gt;1</title>
<path fill="none" stroke="grey" stroke-width="2" d="M296.963,-143.876C309.796,-134.893 325.696,-123.763 339.594,-114.034"/>
<polygon fill="grey" stroke="grey" stroke-width="2" points="341.758,-116.792 347.943,-108.19 337.744,-111.057 341.758,-116.792"/>
</g>
<!-- 4 -->
<g id="node5" class="node"><title>4</title>
<path fill="none" stroke="#567bd8" stroke-width="2" d="M665,-540C665,-540 614,-540 614,-540 608,-540 602,-534 602,-528 602,-528 602,-516 602,-516 602,-510 608,-504 614,-504 614,-504 665,-504 665,-504 671,-504 677,-510 677,-516 677,-516 677,-528 677,-528 677,-534 671,-540 665,-540"/>
<text text-anchor="middle" x="639.5" y="-519.5" font-family="sans" font-size="10.00">process_ccs</text>
</g>
<!-- 4&#45;&gt;1 -->
<g id="edge4" class="edge"><title>4&#45;&gt;1</title>
<path fill="none" stroke="grey" stroke-width="2" d="M646.785,-503.867C657.304,-477.531 675.5,-425.288 675.5,-379 675.5,-379 675.5,-379 675.5,-233 675.5,-125.986 518.618,-99.4553 430.625,-92.9908"/>
<polygon fill="grey" stroke="grey" stroke-width="2" points="430.723,-89.4896 420.511,-92.3136 430.255,-96.474 430.723,-89.4896"/>
</g>
<!-- 5 -->
<g id="node6" class="node"><title>5</title>
<path fill="none" stroke="#d85656" stroke-width="2" d="M635.5,-468C635.5,-468 573.5,-468 573.5,-468 567.5,-468 561.5,-462 561.5,-456 561.5,-456 561.5,-444 561.5,-444 561.5,-438 567.5,-432 573.5,-432 573.5,-432 635.5,-432 635.5,-432 641.5,-432 647.5,-438 647.5,-444 647.5,-444 647.5,-456 647.5,-456 647.5,-462 641.5,-468 635.5,-468"/>
<text text-anchor="middle" x="604.5" y="-447.5" font-family="sans" font-size="10.00">build_variants</text>
</g>
<!-- 4&#45;&gt;5 -->
<g id="edge21" class="edge"><title>4&#45;&gt;5</title>
<path fill="none" stroke="grey" stroke-width="2" d="M630.848,-503.697C626.864,-495.728 622.05,-486.1 617.632,-477.264"/>
<polygon fill="grey" stroke="grey" stroke-width="2" points="620.655,-475.483 613.052,-468.104 614.394,-478.614 620.655,-475.483"/>
</g>
<!-- 5&#45;&gt;1 -->
<g id="edge5" class="edge"><title>5&#45;&gt;1</title>
<path fill="none" stroke="grey" stroke-width="2" d="M611.178,-431.811C620.821,-405.402 637.5,-353.064 637.5,-307 637.5,-307 637.5,-307 637.5,-233 637.5,-139.963 509.027,-107.643 430.987,-96.593"/>
<polygon fill="grey" stroke="grey" stroke-width="2" points="431.173,-93.0867 420.797,-95.2297 430.245,-100.025 431.173,-93.0867"/>
</g>
<!-- 6 -->
<g id="node7" class="node"><title>6</title>
<path fill="none" stroke="#d8cb56" stroke-width="2" d="M522,-396C522,-396 457,-396 457,-396 451,-396 445,-390 445,-384 445,-384 445,-372 445,-372 445,-366 451,-360 457,-360 457,-360 522,-360 522,-360 528,-360 534,-366 534,-372 534,-372 534,-384 534,-384 534,-390 528,-396 522,-396"/>
<text text-anchor="middle" x="489.5" y="-375.5" font-family="sans" font-size="10.00">count_variants</text>
</g>
<!-- 5&#45;&gt;6 -->
<g id="edge22" class="edge"><title>5&#45;&gt;6</title>
<path fill="none" stroke="grey" stroke-width="2" d="M576.368,-431.876C561.332,-422.724 542.633,-411.342 526.44,-401.485"/>
<polygon fill="grey" stroke="grey" stroke-width="2" points="528.102,-398.4 517.74,-396.19 524.462,-404.379 528.102,-398.4"/>
</g>
<!-- 6&#45;&gt;1 -->
<g id="edge6" class="edge"><title>6&#45;&gt;1</title>
<path fill="none" stroke="grey" stroke-width="2" d="M489.406,-359.781C488.433,-319.123 481.486,-215.236 437.5,-144 430.438,-132.562 420.016,-122.481 409.576,-114.266"/>
<polygon fill="grey" stroke="grey" stroke-width="2" points="411.377,-111.244 401.263,-108.087 407.201,-116.862 411.377,-111.244"/>
</g>
<!-- 7 -->
<g id="node8" class="node"><title>7</title>
<path fill="none" stroke="#8fd856" stroke-width="2" d="M597.5,-252C597.5,-252 529.5,-252 529.5,-252 523.5,-252 517.5,-246 517.5,-240 517.5,-240 517.5,-228 517.5,-228 517.5,-222 523.5,-216 529.5,-216 529.5,-216 597.5,-216 597.5,-216 603.5,-216 609.5,-222 609.5,-228 609.5,-228 609.5,-240 609.5,-240 609.5,-246 603.5,-252 597.5,-252"/>
<text text-anchor="middle" x="563.5" y="-231.5" font-family="sans" font-size="10.00">analyze_counts</text>
</g>
<!-- 6&#45;&gt;7 -->
<g id="edge23" class="edge"><title>6&#45;&gt;7</title>
<path fill="none" stroke="grey" stroke-width="2" d="M498.426,-359.871C511.205,-335.35 534.821,-290.032 549.816,-261.259"/>
<polygon fill="grey" stroke="grey" stroke-width="2" points="553.025,-262.675 554.542,-252.189 546.817,-259.44 553.025,-262.675"/>
</g>
<!-- 8 -->
<g id="node9" class="node"><title>8</title>
<path fill="none" stroke="#56d8b9" stroke-width="2" d="M229.5,-324C229.5,-324 129.5,-324 129.5,-324 123.5,-324 117.5,-318 117.5,-312 117.5,-312 117.5,-300 117.5,-300 117.5,-294 123.5,-288 129.5,-288 129.5,-288 229.5,-288 229.5,-288 235.5,-288 241.5,-294 241.5,-300 241.5,-300 241.5,-312 241.5,-312 241.5,-318 235.5,-324 229.5,-324"/>
<text text-anchor="middle" x="179.5" y="-303.5" font-family="sans" font-size="10.00">compute_Titeseq_Kds</text>
</g>
<!-- 6&#45;&gt;8 -->
<g id="edge24" class="edge"><title>6&#45;&gt;8</title>
<path fill="none" stroke="grey" stroke-width="2" d="M444.754,-366.896C394.271,-355.497 311.435,-336.792 251.754,-323.315"/>
<polygon fill="grey" stroke="grey" stroke-width="2" points="252.165,-319.82 241.64,-321.032 250.623,-326.648 252.165,-319.82"/>
</g>
<!-- 9 -->
<g id="node10" class="node"><title>9</title>
<path fill="none" stroke="#56d0d8" stroke-width="2" d="M436,-324C436,-324 299,-324 299,-324 293,-324 287,-318 287,-312 287,-312 287,-300 287,-300 287,-294 293,-288 299,-288 299,-288 436,-288 436,-288 442,-288 448,-294 448,-300 448,-300 448,-312 448,-312 448,-318 442,-324 436,-324"/>
<text text-anchor="middle" x="367.5" y="-303.5" font-family="sans" font-size="10.00">compute_expression_meanFs</text>
</g>
<!-- 6&#45;&gt;9 -->
<g id="edge25" class="edge"><title>6&#45;&gt;9</title>
<path fill="none" stroke="grey" stroke-width="2" d="M459.655,-359.876C443.556,-350.639 423.499,-339.131 406.212,-329.212"/>
<polygon fill="grey" stroke="grey" stroke-width="2" points="407.875,-326.131 397.459,-324.19 404.391,-332.202 407.875,-326.131"/>
</g>
<!-- 7&#45;&gt;1 -->
<g id="edge7" class="edge"><title>7&#45;&gt;1</title>
<path fill="none" stroke="grey" stroke-width="2" d="M555.727,-215.668C546.062,-195.88 527.823,-163.71 503.5,-144 482.214,-126.75 454.57,-114.464 430.166,-106.094"/>
<polygon fill="grey" stroke="grey" stroke-width="2" points="431.234,-102.761 420.641,-102.965 429.049,-109.411 431.234,-102.761"/>
</g>
<!-- 8&#45;&gt;1 -->
<g id="edge8" class="edge"><title>8&#45;&gt;1</title>
<path fill="none" stroke="grey" stroke-width="2" d="M192.984,-287.736C208.201,-268.873 234.267,-238.366 260.5,-216 282.732,-197.045 294.945,-200.761 315.5,-180 333.833,-161.484 349.366,-136.124 359.565,-117.21"/>
<polygon fill="grey" stroke="grey" stroke-width="2" points="362.724,-118.723 364.265,-108.24 356.523,-115.474 362.724,-118.723"/>
</g>
<!-- 8&#45;&gt;2 -->
<g id="edge15" class="edge"><title>8&#45;&gt;2</title>
<path fill="none" stroke="grey" stroke-width="2" d="M177.811,-287.871C175.425,-263.67 171.042,-219.211 168.201,-190.393"/>
<polygon fill="grey" stroke="grey" stroke-width="2" points="171.659,-189.798 167.195,-180.189 164.693,-190.484 171.659,-189.798"/>
</g>
<!-- 10 -->
<g id="node11" class="node"><title>10</title>
<path fill="none" stroke="#b6d856" stroke-width="2" d="M125,-252C125,-252 12,-252 12,-252 6,-252 0,-246 0,-240 0,-240 0,-228 0,-228 0,-222 6,-216 12,-216 12,-216 125,-216 125,-216 131,-216 137,-222 137,-228 137,-228 137,-240 137,-240 137,-246 131,-252 125,-252"/>
<text text-anchor="middle" x="68.5" y="-231.5" font-family="sans" font-size="10.00">global_epistasis_binding</text>
</g>
<!-- 8&#45;&gt;10 -->
<g id="edge26" class="edge"><title>8&#45;&gt;10</title>
<path fill="none" stroke="grey" stroke-width="2" d="M152.346,-287.876C137.967,-278.808 120.119,-267.552 104.59,-257.759"/>
<polygon fill="grey" stroke="grey" stroke-width="2" points="106.084,-254.564 95.758,-252.19 102.35,-260.484 106.084,-254.564"/>
</g>
<!-- 9&#45;&gt;1 -->
<g id="edge9" class="edge"><title>9&#45;&gt;1</title>
<path fill="none" stroke="grey" stroke-width="2" d="M399.08,-287.776C411.95,-278.931 425.442,-266.863 432.5,-252 454.584,-205.499 419.625,-148.526 394.497,-116.333"/>
<polygon fill="grey" stroke="grey" stroke-width="2" points="397.042,-113.914 388.043,-108.322 391.591,-118.305 397.042,-113.914"/>
</g>
<!-- 9&#45;&gt;2 -->
<g id="edge16" class="edge"><title>9&#45;&gt;2</title>
<path fill="none" stroke="grey" stroke-width="2" d="M326.041,-287.905C305.524,-278.603 280.857,-266.117 260.5,-252 233.405,-233.209 206.337,-206.929 188.066,-187.8"/>
<polygon fill="grey" stroke="grey" stroke-width="2" points="190.443,-185.218 181.038,-180.338 185.347,-190.018 190.443,-185.218"/>
</g>
<!-- 11 -->
<g id="node12" class="node"><title>11</title>
<path fill="none" stroke="#56d892" stroke-width="2" d="M411.5,-252C411.5,-252 281.5,-252 281.5,-252 275.5,-252 269.5,-246 269.5,-240 269.5,-240 269.5,-228 269.5,-228 269.5,-222 275.5,-216 281.5,-216 281.5,-216 411.5,-216 411.5,-216 417.5,-216 423.5,-222 423.5,-228 423.5,-228 423.5,-240 423.5,-240 423.5,-246 417.5,-252 411.5,-252"/>
<text text-anchor="middle" x="346.5" y="-231.5" font-family="sans" font-size="10.00">global_epistasis_expression</text>
</g>
<!-- 9&#45;&gt;11 -->
<g id="edge27" class="edge"><title>9&#45;&gt;11</title>
<path fill="none" stroke="grey" stroke-width="2" d="M362.309,-287.697C359.969,-279.898 357.153,-270.509 354.549,-261.829"/>
<polygon fill="grey" stroke="grey" stroke-width="2" points="357.857,-260.677 351.631,-252.104 351.152,-262.688 357.857,-260.677"/>
</g>
<!-- 10&#45;&gt;1 -->
<g id="edge10" class="edge"><title>10&#45;&gt;1</title>
<path fill="none" stroke="grey" stroke-width="2" d="M69.9431,-215.759C72.6053,-195.437 80.1532,-162.142 101.5,-144 132.922,-117.294 244.501,-102.547 314.31,-95.7456"/>
<polygon fill="grey" stroke="grey" stroke-width="2" points="314.667,-99.2276 324.292,-94.7994 314.006,-92.2588 314.667,-99.2276"/>
</g>
<!-- 10&#45;&gt;2 -->
<g id="edge13" class="edge"><title>10&#45;&gt;2</title>
<path fill="none" stroke="grey" stroke-width="2" d="M92.4775,-215.697C104.811,-206.796 120.016,-195.823 133.353,-186.199"/>
<polygon fill="grey" stroke="grey" stroke-width="2" points="135.737,-188.794 141.798,-180.104 131.641,-183.118 135.737,-188.794"/>
</g>
<!-- 11&#45;&gt;1 -->
<g id="edge11" class="edge"><title>11&#45;&gt;1</title>
<path fill="none" stroke="grey" stroke-width="2" d="M349.636,-215.871C354.067,-191.67 362.208,-147.211 367.484,-118.393"/>
<polygon fill="grey" stroke="grey" stroke-width="2" points="370.994,-118.656 369.353,-108.189 364.109,-117.395 370.994,-118.656"/>
</g>
<!-- 11&#45;&gt;2 -->
<g id="edge14" class="edge"><title>11&#45;&gt;2</title>
<path fill="none" stroke="grey" stroke-width="2" d="M302.222,-215.876C277.149,-206.179 245.604,-193.98 219.135,-183.743"/>
<polygon fill="grey" stroke="grey" stroke-width="2" points="220.223,-180.411 209.634,-180.068 217.698,-186.94 220.223,-180.411"/>
</g>
<!-- 12 -->
<g id="node13" class="node"><title>12</title>
<path fill="none" stroke="#d87d56" stroke-width="2" d="M456.5,-612C456.5,-612 336.5,-612 336.5,-612 330.5,-612 324.5,-606 324.5,-600 324.5,-600 324.5,-588 324.5,-588 324.5,-582 330.5,-576 336.5,-576 336.5,-576 456.5,-576 456.5,-576 462.5,-576 468.5,-582 468.5,-588 468.5,-588 468.5,-600 468.5,-600 468.5,-606 462.5,-612 456.5,-612"/>
<text text-anchor="middle" x="396.5" y="-597" font-family="sans" font-size="10.00">build_ccs</text>
<text text-anchor="middle" x="396.5" y="-586" font-family="sans" font-size="10.00">pacbioRun: lib1_200415_A</text>
</g>
<!-- 12&#45;&gt;4 -->
<g id="edge17" class="edge"><title>12&#45;&gt;4</title>
<path fill="none" stroke="grey" stroke-width="2" d="M455.634,-575.966C497.417,-563.929 552.702,-548.004 591.702,-536.769"/>
<polygon fill="grey" stroke="grey" stroke-width="2" points="593.105,-540.007 601.746,-533.876 591.168,-533.281 593.105,-540.007"/>
</g>
<!-- 13 -->
<g id="node14" class="node"><title>13</title>
<path fill="none" stroke="#d87d56" stroke-width="2" d="M618.5,-612C618.5,-612 498.5,-612 498.5,-612 492.5,-612 486.5,-606 486.5,-600 486.5,-600 486.5,-588 486.5,-588 486.5,-582 492.5,-576 498.5,-576 498.5,-576 618.5,-576 618.5,-576 624.5,-576 630.5,-582 630.5,-588 630.5,-588 630.5,-600 630.5,-600 630.5,-606 624.5,-612 618.5,-612"/>
<text text-anchor="middle" x="558.5" y="-597" font-family="sans" font-size="10.00">build_ccs</text>
<text text-anchor="middle" x="558.5" y="-586" font-family="sans" font-size="10.00">pacbioRun: lib1_200415_B</text>
</g>
<!-- 13&#45;&gt;4 -->
<g id="edge18" class="edge"><title>13&#45;&gt;4</title>
<path fill="none" stroke="grey" stroke-width="2" d="M578.522,-575.697C588.626,-566.965 601.036,-556.24 612.018,-546.75"/>
<polygon fill="grey" stroke="grey" stroke-width="2" points="614.43,-549.291 619.708,-540.104 609.853,-543.995 614.43,-549.291"/>
</g>
<!-- 14 -->
<g id="node15" class="node"><title>14</title>
<path fill="none" stroke="#d87d56" stroke-width="2" d="M780.5,-612C780.5,-612 660.5,-612 660.5,-612 654.5,-612 648.5,-606 648.5,-600 648.5,-600 648.5,-588 648.5,-588 648.5,-582 654.5,-576 660.5,-576 660.5,-576 780.5,-576 780.5,-576 786.5,-576 792.5,-582 792.5,-588 792.5,-588 792.5,-600 792.5,-600 792.5,-606 786.5,-612 780.5,-612"/>
<text text-anchor="middle" x="720.5" y="-597" font-family="sans" font-size="10.00">build_ccs</text>
<text text-anchor="middle" x="720.5" y="-586" font-family="sans" font-size="10.00">pacbioRun: lib2_200415_A</text>
</g>
<!-- 14&#45;&gt;4 -->
<g id="edge19" class="edge"><title>14&#45;&gt;4</title>
<path fill="none" stroke="grey" stroke-width="2" d="M700.478,-575.697C690.374,-566.965 677.964,-556.24 666.982,-546.75"/>
<polygon fill="grey" stroke="grey" stroke-width="2" points="669.147,-543.995 659.292,-540.104 664.57,-549.291 669.147,-543.995"/>
</g>
<!-- 15 -->
<g id="node16" class="node"><title>15</title>
<path fill="none" stroke="#d87d56" stroke-width="2" d="M942.5,-612C942.5,-612 822.5,-612 822.5,-612 816.5,-612 810.5,-606 810.5,-600 810.5,-600 810.5,-588 810.5,-588 810.5,-582 816.5,-576 822.5,-576 822.5,-576 942.5,-576 942.5,-576 948.5,-576 954.5,-582 954.5,-588 954.5,-588 954.5,-600 954.5,-600 954.5,-606 948.5,-612 942.5,-612"/>
<text text-anchor="middle" x="882.5" y="-597" font-family="sans" font-size="10.00">build_ccs</text>
<text text-anchor="middle" x="882.5" y="-586" font-family="sans" font-size="10.00">pacbioRun: lib2_200415_B</text>
</g>
<!-- 15&#45;&gt;4 -->
<g id="edge20" class="edge"><title>15&#45;&gt;4</title>
<path fill="none" stroke="grey" stroke-width="2" d="M823.366,-575.966C781.583,-563.929 726.298,-548.004 687.298,-536.769"/>
<polygon fill="grey" stroke="grey" stroke-width="2" points="687.832,-533.281 677.254,-533.876 685.895,-540.007 687.832,-533.281"/>
</g>
</g>
</svg>
