<?xml version="1.0" encoding="UTF-8" standalone="no"?>
<!DOCTYPE svg PUBLIC "-//W3C//DTD SVG 1.1//EN"
 "http://www.w3.org/Graphics/SVG/1.1/DTD/svg11.dtd">
<!-- Generated by graphviz version 2.38.0 (20140413.2041)
 -->
<!-- Title: snakemake_dag Pages: 1 -->
<svg width="967pt" height="620pt"
 viewBox="0.00 0.00 966.50 620.00" xmlns="http://www.w3.org/2000/svg" xmlns:xlink="http://www.w3.org/1999/xlink">
<g id="graph0" class="graph" transform="scale(1 1) rotate(0) translate(4 616)">
<title>snakemake_dag</title>
<polygon fill="white" stroke="none" points="-4,4 -4,-616 962.5,-616 962.5,4 -4,4"/>
<!-- 0 -->
<g id="node1" class="node"><title>0</title>
<path fill="none" stroke="#56d0d8" stroke-width="2" d="M233.5,-36C233.5,-36 203.5,-36 203.5,-36 197.5,-36 191.5,-30 191.5,-24 191.5,-24 191.5,-12 191.5,-12 191.5,-6 197.5,-0 203.5,-0 203.5,-0 233.5,-0 233.5,-0 239.5,-0 245.5,-6 245.5,-12 245.5,-12 245.5,-24 245.5,-24 245.5,-30 239.5,-36 233.5,-36"/>
<text text-anchor="middle" x="218.5" y="-15.5" font-family="sans" font-size="10.00">all</text>
</g>
<!-- 1 -->
<g id="node2" class="node"><title>1</title>
<path fill="none" stroke="#d8a456" stroke-width="2" d="M335.5,-108C335.5,-108 263.5,-108 263.5,-108 257.5,-108 251.5,-102 251.5,-96 251.5,-96 251.5,-84 251.5,-84 251.5,-78 257.5,-72 263.5,-72 263.5,-72 335.5,-72 335.5,-72 341.5,-72 347.5,-78 347.5,-84 347.5,-84 347.5,-96 347.5,-96 347.5,-102 341.5,-108 335.5,-108"/>
<text text-anchor="middle" x="299.5" y="-87.5" font-family="sans" font-size="10.00">make_summary</text>
</g>
<!-- 1&#45;&gt;0 -->
<g id="edge1" class="edge"><title>1&#45;&gt;0</title>
<path fill="none" stroke="grey" stroke-width="2" d="M279.478,-71.6966C269.374,-62.9655 256.964,-52.2405 245.982,-42.7503"/>
<polygon fill="grey" stroke="grey" stroke-width="2" points="248.147,-39.9948 238.292,-36.1043 243.57,-45.2912 248.147,-39.9948"/>
</g>
<!-- 2 -->
<g id="node3" class="node"><title>2</title>
<path fill="none" stroke="#56d86b" stroke-width="2" d="M97,-180C97,-180 12,-180 12,-180 6,-180 0,-174 0,-168 0,-168 0,-156 0,-156 0,-150 6,-144 12,-144 12,-144 97,-144 97,-144 103,-144 109,-150 109,-156 109,-156 109,-168 109,-168 109,-174 103,-180 97,-180"/>
<text text-anchor="middle" x="54.5" y="-159.5" font-family="sans" font-size="10.00">single_mut_effects</text>
</g>
<!-- 2&#45;&gt;0 -->
<g id="edge2" class="edge"><title>2&#45;&gt;0</title>
<path fill="none" stroke="grey" stroke-width="2" d="M74.2822,-143.871C103.341,-118.711 157.689,-71.6535 190.734,-43.0415"/>
<polygon fill="grey" stroke="grey" stroke-width="2" points="193.379,-45.3811 198.648,-36.1893 188.797,-40.0891 193.379,-45.3811"/>
</g>
<!-- 2&#45;&gt;1 -->
<g id="edge12" class="edge"><title>2&#45;&gt;1</title>
<path fill="none" stroke="grey" stroke-width="2" d="M109.178,-145.378C148.525,-134.136 201.503,-118.999 241.573,-107.551"/>
<polygon fill="grey" stroke="grey" stroke-width="2" points="242.553,-110.911 251.207,-104.798 240.63,-104.18 242.553,-110.911"/>
</g>
<!-- 3 -->
<g id="node4" class="node"><title>3</title>
<path fill="none" stroke="#d8cb56" stroke-width="2" d="M221.5,-180C221.5,-180 177.5,-180 177.5,-180 171.5,-180 165.5,-174 165.5,-168 165.5,-168 165.5,-156 165.5,-156 165.5,-150 171.5,-144 177.5,-144 177.5,-144 221.5,-144 221.5,-144 227.5,-144 233.5,-150 233.5,-156 233.5,-156 233.5,-168 233.5,-168 233.5,-174 227.5,-180 221.5,-180"/>
<text text-anchor="middle" x="199.5" y="-159.5" font-family="sans" font-size="10.00">make_dag</text>
</g>
<!-- 3&#45;&gt;1 -->
<g id="edge3" class="edge"><title>3&#45;&gt;1</title>
<path fill="none" stroke="grey" stroke-width="2" d="M223.963,-143.876C236.796,-134.893 252.696,-123.763 266.594,-114.034"/>
<polygon fill="grey" stroke="grey" stroke-width="2" points="268.758,-116.792 274.943,-108.19 264.744,-111.057 268.758,-116.792"/>
</g>
<!-- 4 -->
<g id="node5" class="node"><title>4</title>
<path fill="none" stroke="#56a9d8" stroke-width="2" d="M669,-540C669,-540 618,-540 618,-540 612,-540 606,-534 606,-528 606,-528 606,-516 606,-516 606,-510 612,-504 618,-504 618,-504 669,-504 669,-504 675,-504 681,-510 681,-516 681,-516 681,-528 681,-528 681,-534 675,-540 669,-540"/>
<text text-anchor="middle" x="643.5" y="-519.5" font-family="sans" font-size="10.00">process_ccs</text>
</g>
<!-- 4&#45;&gt;1 -->
<g id="edge4" class="edge"><title>4&#45;&gt;1</title>
<path fill="none" stroke="grey" stroke-width="2" d="M650.785,-503.867C661.304,-477.531 679.5,-425.288 679.5,-379 679.5,-379 679.5,-379 679.5,-233 679.5,-174.492 634.828,-170.172 582.5,-144 510.593,-108.035 417.329,-96.3415 357.93,-92.6172"/>
<polygon fill="grey" stroke="grey" stroke-width="2" points="357.792,-89.1038 347.609,-92.0291 357.393,-96.0924 357.792,-89.1038"/>
</g>
<!-- 5 -->
<g id="node6" class="node"><title>5</title>
<path fill="none" stroke="#56d892" stroke-width="2" d="M639.5,-468C639.5,-468 577.5,-468 577.5,-468 571.5,-468 565.5,-462 565.5,-456 565.5,-456 565.5,-444 565.5,-444 565.5,-438 571.5,-432 577.5,-432 577.5,-432 639.5,-432 639.5,-432 645.5,-432 651.5,-438 651.5,-444 651.5,-444 651.5,-456 651.5,-456 651.5,-462 645.5,-468 639.5,-468"/>
<text text-anchor="middle" x="608.5" y="-447.5" font-family="sans" font-size="10.00">build_variants</text>
</g>
<!-- 4&#45;&gt;5 -->
<g id="edge19" class="edge"><title>4&#45;&gt;5</title>
<path fill="none" stroke="grey" stroke-width="2" d="M634.848,-503.697C630.864,-495.728 626.05,-486.1 621.632,-477.264"/>
<polygon fill="grey" stroke="grey" stroke-width="2" points="624.655,-475.483 617.052,-468.104 618.394,-478.614 624.655,-475.483"/>
</g>
<!-- 5&#45;&gt;1 -->
<g id="edge5" class="edge"><title>5&#45;&gt;1</title>
<path fill="none" stroke="grey" stroke-width="2" d="M615.178,-431.811C624.821,-405.402 641.5,-353.064 641.5,-307 641.5,-307 641.5,-307 641.5,-233 641.5,-218.009 687.42,-218.455 537.5,-144 480.216,-115.551 407.647,-102.221 357.788,-96.0741"/>
<polygon fill="grey" stroke="grey" stroke-width="2" points="358.159,-92.5937 347.819,-94.9032 357.343,-99.5459 358.159,-92.5937"/>
</g>
<!-- 6 -->
<g id="node7" class="node"><title>6</title>
<path fill="none" stroke="#56d8b9" stroke-width="2" d="M450,-396C450,-396 385,-396 385,-396 379,-396 373,-390 373,-384 373,-384 373,-372 373,-372 373,-366 379,-360 385,-360 385,-360 450,-360 450,-360 456,-360 462,-366 462,-372 462,-372 462,-384 462,-384 462,-390 456,-396 450,-396"/>
<text text-anchor="middle" x="417.5" y="-375.5" font-family="sans" font-size="10.00">count_variants</text>
</g>
<!-- 5&#45;&gt;6 -->
<g id="edge20" class="edge"><title>5&#45;&gt;6</title>
<path fill="none" stroke="grey" stroke-width="2" d="M565.159,-433.116C537.57,-423.005 501.603,-409.823 472.074,-399.001"/>
<polygon fill="grey" stroke="grey" stroke-width="2" points="472.922,-395.584 462.328,-395.429 470.513,-402.157 472.922,-395.584"/>
</g>
<!-- 6&#45;&gt;1 -->
<g id="edge6" class="edge"><title>6&#45;&gt;1</title>
<path fill="none" stroke="grey" stroke-width="2" d="M387.427,-359.995C373.431,-350.836 357.488,-338.447 346.5,-324 299.453,-262.142 296.191,-165.197 297.754,-118.268"/>
<polygon fill="grey" stroke="grey" stroke-width="2" points="301.252,-118.394 298.189,-108.252 294.258,-118.09 301.252,-118.394"/>
</g>
<!-- 7 -->
<g id="node8" class="node"><title>7</title>
<path fill="none" stroke="#567bd8" stroke-width="2" d="M601.5,-252C601.5,-252 533.5,-252 533.5,-252 527.5,-252 521.5,-246 521.5,-240 521.5,-240 521.5,-228 521.5,-228 521.5,-222 527.5,-216 533.5,-216 533.5,-216 601.5,-216 601.5,-216 607.5,-216 613.5,-222 613.5,-228 613.5,-228 613.5,-240 613.5,-240 613.5,-246 607.5,-252 601.5,-252"/>
<text text-anchor="middle" x="567.5" y="-231.5" font-family="sans" font-size="10.00">analyze_counts</text>
</g>
<!-- 6&#45;&gt;7 -->
<g id="edge21" class="edge"><title>6&#45;&gt;7</title>
<path fill="none" stroke="grey" stroke-width="2" d="M443.125,-359.787C457.081,-349.949 474.341,-337.008 488.5,-324 510.138,-304.121 532.116,-278.862 547.378,-260.335"/>
<polygon fill="grey" stroke="grey" stroke-width="2" points="550.289,-262.303 553.892,-252.34 544.862,-257.882 550.289,-262.303"/>
</g>
<!-- 8 -->
<g id="node9" class="node"><title>8</title>
<path fill="none" stroke="#d85656" stroke-width="2" d="M467.5,-324C467.5,-324 367.5,-324 367.5,-324 361.5,-324 355.5,-318 355.5,-312 355.5,-312 355.5,-300 355.5,-300 355.5,-294 361.5,-288 367.5,-288 367.5,-288 467.5,-288 467.5,-288 473.5,-288 479.5,-294 479.5,-300 479.5,-300 479.5,-312 479.5,-312 479.5,-318 473.5,-324 467.5,-324"/>
<text text-anchor="middle" x="417.5" y="-303.5" font-family="sans" font-size="10.00">compute_Titeseq_Kds</text>
</g>
<!-- 6&#45;&gt;8 -->
<g id="edge22" class="edge"><title>6&#45;&gt;8</title>
<path fill="none" stroke="grey" stroke-width="2" d="M417.5,-359.697C417.5,-351.983 417.5,-342.712 417.5,-334.112"/>
<polygon fill="grey" stroke="grey" stroke-width="2" points="421,-334.104 417.5,-324.104 414,-334.104 421,-334.104"/>
</g>
<!-- 9 -->
<g id="node10" class="node"><title>9</title>
<path fill="none" stroke="#68d856" stroke-width="2" d="M259,-324C259,-324 122,-324 122,-324 116,-324 110,-318 110,-312 110,-312 110,-300 110,-300 110,-294 116,-288 122,-288 122,-288 259,-288 259,-288 265,-288 271,-294 271,-300 271,-300 271,-312 271,-312 271,-318 265,-324 259,-324"/>
<text text-anchor="middle" x="190.5" y="-303.5" font-family="sans" font-size="10.00">compute_expression_meanFs</text>
</g>
<!-- 6&#45;&gt;9 -->
<g id="edge23" class="edge"><title>6&#45;&gt;9</title>
<path fill="none" stroke="grey" stroke-width="2" d="M372.923,-363.254C339.499,-352.947 293.24,-338.682 255.669,-327.096"/>
<polygon fill="grey" stroke="grey" stroke-width="2" points="256.408,-323.661 245.821,-324.059 254.345,-330.351 256.408,-323.661"/>
</g>
<!-- 7&#45;&gt;1 -->
<g id="edge7" class="edge"><title>7&#45;&gt;1</title>
<path fill="none" stroke="grey" stroke-width="2" d="M560.505,-215.792C551.361,-195.502 533.401,-162.24 507.5,-144 463.263,-112.847 402.299,-99.983 357.811,-94.6834"/>
<polygon fill="grey" stroke="grey" stroke-width="2" points="358.052,-91.1889 347.73,-93.5775 357.289,-98.1472 358.052,-91.1889"/>
</g>
<!-- 8&#45;&gt;1 -->
<g id="edge8" class="edge"><title>8&#45;&gt;1</title>
<path fill="none" stroke="grey" stroke-width="2" d="M443.624,-287.816C455.079,-278.692 467.308,-266.386 473.5,-252 479.826,-237.304 480.802,-230.237 473.5,-216 448.171,-166.616 393.254,-132.334 351.847,-112.326"/>
<polygon fill="grey" stroke="grey" stroke-width="2" points="353.242,-109.114 342.703,-108.031 350.266,-115.45 353.242,-109.114"/>
</g>
<!-- 10 -->
<g id="node11" class="node"><title>10</title>
<path fill="none" stroke="#8fd856" stroke-width="2" d="M453,-252C453,-252 340,-252 340,-252 334,-252 328,-246 328,-240 328,-240 328,-228 328,-228 328,-222 334,-216 340,-216 340,-216 453,-216 453,-216 459,-216 465,-222 465,-228 465,-228 465,-240 465,-240 465,-246 459,-252 453,-252"/>
<text text-anchor="middle" x="396.5" y="-231.5" font-family="sans" font-size="10.00">global_epistasis_binding</text>
</g>
<!-- 8&#45;&gt;10 -->
<g id="edge24" class="edge"><title>8&#45;&gt;10</title>
<path fill="none" stroke="grey" stroke-width="2" d="M412.309,-287.697C409.969,-279.898 407.153,-270.509 404.549,-261.829"/>
<polygon fill="grey" stroke="grey" stroke-width="2" points="407.857,-260.677 401.631,-252.104 401.152,-262.688 407.857,-260.677"/>
</g>
<!-- 9&#45;&gt;1 -->
<g id="edge9" class="edge"><title>9&#45;&gt;1</title>
<path fill="none" stroke="grey" stroke-width="2" d="M202.021,-287.637C208.611,-277.433 216.861,-264.183 223.5,-252 248.7,-205.759 274.02,-149.756 288.138,-117.466"/>
<polygon fill="grey" stroke="grey" stroke-width="2" points="291.37,-118.81 292.148,-108.244 284.951,-116.019 291.37,-118.81"/>
</g>
<!-- 11 -->
<g id="node12" class="node"><title>11</title>
<path fill="none" stroke="#d87d56" stroke-width="2" d="M202.5,-252C202.5,-252 72.5,-252 72.5,-252 66.5,-252 60.5,-246 60.5,-240 60.5,-240 60.5,-228 60.5,-228 60.5,-222 66.5,-216 72.5,-216 72.5,-216 202.5,-216 202.5,-216 208.5,-216 214.5,-222 214.5,-228 214.5,-228 214.5,-240 214.5,-240 214.5,-246 208.5,-252 202.5,-252"/>
<text text-anchor="middle" x="137.5" y="-231.5" font-family="sans" font-size="10.00">global_epistasis_expression</text>
</g>
<!-- 9&#45;&gt;11 -->
<g id="edge25" class="edge"><title>9&#45;&gt;11</title>
<path fill="none" stroke="grey" stroke-width="2" d="M177.399,-287.697C171.109,-279.389 163.453,-269.277 156.535,-260.141"/>
<polygon fill="grey" stroke="grey" stroke-width="2" points="159.277,-257.964 150.45,-252.104 153.696,-262.19 159.277,-257.964"/>
</g>
<!-- 10&#45;&gt;1 -->
<g id="edge10" class="edge"><title>10&#45;&gt;1</title>
<path fill="none" stroke="grey" stroke-width="2" d="M384.8,-215.871C367.904,-191.137 336.553,-145.242 316.927,-116.512"/>
<polygon fill="grey" stroke="grey" stroke-width="2" points="319.773,-114.472 311.242,-108.189 313.993,-118.421 319.773,-114.472"/>
</g>
<!-- 10&#45;&gt;2 -->
<g id="edge13" class="edge"><title>10&#45;&gt;2</title>
<path fill="none" stroke="grey" stroke-width="2" d="M327.703,-218.919C266.854,-206.464 178.733,-188.428 119.162,-176.235"/>
<polygon fill="grey" stroke="grey" stroke-width="2" points="119.62,-172.756 109.121,-174.18 118.216,-179.614 119.62,-172.756"/>
</g>
<!-- 11&#45;&gt;1 -->
<g id="edge11" class="edge"><title>11&#45;&gt;1</title>
<path fill="none" stroke="grey" stroke-width="2" d="M136.536,-215.797C136.38,-196.131 139.136,-164.076 156.5,-144 177.897,-119.262 211.943,-106.057 241.447,-99.0152"/>
<polygon fill="grey" stroke="grey" stroke-width="2" points="242.241,-102.424 251.254,-96.8557 240.735,-95.5882 242.241,-102.424"/>
</g>
<!-- 11&#45;&gt;2 -->
<g id="edge14" class="edge"><title>11&#45;&gt;2</title>
<path fill="none" stroke="grey" stroke-width="2" d="M116.983,-215.697C106.631,-206.965 93.9137,-196.24 82.661,-186.75"/>
<polygon fill="grey" stroke="grey" stroke-width="2" points="84.6817,-183.876 74.7809,-180.104 80.1687,-189.227 84.6817,-183.876"/>
</g>
<!-- 12 -->
<g id="node13" class="node"><title>12</title>
<path fill="none" stroke="#b6d856" stroke-width="2" d="M460.5,-612C460.5,-612 340.5,-612 340.5,-612 334.5,-612 328.5,-606 328.5,-600 328.5,-600 328.5,-588 328.5,-588 328.5,-582 334.5,-576 340.5,-576 340.5,-576 460.5,-576 460.5,-576 466.5,-576 472.5,-582 472.5,-588 472.5,-588 472.5,-600 472.5,-600 472.5,-606 466.5,-612 460.5,-612"/>
<text text-anchor="middle" x="400.5" y="-597" font-family="sans" font-size="10.00">build_ccs</text>
<text text-anchor="middle" x="400.5" y="-586" font-family="sans" font-size="10.00">pacbioRun: lib1_200415_A</text>
</g>
<!-- 12&#45;&gt;4 -->
<g id="edge15" class="edge"><title>12&#45;&gt;4</title>
<path fill="none" stroke="grey" stroke-width="2" d="M459.634,-575.966C501.417,-563.929 556.702,-548.004 595.702,-536.769"/>
<polygon fill="grey" stroke="grey" stroke-width="2" points="597.105,-540.007 605.746,-533.876 595.168,-533.281 597.105,-540.007"/>
</g>
<!-- 13 -->
<g id="node14" class="node"><title>13</title>
<path fill="none" stroke="#b6d856" stroke-width="2" d="M622.5,-612C622.5,-612 502.5,-612 502.5,-612 496.5,-612 490.5,-606 490.5,-600 490.5,-600 490.5,-588 490.5,-588 490.5,-582 496.5,-576 502.5,-576 502.5,-576 622.5,-576 622.5,-576 628.5,-576 634.5,-582 634.5,-588 634.5,-588 634.5,-600 634.5,-600 634.5,-606 628.5,-612 622.5,-612"/>
<text text-anchor="middle" x="562.5" y="-597" font-family="sans" font-size="10.00">build_ccs</text>
<text text-anchor="middle" x="562.5" y="-586" font-family="sans" font-size="10.00">pacbioRun: lib1_200415_B</text>
</g>
<!-- 13&#45;&gt;4 -->
<g id="edge16" class="edge"><title>13&#45;&gt;4</title>
<path fill="none" stroke="grey" stroke-width="2" d="M582.522,-575.697C592.626,-566.965 605.036,-556.24 616.018,-546.75"/>
<polygon fill="grey" stroke="grey" stroke-width="2" points="618.43,-549.291 623.708,-540.104 613.853,-543.995 618.43,-549.291"/>
</g>
<!-- 14 -->
<g id="node15" class="node"><title>14</title>
<path fill="none" stroke="#b6d856" stroke-width="2" d="M784.5,-612C784.5,-612 664.5,-612 664.5,-612 658.5,-612 652.5,-606 652.5,-600 652.5,-600 652.5,-588 652.5,-588 652.5,-582 658.5,-576 664.5,-576 664.5,-576 784.5,-576 784.5,-576 790.5,-576 796.5,-582 796.5,-588 796.5,-588 796.5,-600 796.5,-600 796.5,-606 790.5,-612 784.5,-612"/>
<text text-anchor="middle" x="724.5" y="-597" font-family="sans" font-size="10.00">build_ccs</text>
<text text-anchor="middle" x="724.5" y="-586" font-family="sans" font-size="10.00">pacbioRun: lib2_200415_A</text>
</g>
<!-- 14&#45;&gt;4 -->
<g id="edge17" class="edge"><title>14&#45;&gt;4</title>
<path fill="none" stroke="grey" stroke-width="2" d="M704.478,-575.697C694.374,-566.965 681.964,-556.24 670.982,-546.75"/>
<polygon fill="grey" stroke="grey" stroke-width="2" points="673.147,-543.995 663.292,-540.104 668.57,-549.291 673.147,-543.995"/>
</g>
<!-- 15 -->
<g id="node16" class="node"><title>15</title>
<path fill="none" stroke="#b6d856" stroke-width="2" d="M946.5,-612C946.5,-612 826.5,-612 826.5,-612 820.5,-612 814.5,-606 814.5,-600 814.5,-600 814.5,-588 814.5,-588 814.5,-582 820.5,-576 826.5,-576 826.5,-576 946.5,-576 946.5,-576 952.5,-576 958.5,-582 958.5,-588 958.5,-588 958.5,-600 958.5,-600 958.5,-606 952.5,-612 946.5,-612"/>
<text text-anchor="middle" x="886.5" y="-597" font-family="sans" font-size="10.00">build_ccs</text>
<text text-anchor="middle" x="886.5" y="-586" font-family="sans" font-size="10.00">pacbioRun: lib2_200415_B</text>
</g>
<!-- 15&#45;&gt;4 -->
<g id="edge18" class="edge"><title>15&#45;&gt;4</title>
<path fill="none" stroke="grey" stroke-width="2" d="M827.366,-575.966C785.583,-563.929 730.298,-548.004 691.298,-536.769"/>
<polygon fill="grey" stroke="grey" stroke-width="2" points="691.832,-533.281 681.254,-533.876 689.895,-540.007 691.832,-533.281"/>
</g>
</g>
</svg>
