<?xml version="1.0" encoding="UTF-8" standalone="no"?>
<!DOCTYPE svg PUBLIC "-//W3C//DTD SVG 1.1//EN"
 "http://www.w3.org/Graphics/SVG/1.1/DTD/svg11.dtd">
<!-- Generated by graphviz version 2.38.0 (20140413.2041)
 -->
<!-- Title: snakemake_dag Pages: 1 -->
<svg width="1294pt" height="620pt"
 viewBox="0.00 0.00 1294.00 620.00" xmlns="http://www.w3.org/2000/svg" xmlns:xlink="http://www.w3.org/1999/xlink">
<g id="graph0" class="graph" transform="scale(1 1) rotate(0) translate(4 616)">
<title>snakemake_dag</title>
<polygon fill="white" stroke="none" points="-4,4 -4,-616 1290,-616 1290,4 -4,4"/>
<!-- 0 -->
<g id="node1" class="node"><title>0</title>
<path fill="none" stroke="#56d8c9" stroke-width="2" d="M646,-36C646,-36 574,-36 574,-36 568,-36 562,-30 562,-24 562,-24 562,-12 562,-12 562,-6 568,-0 574,-0 574,-0 646,-0 646,-0 652,-0 658,-6 658,-12 658,-12 658,-24 658,-24 658,-30 652,-36 646,-36"/>
<text text-anchor="middle" x="610" y="-15.5" font-family="sans" font-size="10.00">make_summary</text>
</g>
<!-- 1 -->
<g id="node2" class="node"><title>1</title>
<path fill="none" stroke="#5692d8" stroke-width="2" d="M56,-108C56,-108 12,-108 12,-108 6,-108 0,-102 0,-96 0,-96 0,-84 0,-84 0,-78 6,-72 12,-72 12,-72 56,-72 56,-72 62,-72 68,-78 68,-84 68,-84 68,-96 68,-96 68,-102 62,-108 56,-108"/>
<text text-anchor="middle" x="34" y="-87.5" font-family="sans" font-size="10.00">make_dag</text>
</g>
<!-- 1&#45;&gt;0 -->
<g id="edge1" class="edge"><title>1&#45;&gt;0</title>
<path fill="none" stroke="grey" stroke-width="2" d="M68.0545,-75.815C72.6912,-74.3518 77.4277,-73.0235 82,-72 249.798,-34.4395 453.583,-23.4757 551.685,-20.2919"/>
<polygon fill="grey" stroke="grey" stroke-width="2" points="551.81,-23.7898 561.697,-19.9823 551.594,-16.7931 551.81,-23.7898"/>
</g>
<!-- 2 -->
<g id="node3" class="node"><title>2</title>
<path fill="none" stroke="#56a9d8" stroke-width="2" d="M404.5,-540C404.5,-540 353.5,-540 353.5,-540 347.5,-540 341.5,-534 341.5,-528 341.5,-528 341.5,-516 341.5,-516 341.5,-510 347.5,-504 353.5,-504 353.5,-504 404.5,-504 404.5,-504 410.5,-504 416.5,-510 416.5,-516 416.5,-516 416.5,-528 416.5,-528 416.5,-534 410.5,-540 404.5,-540"/>
<text text-anchor="middle" x="379" y="-519.5" font-family="sans" font-size="10.00">process_ccs</text>
</g>
<!-- 2&#45;&gt;0 -->
<g id="edge2" class="edge"><title>2&#45;&gt;0</title>
<path fill="none" stroke="grey" stroke-width="2" d="M341.42,-519.151C264.438,-513.135 96,-487.566 96,-379 96,-379 96,-379 96,-161 96,-102.819 139.282,-96.6158 192,-72 254.575,-42.7814 452.239,-27.8318 551.675,-21.9977"/>
<polygon fill="grey" stroke="grey" stroke-width="2" points="552.071,-25.4808 561.853,-21.4123 551.669,-18.4924 552.071,-25.4808"/>
</g>
<!-- 3 -->
<g id="node4" class="node"><title>3</title>
<path fill="none" stroke="#d8ac56" stroke-width="2" d="M696,-468C696,-468 634,-468 634,-468 628,-468 622,-462 622,-456 622,-456 622,-444 622,-444 622,-438 628,-432 634,-432 634,-432 696,-432 696,-432 702,-432 708,-438 708,-444 708,-444 708,-456 708,-456 708,-462 702,-468 696,-468"/>
<text text-anchor="middle" x="665" y="-447.5" font-family="sans" font-size="10.00">build_variants</text>
</g>
<!-- 2&#45;&gt;3 -->
<g id="edge21" class="edge"><title>2&#45;&gt;3</title>
<path fill="none" stroke="grey" stroke-width="2" d="M416.684,-511.777C466.622,-499.554 555.013,-477.92 611.755,-464.032"/>
<polygon fill="grey" stroke="grey" stroke-width="2" points="612.737,-467.395 621.618,-461.618 611.073,-460.596 612.737,-467.395"/>
</g>
<!-- 3&#45;&gt;0 -->
<g id="edge3" class="edge"><title>3&#45;&gt;0</title>
<path fill="none" stroke="grey" stroke-width="2" d="M708.174,-448.377C849.003,-445.195 1286,-425.752 1286,-307 1286,-307 1286,-307 1286,-161 1286,-114.733 1271.32,-96.3887 1232,-72 1184.78,-42.7103 814.053,-26.3356 668.436,-20.9801"/>
<polygon fill="grey" stroke="grey" stroke-width="2" points="668.468,-17.4791 658.348,-20.6136 668.214,-24.4745 668.468,-17.4791"/>
</g>
<!-- 4 -->
<g id="node5" class="node"><title>4</title>
<path fill="none" stroke="#d85656" stroke-width="2" d="M697.5,-396C697.5,-396 632.5,-396 632.5,-396 626.5,-396 620.5,-390 620.5,-384 620.5,-384 620.5,-372 620.5,-372 620.5,-366 626.5,-360 632.5,-360 632.5,-360 697.5,-360 697.5,-360 703.5,-360 709.5,-366 709.5,-372 709.5,-372 709.5,-384 709.5,-384 709.5,-390 703.5,-396 697.5,-396"/>
<text text-anchor="middle" x="665" y="-375.5" font-family="sans" font-size="10.00">count_variants</text>
</g>
<!-- 3&#45;&gt;4 -->
<g id="edge22" class="edge"><title>3&#45;&gt;4</title>
<path fill="none" stroke="grey" stroke-width="2" d="M665,-431.697C665,-423.983 665,-414.712 665,-406.112"/>
<polygon fill="grey" stroke="grey" stroke-width="2" points="668.5,-406.104 665,-396.104 661.5,-406.104 668.5,-406.104"/>
</g>
<!-- 4&#45;&gt;0 -->
<g id="edge4" class="edge"><title>4&#45;&gt;0</title>
<path fill="none" stroke="grey" stroke-width="2" d="M709.779,-375.681C846.296,-370.458 1248,-345.685 1248,-235 1248,-235 1248,-235 1248,-161 1248,-116.058 1237.52,-96.7376 1200,-72 1156.29,-43.1786 808.738,-26.672 668.434,-21.1266"/>
<polygon fill="grey" stroke="grey" stroke-width="2" points="668.427,-17.6237 658.298,-20.7308 668.154,-24.6184 668.427,-17.6237"/>
</g>
<!-- 5 -->
<g id="node6" class="node"><title>5</title>
<path fill="none" stroke="#56d873" stroke-width="2" d="M204,-180C204,-180 136,-180 136,-180 130,-180 124,-174 124,-168 124,-168 124,-156 124,-156 124,-150 130,-144 136,-144 136,-144 204,-144 204,-144 210,-144 216,-150 216,-156 216,-156 216,-168 216,-168 216,-174 210,-180 204,-180"/>
<text text-anchor="middle" x="170" y="-159.5" font-family="sans" font-size="10.00">analyze_counts</text>
</g>
<!-- 4&#45;&gt;5 -->
<g id="edge23" class="edge"><title>4&#45;&gt;5</title>
<path fill="none" stroke="grey" stroke-width="2" d="M620.238,-374.134C536.175,-366.744 352.178,-340.843 230,-252 207.982,-235.989 191.554,-209.267 181.506,-189.274"/>
<polygon fill="grey" stroke="grey" stroke-width="2" points="184.573,-187.576 177.09,-180.076 178.263,-190.606 184.573,-187.576"/>
</g>
<!-- 6 -->
<g id="node7" class="node"><title>6</title>
<path fill="none" stroke="#70d856" stroke-width="2" d="M635,-324C635,-324 535,-324 535,-324 529,-324 523,-318 523,-312 523,-312 523,-300 523,-300 523,-294 529,-288 535,-288 535,-288 635,-288 635,-288 641,-288 647,-294 647,-300 647,-300 647,-312 647,-312 647,-318 641,-324 635,-324"/>
<text text-anchor="middle" x="585" y="-303.5" font-family="sans" font-size="10.00">compute_Titeseq_Kds</text>
</g>
<!-- 4&#45;&gt;6 -->
<g id="edge24" class="edge"><title>4&#45;&gt;6</title>
<path fill="none" stroke="grey" stroke-width="2" d="M645.225,-359.697C635.246,-350.965 622.989,-340.24 612.143,-330.75"/>
<polygon fill="grey" stroke="grey" stroke-width="2" points="614.378,-328.055 604.548,-324.104 609.769,-333.323 614.378,-328.055"/>
</g>
<!-- 7 -->
<g id="node8" class="node"><title>7</title>
<path fill="none" stroke="#d87556" stroke-width="2" d="M853.5,-324C853.5,-324 716.5,-324 716.5,-324 710.5,-324 704.5,-318 704.5,-312 704.5,-312 704.5,-300 704.5,-300 704.5,-294 710.5,-288 716.5,-288 716.5,-288 853.5,-288 853.5,-288 859.5,-288 865.5,-294 865.5,-300 865.5,-300 865.5,-312 865.5,-312 865.5,-318 859.5,-324 853.5,-324"/>
<text text-anchor="middle" x="785" y="-303.5" font-family="sans" font-size="10.00">compute_expression_meanFs</text>
</g>
<!-- 4&#45;&gt;7 -->
<g id="edge25" class="edge"><title>4&#45;&gt;7</title>
<path fill="none" stroke="grey" stroke-width="2" d="M694.355,-359.876C710.045,-350.724 729.557,-339.342 746.454,-329.485"/>
<polygon fill="grey" stroke="grey" stroke-width="2" points="748.658,-332.252 755.532,-324.19 745.13,-326.205 748.658,-332.252"/>
</g>
<!-- 5&#45;&gt;0 -->
<g id="edge5" class="edge"><title>5&#45;&gt;0</title>
<path fill="none" stroke="grey" stroke-width="2" d="M176.512,-143.661C185.279,-122.916 202.97,-88.8752 230,-72 282.488,-39.2315 458.929,-26.111 551.768,-21.3788"/>
<polygon fill="grey" stroke="grey" stroke-width="2" points="552.03,-24.8702 561.845,-20.8814 551.685,-17.8787 552.03,-24.8702"/>
</g>
<!-- 6&#45;&gt;0 -->
<g id="edge6" class="edge"><title>6&#45;&gt;0</title>
<path fill="none" stroke="grey" stroke-width="2" d="M532.315,-287.934C431.185,-252.519 226.606,-166.434 306,-72 336.726,-35.4533 472.045,-24.1054 551.408,-20.5835"/>
<polygon fill="grey" stroke="grey" stroke-width="2" points="551.899,-24.0662 561.745,-20.1548 551.609,-17.0722 551.899,-24.0662"/>
</g>
<!-- 8 -->
<g id="node9" class="node"><title>8</title>
<path fill="none" stroke="#59d856" stroke-width="2" d="M621.5,-252C621.5,-252 508.5,-252 508.5,-252 502.5,-252 496.5,-246 496.5,-240 496.5,-240 496.5,-228 496.5,-228 496.5,-222 502.5,-216 508.5,-216 508.5,-216 621.5,-216 621.5,-216 627.5,-216 633.5,-222 633.5,-228 633.5,-228 633.5,-240 633.5,-240 633.5,-246 627.5,-252 621.5,-252"/>
<text text-anchor="middle" x="565" y="-231.5" font-family="sans" font-size="10.00">global_epistasis_binding</text>
</g>
<!-- 6&#45;&gt;8 -->
<g id="edge26" class="edge"><title>6&#45;&gt;8</title>
<path fill="none" stroke="grey" stroke-width="2" d="M580.056,-287.697C577.828,-279.898 575.145,-270.509 572.665,-261.829"/>
<polygon fill="grey" stroke="grey" stroke-width="2" points="576,-260.758 569.887,-252.104 569.269,-262.681 576,-260.758"/>
</g>
<!-- 10 -->
<g id="node11" class="node"><title>10</title>
<path fill="none" stroke="#c6d856" stroke-width="2" d="M723.5,-180C723.5,-180 638.5,-180 638.5,-180 632.5,-180 626.5,-174 626.5,-168 626.5,-168 626.5,-156 626.5,-156 626.5,-150 632.5,-144 638.5,-144 638.5,-144 723.5,-144 723.5,-144 729.5,-144 735.5,-150 735.5,-156 735.5,-156 735.5,-168 735.5,-168 735.5,-174 729.5,-180 723.5,-180"/>
<text text-anchor="middle" x="681" y="-159.5" font-family="sans" font-size="10.00">single_mut_effects</text>
</g>
<!-- 6&#45;&gt;10 -->
<g id="edge30" class="edge"><title>6&#45;&gt;10</title>
<path fill="none" stroke="grey" stroke-width="2" d="M608.124,-287.795C619.748,-278.246 633.372,-265.573 643,-252 656.533,-232.922 666.585,-208.273 672.94,-189.755"/>
<polygon fill="grey" stroke="grey" stroke-width="2" points="676.292,-190.764 676.089,-180.171 669.642,-188.579 676.292,-190.764"/>
</g>
<!-- 7&#45;&gt;0 -->
<g id="edge7" class="edge"><title>7&#45;&gt;0</title>
<path fill="none" stroke="grey" stroke-width="2" d="M865.526,-289.566C1007.49,-259.051 1278.09,-184.099 1176,-72 1142.28,-34.9757 806.26,-23.3447 668.474,-20.1145"/>
<polygon fill="grey" stroke="grey" stroke-width="2" points="668.195,-16.6074 658.118,-19.8789 668.036,-23.6056 668.195,-16.6074"/>
</g>
<!-- 9 -->
<g id="node10" class="node"><title>9</title>
<path fill="none" stroke="#8fd856" stroke-width="2" d="M870,-252C870,-252 740,-252 740,-252 734,-252 728,-246 728,-240 728,-240 728,-228 728,-228 728,-222 734,-216 740,-216 740,-216 870,-216 870,-216 876,-216 882,-222 882,-228 882,-228 882,-240 882,-240 882,-246 876,-252 870,-252"/>
<text text-anchor="middle" x="805" y="-231.5" font-family="sans" font-size="10.00">global_epistasis_expression</text>
</g>
<!-- 7&#45;&gt;9 -->
<g id="edge27" class="edge"><title>7&#45;&gt;9</title>
<path fill="none" stroke="grey" stroke-width="2" d="M789.944,-287.697C792.172,-279.898 794.855,-270.509 797.335,-261.829"/>
<polygon fill="grey" stroke="grey" stroke-width="2" points="800.731,-262.681 800.113,-252.104 794,-260.758 800.731,-262.681"/>
</g>
<!-- 7&#45;&gt;10 -->
<g id="edge31" class="edge"><title>7&#45;&gt;10</title>
<path fill="none" stroke="grey" stroke-width="2" d="M757.933,-287.915C744.824,-278.574 729.656,-266.051 719,-252 704.78,-233.251 694.745,-208.376 688.573,-189.692"/>
<polygon fill="grey" stroke="grey" stroke-width="2" points="691.873,-188.519 685.539,-180.026 685.194,-190.616 691.873,-188.519"/>
</g>
<!-- 8&#45;&gt;0 -->
<g id="edge8" class="edge"><title>8&#45;&gt;0</title>
<path fill="none" stroke="grey" stroke-width="2" d="M496.429,-216.806C406.162,-192.337 265.299,-141.332 323,-72 351.48,-37.7794 476.102,-25.5659 551.45,-21.2712"/>
<polygon fill="grey" stroke="grey" stroke-width="2" points="551.943,-24.7498 561.74,-20.7163 551.566,-17.7599 551.943,-24.7498"/>
</g>
<!-- 8&#45;&gt;10 -->
<g id="edge28" class="edge"><title>8&#45;&gt;10</title>
<path fill="none" stroke="grey" stroke-width="2" d="M593.377,-215.876C608.544,-206.724 627.405,-195.342 643.739,-185.485"/>
<polygon fill="grey" stroke="grey" stroke-width="2" points="645.761,-188.353 652.514,-180.19 642.144,-182.36 645.761,-188.353"/>
</g>
<!-- 9&#45;&gt;0 -->
<g id="edge9" class="edge"><title>9&#45;&gt;0</title>
<path fill="none" stroke="grey" stroke-width="2" d="M882.156,-224.74C1008.48,-208.36 1237.37,-165.001 1153,-72 1120.9,-36.617 802.168,-24.0868 668.507,-20.3648"/>
<polygon fill="grey" stroke="grey" stroke-width="2" points="668.537,-16.8645 658.445,-20.0916 668.347,-23.8619 668.537,-16.8645"/>
</g>
<!-- 9&#45;&gt;10 -->
<g id="edge29" class="edge"><title>9&#45;&gt;10</title>
<path fill="none" stroke="grey" stroke-width="2" d="M774.666,-215.876C758.303,-206.639 737.917,-195.131 720.346,-185.212"/>
<polygon fill="grey" stroke="grey" stroke-width="2" points="721.879,-182.058 711.45,-180.19 718.438,-188.154 721.879,-182.058"/>
</g>
<!-- 10&#45;&gt;0 -->
<g id="edge10" class="edge"><title>10&#45;&gt;0</title>
<path fill="none" stroke="grey" stroke-width="2" d="M626.428,-160.796C539.424,-159.182 375.361,-150.429 339,-108 278.062,-36.8905 455.037,-22.2729 551.681,-19.4889"/>
<polygon fill="grey" stroke="grey" stroke-width="2" points="552.002,-22.982 561.91,-19.2296 551.825,-15.9843 552.002,-22.982"/>
</g>
<!-- 11 -->
<g id="node12" class="node"><title>11</title>
<path fill="none" stroke="#d8cb56" stroke-width="2" d="M441.5,-108C441.5,-108 360.5,-108 360.5,-108 354.5,-108 348.5,-102 348.5,-96 348.5,-96 348.5,-84 348.5,-84 348.5,-78 354.5,-72 360.5,-72 360.5,-72 441.5,-72 441.5,-72 447.5,-72 453.5,-78 453.5,-84 453.5,-84 453.5,-96 453.5,-96 453.5,-102 447.5,-108 441.5,-108"/>
<text text-anchor="middle" x="401" y="-87.5" font-family="sans" font-size="10.00">structure_function</text>
</g>
<!-- 10&#45;&gt;11 -->
<g id="edge32" class="edge"><title>10&#45;&gt;11</title>
<path fill="none" stroke="grey" stroke-width="2" d="M626.239,-148.153C584.327,-138.214 524.847,-123.881 463.583,-108.115"/>
<polygon fill="grey" stroke="grey" stroke-width="2" points="464.295,-104.684 453.737,-105.573 462.545,-111.462 464.295,-104.684"/>
</g>
<!-- 12 -->
<g id="node13" class="node"><title>12</title>
<path fill="none" stroke="#afd856" stroke-width="2" d="M594,-108C594,-108 484,-108 484,-108 478,-108 472,-102 472,-96 472,-96 472,-84 472,-84 472,-78 478,-72 484,-72 484,-72 594,-72 594,-72 600,-72 606,-78 606,-84 606,-84 606,-96 606,-96 606,-102 600,-108 594,-108"/>
<text text-anchor="middle" x="539" y="-87.5" font-family="sans" font-size="10.00">logoplots_of_muteffects</text>
</g>
<!-- 10&#45;&gt;12 -->
<g id="edge33" class="edge"><title>10&#45;&gt;12</title>
<path fill="none" stroke="grey" stroke-width="2" d="M646.263,-143.876C627.181,-134.469 603.321,-122.708 582.953,-112.667"/>
<polygon fill="grey" stroke="grey" stroke-width="2" points="584.388,-109.472 573.871,-108.19 581.292,-115.751 584.388,-109.472"/>
</g>
<!-- 13 -->
<g id="node14" class="node"><title>13</title>
<path fill="none" stroke="#56c9d8" stroke-width="2" d="M725.5,-108C725.5,-108 636.5,-108 636.5,-108 630.5,-108 624.5,-102 624.5,-96 624.5,-96 624.5,-84 624.5,-84 624.5,-78 630.5,-72 636.5,-72 636.5,-72 725.5,-72 725.5,-72 731.5,-72 737.5,-78 737.5,-84 737.5,-84 737.5,-96 737.5,-96 737.5,-102 731.5,-108 725.5,-108"/>
<text text-anchor="middle" x="681" y="-87.5" font-family="sans" font-size="10.00">circulating_variants</text>
</g>
<!-- 10&#45;&gt;13 -->
<g id="edge34" class="edge"><title>10&#45;&gt;13</title>
<path fill="none" stroke="grey" stroke-width="2" d="M681,-143.697C681,-135.983 681,-126.712 681,-118.112"/>
<polygon fill="grey" stroke="grey" stroke-width="2" points="684.5,-118.104 681,-108.104 677.5,-118.104 684.5,-118.104"/>
</g>
<!-- 14 -->
<g id="node15" class="node"><title>14</title>
<path fill="none" stroke="#56d8a9" stroke-width="2" d="M850.5,-108C850.5,-108 767.5,-108 767.5,-108 761.5,-108 755.5,-102 755.5,-96 755.5,-96 755.5,-84 755.5,-84 755.5,-78 761.5,-72 767.5,-72 767.5,-72 850.5,-72 850.5,-72 856.5,-72 862.5,-78 862.5,-84 862.5,-84 862.5,-96 862.5,-96 862.5,-102 856.5,-108 850.5,-108"/>
<text text-anchor="middle" x="809" y="-87.5" font-family="sans" font-size="10.00">antibody_epitopes</text>
</g>
<!-- 10&#45;&gt;14 -->
<g id="edge35" class="edge"><title>10&#45;&gt;14</title>
<path fill="none" stroke="grey" stroke-width="2" d="M712.312,-143.876C729.203,-134.639 750.247,-123.131 768.385,-113.212"/>
<polygon fill="grey" stroke="grey" stroke-width="2" points="770.473,-116.059 777.567,-108.19 767.114,-109.917 770.473,-116.059"/>
</g>
<!-- 15 -->
<g id="node16" class="node"><title>15</title>
<path fill="none" stroke="#d88d56" stroke-width="2" d="M995.5,-108C995.5,-108 892.5,-108 892.5,-108 886.5,-108 880.5,-102 880.5,-96 880.5,-96 880.5,-84 880.5,-84 880.5,-78 886.5,-72 892.5,-72 892.5,-72 995.5,-72 995.5,-72 1001.5,-72 1007.5,-78 1007.5,-84 1007.5,-84 1007.5,-96 1007.5,-96 1007.5,-102 1001.5,-108 995.5,-108"/>
<text text-anchor="middle" x="944" y="-87.5" font-family="sans" font-size="10.00">sarbecovirus_diversity</text>
</g>
<!-- 10&#45;&gt;15 -->
<g id="edge36" class="edge"><title>10&#45;&gt;15</title>
<path fill="none" stroke="grey" stroke-width="2" d="M735.813,-146.411C774.919,-136.003 827.933,-121.892 870.676,-110.516"/>
<polygon fill="grey" stroke="grey" stroke-width="2" points="871.703,-113.865 880.466,-107.91 869.902,-107.1 871.703,-113.865"/>
</g>
<!-- 16 -->
<g id="node17" class="node"><title>16</title>
<path fill="none" stroke="#5673d8" stroke-width="2" d="M1132,-108C1132,-108 1038,-108 1038,-108 1032,-108 1026,-102 1026,-96 1026,-96 1026,-84 1026,-84 1026,-78 1032,-72 1038,-72 1038,-72 1132,-72 1132,-72 1138,-72 1144,-78 1144,-84 1144,-84 1144,-96 1144,-96 1144,-102 1138,-108 1132,-108"/>
<text text-anchor="middle" x="1085" y="-87.5" font-family="sans" font-size="10.00">interactive_heatmap</text>
</g>
<!-- 10&#45;&gt;16 -->
<g id="edge37" class="edge"><title>10&#45;&gt;16</title>
<path fill="none" stroke="grey" stroke-width="2" d="M735.679,-153.891C800.308,-145.151 911.271,-129.089 1015.65,-108.183"/>
<polygon fill="grey" stroke="grey" stroke-width="2" points="1016.62,-111.558 1025.73,-106.145 1015.24,-104.697 1016.62,-111.558"/>
</g>
<!-- 11&#45;&gt;0 -->
<g id="edge11" class="edge"><title>11&#45;&gt;0</title>
<path fill="none" stroke="grey" stroke-width="2" d="M451.86,-71.9656C482.192,-61.8066 520.796,-48.877 552.269,-38.3358"/>
<polygon fill="grey" stroke="grey" stroke-width="2" points="553.42,-41.6415 561.79,-35.1468 551.196,-35.0039 553.42,-41.6415"/>
</g>
<!-- 12&#45;&gt;0 -->
<g id="edge12" class="edge"><title>12&#45;&gt;0</title>
<path fill="none" stroke="grey" stroke-width="2" d="M556.551,-71.6966C565.234,-63.135 575.863,-52.6562 585.348,-43.3045"/>
<polygon fill="grey" stroke="grey" stroke-width="2" points="587.988,-45.6175 592.651,-36.1043 583.073,-40.6327 587.988,-45.6175"/>
</g>
<!-- 13&#45;&gt;0 -->
<g id="edge13" class="edge"><title>13&#45;&gt;0</title>
<path fill="none" stroke="grey" stroke-width="2" d="M663.449,-71.6966C654.766,-63.135 644.137,-52.6562 634.652,-43.3045"/>
<polygon fill="grey" stroke="grey" stroke-width="2" points="636.927,-40.6327 627.349,-36.1043 632.012,-45.6175 636.927,-40.6327"/>
</g>
<!-- 14&#45;&gt;0 -->
<g id="edge14" class="edge"><title>14&#45;&gt;0</title>
<path fill="none" stroke="grey" stroke-width="2" d="M760.574,-71.9656C732.665,-62.1487 697.403,-49.7446 668.019,-39.4086"/>
<polygon fill="grey" stroke="grey" stroke-width="2" points="668.893,-36.006 658.298,-35.9894 666.57,-42.6094 668.893,-36.006"/>
</g>
<!-- 15&#45;&gt;0 -->
<g id="edge15" class="edge"><title>15&#45;&gt;0</title>
<path fill="none" stroke="grey" stroke-width="2" d="M880.422,-73.8712C877.578,-73.2313 874.76,-72.6049 872,-72 802.157,-56.6946 721.484,-40.6149 668.314,-30.2366"/>
<polygon fill="grey" stroke="grey" stroke-width="2" points="668.872,-26.7795 658.387,-28.3028 667.533,-33.6504 668.872,-26.7795"/>
</g>
<!-- 16&#45;&gt;0 -->
<g id="edge16" class="edge"><title>16&#45;&gt;0</title>
<path fill="none" stroke="grey" stroke-width="2" d="M1025.75,-73.7597C1022.8,-73.1348 1019.87,-72.5436 1017,-72 893.883,-48.6748 747.859,-32.3859 668.494,-24.4729"/>
<polygon fill="grey" stroke="grey" stroke-width="2" points="668.511,-20.9576 658.216,-23.4579 667.823,-27.9238 668.511,-20.9576"/>
</g>
<!-- 17 -->
<g id="node18" class="node"><title>17</title>
<path fill="none" stroke="#56d892" stroke-width="2" d="M196,-612C196,-612 76,-612 76,-612 70,-612 64,-606 64,-600 64,-600 64,-588 64,-588 64,-582 70,-576 76,-576 76,-576 196,-576 196,-576 202,-576 208,-582 208,-588 208,-588 208,-600 208,-600 208,-606 202,-612 196,-612"/>
<text text-anchor="middle" x="136" y="-597" font-family="sans" font-size="10.00">build_ccs</text>
<text text-anchor="middle" x="136" y="-586" font-family="sans" font-size="10.00">pacbioRun: lib1_200415_A</text>
</g>
<!-- 17&#45;&gt;2 -->
<g id="edge17" class="edge"><title>17&#45;&gt;2</title>
<path fill="none" stroke="grey" stroke-width="2" d="M195.134,-575.966C236.917,-563.929 292.202,-548.004 331.202,-536.769"/>
<polygon fill="grey" stroke="grey" stroke-width="2" points="332.605,-540.007 341.246,-533.876 330.668,-533.281 332.605,-540.007"/>
</g>
<!-- 18 -->
<g id="node19" class="node"><title>18</title>
<path fill="none" stroke="#56d892" stroke-width="2" d="M358,-612C358,-612 238,-612 238,-612 232,-612 226,-606 226,-600 226,-600 226,-588 226,-588 226,-582 232,-576 238,-576 238,-576 358,-576 358,-576 364,-576 370,-582 370,-588 370,-588 370,-600 370,-600 370,-606 364,-612 358,-612"/>
<text text-anchor="middle" x="298" y="-597" font-family="sans" font-size="10.00">build_ccs</text>
<text text-anchor="middle" x="298" y="-586" font-family="sans" font-size="10.00">pacbioRun: lib1_200415_B</text>
</g>
<!-- 18&#45;&gt;2 -->
<g id="edge18" class="edge"><title>18&#45;&gt;2</title>
<path fill="none" stroke="grey" stroke-width="2" d="M318.022,-575.697C328.126,-566.965 340.536,-556.24 351.518,-546.75"/>
<polygon fill="grey" stroke="grey" stroke-width="2" points="353.93,-549.291 359.208,-540.104 349.353,-543.995 353.93,-549.291"/>
</g>
<!-- 19 -->
<g id="node20" class="node"><title>19</title>
<path fill="none" stroke="#56d892" stroke-width="2" d="M520,-612C520,-612 400,-612 400,-612 394,-612 388,-606 388,-600 388,-600 388,-588 388,-588 388,-582 394,-576 400,-576 400,-576 520,-576 520,-576 526,-576 532,-582 532,-588 532,-588 532,-600 532,-600 532,-606 526,-612 520,-612"/>
<text text-anchor="middle" x="460" y="-597" font-family="sans" font-size="10.00">build_ccs</text>
<text text-anchor="middle" x="460" y="-586" font-family="sans" font-size="10.00">pacbioRun: lib2_200415_A</text>
</g>
<!-- 19&#45;&gt;2 -->
<g id="edge19" class="edge"><title>19&#45;&gt;2</title>
<path fill="none" stroke="grey" stroke-width="2" d="M439.978,-575.697C429.874,-566.965 417.464,-556.24 406.482,-546.75"/>
<polygon fill="grey" stroke="grey" stroke-width="2" points="408.647,-543.995 398.792,-540.104 404.07,-549.291 408.647,-543.995"/>
</g>
<!-- 20 -->
<g id="node21" class="node"><title>20</title>
<path fill="none" stroke="#56d892" stroke-width="2" d="M682,-612C682,-612 562,-612 562,-612 556,-612 550,-606 550,-600 550,-600 550,-588 550,-588 550,-582 556,-576 562,-576 562,-576 682,-576 682,-576 688,-576 694,-582 694,-588 694,-588 694,-600 694,-600 694,-606 688,-612 682,-612"/>
<text text-anchor="middle" x="622" y="-597" font-family="sans" font-size="10.00">build_ccs</text>
<text text-anchor="middle" x="622" y="-586" font-family="sans" font-size="10.00">pacbioRun: lib2_200415_B</text>
</g>
<!-- 20&#45;&gt;2 -->
<g id="edge20" class="edge"><title>20&#45;&gt;2</title>
<path fill="none" stroke="grey" stroke-width="2" d="M562.866,-575.966C521.083,-563.929 465.798,-548.004 426.798,-536.769"/>
<polygon fill="grey" stroke="grey" stroke-width="2" points="427.332,-533.281 416.754,-533.876 425.395,-540.007 427.332,-533.281"/>
</g>
</g>
</svg>
