<?xml version="1.0" encoding="UTF-8" standalone="no"?>
<!DOCTYPE svg PUBLIC "-//W3C//DTD SVG 1.1//EN"
 "http://www.w3.org/Graphics/SVG/1.1/DTD/svg11.dtd">
<!-- Generated by graphviz version 2.38.0 (20140413.2041)
 -->
<!-- Title: snakemake_dag Pages: 1 -->
<svg width="891pt" height="476pt"
 viewBox="0.00 0.00 891.00 476.00" xmlns="http://www.w3.org/2000/svg" xmlns:xlink="http://www.w3.org/1999/xlink">
<g id="graph0" class="graph" transform="scale(1 1) rotate(0) translate(4 472)">
<title>snakemake_dag</title>
<polygon fill="white" stroke="none" points="-4,4 -4,-472 887,-472 887,4 -4,4"/>
<!-- 0 -->
<g id="node1" class="node"><title>0</title>
<path fill="none" stroke="#568ad8" stroke-width="2" d="M238,-36C238,-36 208,-36 208,-36 202,-36 196,-30 196,-24 196,-24 196,-12 196,-12 196,-6 202,-0 208,-0 208,-0 238,-0 238,-0 244,-0 250,-6 250,-12 250,-12 250,-24 250,-24 250,-30 244,-36 238,-36"/>
<text text-anchor="middle" x="223" y="-15.5" font-family="sans" font-size="10.00">all</text>
</g>
<!-- 1 -->
<g id="node2" class="node"><title>1</title>
<path fill="none" stroke="#d8bc56" stroke-width="2" d="M441,-108C441,-108 369,-108 369,-108 363,-108 357,-102 357,-96 357,-96 357,-84 357,-84 357,-78 363,-72 369,-72 369,-72 441,-72 441,-72 447,-72 453,-78 453,-84 453,-84 453,-96 453,-96 453,-102 447,-108 441,-108"/>
<text text-anchor="middle" x="405" y="-87.5" font-family="sans" font-size="10.00">make_summary</text>
</g>
<!-- 1&#45;&gt;0 -->
<g id="edge1" class="edge"><title>1&#45;&gt;0</title>
<path fill="none" stroke="grey" stroke-width="2" d="M360.478,-71.8761C329.466,-59.9485 288.61,-44.2347 259.515,-33.0444"/>
<polygon fill="grey" stroke="grey" stroke-width="2" points="260.72,-29.7579 250.13,-29.4348 258.208,-36.2914 260.72,-29.7579"/>
</g>
<!-- 2 -->
<g id="node3" class="node"><title>2</title>
<path fill="none" stroke="#56c1d8" stroke-width="2" d="M112,-180C112,-180 12,-180 12,-180 6,-180 7.10543e-15,-174 7.10543e-15,-168 7.10543e-15,-168 7.10543e-15,-156 7.10543e-15,-156 7.10543e-15,-150 6,-144 12,-144 12,-144 112,-144 112,-144 118,-144 124,-150 124,-156 124,-156 124,-168 124,-168 124,-174 118,-180 112,-180"/>
<text text-anchor="middle" x="62" y="-159.5" font-family="sans" font-size="10.00">compute_Titeseq_Kds</text>
</g>
<!-- 2&#45;&gt;0 -->
<g id="edge2" class="edge"><title>2&#45;&gt;0</title>
<path fill="none" stroke="grey" stroke-width="2" d="M81.4204,-143.871C109.948,-118.711 163.301,-71.6535 195.742,-43.0415"/>
<polygon fill="grey" stroke="grey" stroke-width="2" points="198.326,-45.4289 203.511,-36.1893 193.696,-40.1791 198.326,-45.4289"/>
</g>
<!-- 2&#45;&gt;1 -->
<g id="edge9" class="edge"><title>2&#45;&gt;1</title>
<path fill="none" stroke="grey" stroke-width="2" d="M124.304,-145.924C127.241,-145.263 130.151,-144.618 133,-144 206.473,-128.053 291.602,-111.826 346.778,-101.603"/>
<polygon fill="grey" stroke="grey" stroke-width="2" points="347.524,-105.024 356.722,-99.765 346.252,-98.1405 347.524,-105.024"/>
</g>
<!-- 3 -->
<g id="node4" class="node"><title>3</title>
<path fill="none" stroke="#bed856" stroke-width="2" d="M291.5,-180C291.5,-180 154.5,-180 154.5,-180 148.5,-180 142.5,-174 142.5,-168 142.5,-168 142.5,-156 142.5,-156 142.5,-150 148.5,-144 154.5,-144 154.5,-144 291.5,-144 291.5,-144 297.5,-144 303.5,-150 303.5,-156 303.5,-156 303.5,-168 303.5,-168 303.5,-174 297.5,-180 291.5,-180"/>
<text text-anchor="middle" x="223" y="-159.5" font-family="sans" font-size="10.00">compute_expression_meanFs</text>
</g>
<!-- 3&#45;&gt;0 -->
<g id="edge3" class="edge"><title>3&#45;&gt;0</title>
<path fill="none" stroke="grey" stroke-width="2" d="M223,-143.871C223,-119.67 223,-75.2108 223,-46.3932"/>
<polygon fill="grey" stroke="grey" stroke-width="2" points="226.5,-46.1892 223,-36.1893 219.5,-46.1893 226.5,-46.1892"/>
</g>
<!-- 3&#45;&gt;1 -->
<g id="edge10" class="edge"><title>3&#45;&gt;1</title>
<path fill="none" stroke="grey" stroke-width="2" d="M267.522,-143.876C292.734,-134.179 324.453,-121.98 351.069,-111.743"/>
<polygon fill="grey" stroke="grey" stroke-width="2" points="352.545,-114.925 360.622,-108.068 350.032,-108.391 352.545,-114.925"/>
</g>
<!-- 4 -->
<g id="node5" class="node"><title>4</title>
<path fill="none" stroke="#56d88a" stroke-width="2" d="M378,-180C378,-180 334,-180 334,-180 328,-180 322,-174 322,-168 322,-168 322,-156 322,-156 322,-150 328,-144 334,-144 334,-144 378,-144 378,-144 384,-144 390,-150 390,-156 390,-156 390,-168 390,-168 390,-174 384,-180 378,-180"/>
<text text-anchor="middle" x="356" y="-159.5" font-family="sans" font-size="10.00">make_dag</text>
</g>
<!-- 4&#45;&gt;1 -->
<g id="edge4" class="edge"><title>4&#45;&gt;1</title>
<path fill="none" stroke="grey" stroke-width="2" d="M368.112,-143.697C373.868,-135.474 380.862,-125.483 387.206,-116.421"/>
<polygon fill="grey" stroke="grey" stroke-width="2" points="390.16,-118.304 393.027,-108.104 384.425,-114.29 390.16,-118.304"/>
</g>
<!-- 5 -->
<g id="node6" class="node"><title>5</title>
<path fill="none" stroke="#d88d56" stroke-width="2" d="M593.5,-396C593.5,-396 542.5,-396 542.5,-396 536.5,-396 530.5,-390 530.5,-384 530.5,-384 530.5,-372 530.5,-372 530.5,-366 536.5,-360 542.5,-360 542.5,-360 593.5,-360 593.5,-360 599.5,-360 605.5,-366 605.5,-372 605.5,-372 605.5,-384 605.5,-384 605.5,-390 599.5,-396 593.5,-396"/>
<text text-anchor="middle" x="568" y="-375.5" font-family="sans" font-size="10.00">process_ccs</text>
</g>
<!-- 5&#45;&gt;1 -->
<g id="edge5" class="edge"><title>5&#45;&gt;1</title>
<path fill="none" stroke="grey" stroke-width="2" d="M575.066,-359.665C578.838,-349.47 583.088,-336.22 585,-324 597.653,-243.128 601.066,-204.566 546,-144 524.598,-120.46 491.695,-107.324 463.055,-100.02"/>
<polygon fill="grey" stroke="grey" stroke-width="2" points="463.665,-96.568 453.128,-97.6723 462.054,-103.38 463.665,-96.568"/>
</g>
<!-- 6 -->
<g id="node7" class="node"><title>6</title>
<path fill="none" stroke="#88d856" stroke-width="2" d="M564,-324C564,-324 502,-324 502,-324 496,-324 490,-318 490,-312 490,-312 490,-300 490,-300 490,-294 496,-288 502,-288 502,-288 564,-288 564,-288 570,-288 576,-294 576,-300 576,-300 576,-312 576,-312 576,-318 570,-324 564,-324"/>
<text text-anchor="middle" x="533" y="-303.5" font-family="sans" font-size="10.00">build_variants</text>
</g>
<!-- 5&#45;&gt;6 -->
<g id="edge17" class="edge"><title>5&#45;&gt;6</title>
<path fill="none" stroke="grey" stroke-width="2" d="M559.348,-359.697C555.364,-351.728 550.55,-342.1 546.132,-333.264"/>
<polygon fill="grey" stroke="grey" stroke-width="2" points="549.155,-331.483 541.552,-324.104 542.894,-334.614 549.155,-331.483"/>
</g>
<!-- 6&#45;&gt;1 -->
<g id="edge6" class="edge"><title>6&#45;&gt;1</title>
<path fill="none" stroke="grey" stroke-width="2" d="M537.514,-287.9C544.776,-256.346 555.361,-188.163 525,-144 510.662,-123.144 486.161,-110.408 463.021,-102.672"/>
<polygon fill="grey" stroke="grey" stroke-width="2" points="463.808,-99.2526 453.221,-99.654 461.748,-105.942 463.808,-99.2526"/>
</g>
<!-- 7 -->
<g id="node8" class="node"><title>7</title>
<path fill="none" stroke="#59d856" stroke-width="2" d="M486.5,-252C486.5,-252 421.5,-252 421.5,-252 415.5,-252 409.5,-246 409.5,-240 409.5,-240 409.5,-228 409.5,-228 409.5,-222 415.5,-216 421.5,-216 421.5,-216 486.5,-216 486.5,-216 492.5,-216 498.5,-222 498.5,-228 498.5,-228 498.5,-240 498.5,-240 498.5,-246 492.5,-252 486.5,-252"/>
<text text-anchor="middle" x="454" y="-231.5" font-family="sans" font-size="10.00">count_variants</text>
</g>
<!-- 6&#45;&gt;7 -->
<g id="edge18" class="edge"><title>6&#45;&gt;7</title>
<path fill="none" stroke="grey" stroke-width="2" d="M513.472,-287.697C503.618,-278.965 491.514,-268.24 480.804,-258.75"/>
<polygon fill="grey" stroke="grey" stroke-width="2" points="483.109,-256.117 473.303,-252.104 478.467,-261.356 483.109,-256.117"/>
</g>
<!-- 7&#45;&gt;1 -->
<g id="edge7" class="edge"><title>7&#45;&gt;1</title>
<path fill="none" stroke="grey" stroke-width="2" d="M479.38,-215.955C490.715,-206.786 502.878,-194.4 509,-180 515.26,-165.275 517.359,-157.643 509,-144 498.496,-126.858 480.515,-115.042 462.429,-107"/>
<polygon fill="grey" stroke="grey" stroke-width="2" points="463.581,-103.689 453.001,-103.129 460.923,-110.165 463.581,-103.689"/>
</g>
<!-- 7&#45;&gt;2 -->
<g id="edge11" class="edge"><title>7&#45;&gt;2</title>
<path fill="none" stroke="grey" stroke-width="2" d="M409.42,-226.667C349.204,-217.887 238.34,-200.927 134.325,-180.196"/>
<polygon fill="grey" stroke="grey" stroke-width="2" points="134.776,-176.717 124.282,-178.178 133.397,-183.58 134.776,-176.717"/>
</g>
<!-- 7&#45;&gt;3 -->
<g id="edge12" class="edge"><title>7&#45;&gt;3</title>
<path fill="none" stroke="grey" stroke-width="2" d="M409.461,-219.503C375.257,-209.138 327.497,-194.666 288.877,-182.963"/>
<polygon fill="grey" stroke="grey" stroke-width="2" points="289.854,-179.602 279.269,-180.051 287.824,-186.301 289.854,-179.602"/>
</g>
<!-- 8 -->
<g id="node9" class="node"><title>8</title>
<path fill="none" stroke="#d85656" stroke-width="2" d="M488,-180C488,-180 420,-180 420,-180 414,-180 408,-174 408,-168 408,-168 408,-156 408,-156 408,-150 414,-144 420,-144 420,-144 488,-144 488,-144 494,-144 500,-150 500,-156 500,-156 500,-168 500,-168 500,-174 494,-180 488,-180"/>
<text text-anchor="middle" x="454" y="-159.5" font-family="sans" font-size="10.00">analyze_counts</text>
</g>
<!-- 7&#45;&gt;8 -->
<g id="edge19" class="edge"><title>7&#45;&gt;8</title>
<path fill="none" stroke="grey" stroke-width="2" d="M454,-215.697C454,-207.983 454,-198.712 454,-190.112"/>
<polygon fill="grey" stroke="grey" stroke-width="2" points="457.5,-190.104 454,-180.104 450.5,-190.104 457.5,-190.104"/>
</g>
<!-- 8&#45;&gt;1 -->
<g id="edge8" class="edge"><title>8&#45;&gt;1</title>
<path fill="none" stroke="grey" stroke-width="2" d="M441.888,-143.697C436.132,-135.474 429.138,-125.483 422.794,-116.421"/>
<polygon fill="grey" stroke="grey" stroke-width="2" points="425.575,-114.29 416.973,-108.104 419.84,-118.304 425.575,-114.29"/>
</g>
<!-- 9 -->
<g id="node10" class="node"><title>9</title>
<path fill="none" stroke="#56d8c1" stroke-width="2" d="M385,-468C385,-468 265,-468 265,-468 259,-468 253,-462 253,-456 253,-456 253,-444 253,-444 253,-438 259,-432 265,-432 265,-432 385,-432 385,-432 391,-432 397,-438 397,-444 397,-444 397,-456 397,-456 397,-462 391,-468 385,-468"/>
<text text-anchor="middle" x="325" y="-453" font-family="sans" font-size="10.00">build_ccs</text>
<text text-anchor="middle" x="325" y="-442" font-family="sans" font-size="10.00">pacbioRun: lib1_200415_A</text>
</g>
<!-- 9&#45;&gt;5 -->
<g id="edge13" class="edge"><title>9&#45;&gt;5</title>
<path fill="none" stroke="grey" stroke-width="2" d="M384.134,-431.966C425.917,-419.929 481.202,-404.004 520.202,-392.769"/>
<polygon fill="grey" stroke="grey" stroke-width="2" points="521.605,-396.007 530.246,-389.876 519.668,-389.281 521.605,-396.007"/>
</g>
<!-- 10 -->
<g id="node11" class="node"><title>10</title>
<path fill="none" stroke="#56d8c1" stroke-width="2" d="M547,-468C547,-468 427,-468 427,-468 421,-468 415,-462 415,-456 415,-456 415,-444 415,-444 415,-438 421,-432 427,-432 427,-432 547,-432 547,-432 553,-432 559,-438 559,-444 559,-444 559,-456 559,-456 559,-462 553,-468 547,-468"/>
<text text-anchor="middle" x="487" y="-453" font-family="sans" font-size="10.00">build_ccs</text>
<text text-anchor="middle" x="487" y="-442" font-family="sans" font-size="10.00">pacbioRun: lib1_200415_B</text>
</g>
<!-- 10&#45;&gt;5 -->
<g id="edge14" class="edge"><title>10&#45;&gt;5</title>
<path fill="none" stroke="grey" stroke-width="2" d="M507.022,-431.697C517.126,-422.965 529.536,-412.24 540.518,-402.75"/>
<polygon fill="grey" stroke="grey" stroke-width="2" points="542.93,-405.291 548.208,-396.104 538.353,-399.995 542.93,-405.291"/>
</g>
<!-- 11 -->
<g id="node12" class="node"><title>11</title>
<path fill="none" stroke="#56d8c1" stroke-width="2" d="M709,-468C709,-468 589,-468 589,-468 583,-468 577,-462 577,-456 577,-456 577,-444 577,-444 577,-438 583,-432 589,-432 589,-432 709,-432 709,-432 715,-432 721,-438 721,-444 721,-444 721,-456 721,-456 721,-462 715,-468 709,-468"/>
<text text-anchor="middle" x="649" y="-453" font-family="sans" font-size="10.00">build_ccs</text>
<text text-anchor="middle" x="649" y="-442" font-family="sans" font-size="10.00">pacbioRun: lib2_200415_A</text>
</g>
<!-- 11&#45;&gt;5 -->
<g id="edge15" class="edge"><title>11&#45;&gt;5</title>
<path fill="none" stroke="grey" stroke-width="2" d="M628.978,-431.697C618.874,-422.965 606.464,-412.24 595.482,-402.75"/>
<polygon fill="grey" stroke="grey" stroke-width="2" points="597.647,-399.995 587.792,-396.104 593.07,-405.291 597.647,-399.995"/>
</g>
<!-- 12 -->
<g id="node13" class="node"><title>12</title>
<path fill="none" stroke="#56d8c1" stroke-width="2" d="M871,-468C871,-468 751,-468 751,-468 745,-468 739,-462 739,-456 739,-456 739,-444 739,-444 739,-438 745,-432 751,-432 751,-432 871,-432 871,-432 877,-432 883,-438 883,-444 883,-444 883,-456 883,-456 883,-462 877,-468 871,-468"/>
<text text-anchor="middle" x="811" y="-453" font-family="sans" font-size="10.00">build_ccs</text>
<text text-anchor="middle" x="811" y="-442" font-family="sans" font-size="10.00">pacbioRun: lib2_200415_B</text>
</g>
<!-- 12&#45;&gt;5 -->
<g id="edge16" class="edge"><title>12&#45;&gt;5</title>
<path fill="none" stroke="grey" stroke-width="2" d="M751.866,-431.966C710.083,-419.929 654.798,-404.004 615.798,-392.769"/>
<polygon fill="grey" stroke="grey" stroke-width="2" points="616.332,-389.281 605.754,-389.876 614.395,-396.007 616.332,-389.281"/>
</g>
</g>
</svg>
