<?xml version="1.0" encoding="UTF-8" standalone="no"?>
<!DOCTYPE svg PUBLIC "-//W3C//DTD SVG 1.1//EN"
 "http://www.w3.org/Graphics/SVG/1.1/DTD/svg11.dtd">
<!-- Generated by graphviz version 2.38.0 (20140413.2041)
 -->
<!-- Title: snakemake_dag Pages: 1 -->
<svg width="874pt" height="620pt"
 viewBox="0.00 0.00 874.00 620.00" xmlns="http://www.w3.org/2000/svg" xmlns:xlink="http://www.w3.org/1999/xlink">
<g id="graph0" class="graph" transform="scale(1 1) rotate(0) translate(4 616)">
<title>snakemake_dag</title>
<polygon fill="white" stroke="none" points="-4,4 -4,-616 870,-616 870,4 -4,4"/>
<!-- 0 -->
<g id="node1" class="node"><title>0</title>
<path fill="none" stroke="#56d8d0" stroke-width="2" d="M495,-36C495,-36 423,-36 423,-36 417,-36 411,-30 411,-24 411,-24 411,-12 411,-12 411,-6 417,-0 423,-0 423,-0 495,-0 495,-0 501,-0 507,-6 507,-12 507,-12 507,-24 507,-24 507,-30 501,-36 495,-36"/>
<text text-anchor="middle" x="459" y="-15.5" font-family="sans" font-size="10.00">make_summary</text>
</g>
<!-- 1 -->
<g id="node2" class="node"><title>1</title>
<path fill="none" stroke="#afd856" stroke-width="2" d="M69,-108C69,-108 25,-108 25,-108 19,-108 13,-102 13,-96 13,-96 13,-84 13,-84 13,-78 19,-72 25,-72 25,-72 69,-72 69,-72 75,-72 81,-78 81,-84 81,-84 81,-96 81,-96 81,-102 75,-108 69,-108"/>
<text text-anchor="middle" x="47" y="-87.5" font-family="sans" font-size="10.00">make_dag</text>
</g>
<!-- 1&#45;&gt;0 -->
<g id="edge1" class="edge"><title>1&#45;&gt;0</title>
<path fill="none" stroke="grey" stroke-width="2" d="M81.0997,-76.0066C85.7291,-74.5129 90.4516,-73.1251 95,-72 201.06,-45.7657 327.933,-30.925 400.43,-23.9661"/>
<polygon fill="grey" stroke="grey" stroke-width="2" points="401.096,-27.419 410.723,-22.9962 400.439,-20.4499 401.096,-27.419"/>
</g>
<!-- 2 -->
<g id="node3" class="node"><title>2</title>
<path fill="none" stroke="#56d86b" stroke-width="2" d="M340.5,-540C340.5,-540 289.5,-540 289.5,-540 283.5,-540 277.5,-534 277.5,-528 277.5,-528 277.5,-516 277.5,-516 277.5,-510 283.5,-504 289.5,-504 289.5,-504 340.5,-504 340.5,-504 346.5,-504 352.5,-510 352.5,-516 352.5,-516 352.5,-528 352.5,-528 352.5,-534 346.5,-540 340.5,-540"/>
<text text-anchor="middle" x="315" y="-519.5" font-family="sans" font-size="10.00">process_ccs</text>
</g>
<!-- 2&#45;&gt;0 -->
<g id="edge2" class="edge"><title>2&#45;&gt;0</title>
<path fill="none" stroke="grey" stroke-width="2" d="M277.216,-513.077C217.746,-498.145 109,-459.794 109,-379 109,-379 109,-379 109,-161 109,-102.492 153.955,-98.7298 206,-72 267.751,-40.2855 347.251,-27.5467 400.503,-22.431"/>
<polygon fill="grey" stroke="grey" stroke-width="2" points="401.144,-25.8876 410.791,-21.5062 400.517,-18.9157 401.144,-25.8876"/>
</g>
<!-- 3 -->
<g id="node4" class="node"><title>3</title>
<path fill="none" stroke="#ced856" stroke-width="2" d="M520,-468C520,-468 458,-468 458,-468 452,-468 446,-462 446,-456 446,-456 446,-444 446,-444 446,-438 452,-432 458,-432 458,-432 520,-432 520,-432 526,-432 532,-438 532,-444 532,-444 532,-456 532,-456 532,-462 526,-468 520,-468"/>
<text text-anchor="middle" x="489" y="-447.5" font-family="sans" font-size="10.00">build_variants</text>
</g>
<!-- 2&#45;&gt;3 -->
<g id="edge18" class="edge"><title>2&#45;&gt;3</title>
<path fill="none" stroke="grey" stroke-width="2" d="M352.755,-505.811C377.522,-495.848 410.227,-482.69 437.386,-471.764"/>
<polygon fill="grey" stroke="grey" stroke-width="2" points="438.768,-474.981 446.739,-468.002 436.155,-468.487 438.768,-474.981"/>
</g>
<!-- 3&#45;&gt;0 -->
<g id="edge3" class="edge"><title>3&#45;&gt;0</title>
<path fill="none" stroke="grey" stroke-width="2" d="M532.247,-442.14C631.272,-425.213 866,-377.64 866,-307 866,-307 866,-307 866,-161 866,-114.027 848.4,-97.5739 809,-72 761.941,-41.455 603.98,-27.5208 517.243,-22.0405"/>
<polygon fill="grey" stroke="grey" stroke-width="2" points="517.226,-18.533 507.03,-21.4136 516.797,-25.5198 517.226,-18.533"/>
</g>
<!-- 4 -->
<g id="node5" class="node"><title>4</title>
<path fill="none" stroke="#56d8a9" stroke-width="2" d="M521.5,-396C521.5,-396 456.5,-396 456.5,-396 450.5,-396 444.5,-390 444.5,-384 444.5,-384 444.5,-372 444.5,-372 444.5,-366 450.5,-360 456.5,-360 456.5,-360 521.5,-360 521.5,-360 527.5,-360 533.5,-366 533.5,-372 533.5,-372 533.5,-384 533.5,-384 533.5,-390 527.5,-396 521.5,-396"/>
<text text-anchor="middle" x="489" y="-375.5" font-family="sans" font-size="10.00">count_variants</text>
</g>
<!-- 3&#45;&gt;4 -->
<g id="edge19" class="edge"><title>3&#45;&gt;4</title>
<path fill="none" stroke="grey" stroke-width="2" d="M489,-431.697C489,-423.983 489,-414.712 489,-406.112"/>
<polygon fill="grey" stroke="grey" stroke-width="2" points="492.5,-406.104 489,-396.104 485.5,-406.104 492.5,-406.104"/>
</g>
<!-- 4&#45;&gt;0 -->
<g id="edge4" class="edge"><title>4&#45;&gt;0</title>
<path fill="none" stroke="grey" stroke-width="2" d="M533.667,-377.889C625.72,-377.154 828,-361.182 828,-235 828,-235 828,-235 828,-161 828,-115.188 813.711,-98.0126 776,-72 735.064,-43.763 597.452,-29.1531 517.635,-22.8831"/>
<polygon fill="grey" stroke="grey" stroke-width="2" points="517.486,-19.3615 507.248,-22.0885 516.952,-26.3411 517.486,-19.3615"/>
</g>
<!-- 5 -->
<g id="node6" class="node"><title>5</title>
<path fill="none" stroke="#d89c56" stroke-width="2" d="M217,-180C217,-180 149,-180 149,-180 143,-180 137,-174 137,-168 137,-168 137,-156 137,-156 137,-150 143,-144 149,-144 149,-144 217,-144 217,-144 223,-144 229,-150 229,-156 229,-156 229,-168 229,-168 229,-174 223,-180 217,-180"/>
<text text-anchor="middle" x="183" y="-159.5" font-family="sans" font-size="10.00">analyze_counts</text>
</g>
<!-- 4&#45;&gt;5 -->
<g id="edge20" class="edge"><title>4&#45;&gt;5</title>
<path fill="none" stroke="grey" stroke-width="2" d="M444.192,-365.264C413.313,-356.232 371.897,-342.213 338,-324 291.332,-298.925 279.41,-290.484 243,-252 224.923,-232.893 208.539,-207.799 197.477,-189.129"/>
<polygon fill="grey" stroke="grey" stroke-width="2" points="200.388,-187.171 192.344,-180.276 194.333,-190.682 200.388,-187.171"/>
</g>
<!-- 6 -->
<g id="node7" class="node"><title>6</title>
<path fill="none" stroke="#569ad8" stroke-width="2" d="M459,-324C459,-324 359,-324 359,-324 353,-324 347,-318 347,-312 347,-312 347,-300 347,-300 347,-294 353,-288 359,-288 359,-288 459,-288 459,-288 465,-288 471,-294 471,-300 471,-300 471,-312 471,-312 471,-318 465,-324 459,-324"/>
<text text-anchor="middle" x="409" y="-303.5" font-family="sans" font-size="10.00">compute_Titeseq_Kds</text>
</g>
<!-- 4&#45;&gt;6 -->
<g id="edge21" class="edge"><title>4&#45;&gt;6</title>
<path fill="none" stroke="grey" stroke-width="2" d="M469.225,-359.697C459.246,-350.965 446.989,-340.24 436.143,-330.75"/>
<polygon fill="grey" stroke="grey" stroke-width="2" points="438.378,-328.055 428.548,-324.104 433.769,-333.323 438.378,-328.055"/>
</g>
<!-- 7 -->
<g id="node8" class="node"><title>7</title>
<path fill="none" stroke="#56d88a" stroke-width="2" d="M677.5,-324C677.5,-324 540.5,-324 540.5,-324 534.5,-324 528.5,-318 528.5,-312 528.5,-312 528.5,-300 528.5,-300 528.5,-294 534.5,-288 540.5,-288 540.5,-288 677.5,-288 677.5,-288 683.5,-288 689.5,-294 689.5,-300 689.5,-300 689.5,-312 689.5,-312 689.5,-318 683.5,-324 677.5,-324"/>
<text text-anchor="middle" x="609" y="-303.5" font-family="sans" font-size="10.00">compute_expression_meanFs</text>
</g>
<!-- 4&#45;&gt;7 -->
<g id="edge22" class="edge"><title>4&#45;&gt;7</title>
<path fill="none" stroke="grey" stroke-width="2" d="M518.355,-359.876C534.045,-350.724 553.557,-339.342 570.454,-329.485"/>
<polygon fill="grey" stroke="grey" stroke-width="2" points="572.658,-332.252 579.532,-324.19 569.13,-326.205 572.658,-332.252"/>
</g>
<!-- 5&#45;&gt;0 -->
<g id="edge5" class="edge"><title>5&#45;&gt;0</title>
<path fill="none" stroke="grey" stroke-width="2" d="M189.968,-143.753C199.085,-123.425 217.018,-90.125 243,-72 289.665,-39.4463 354.174,-26.8087 400.524,-21.9454"/>
<polygon fill="grey" stroke="grey" stroke-width="2" points="401.092,-25.4071 410.713,-20.9701 400.425,-18.4389 401.092,-25.4071"/>
</g>
<!-- 6&#45;&gt;0 -->
<g id="edge6" class="edge"><title>6&#45;&gt;0</title>
<path fill="none" stroke="grey" stroke-width="2" d="M355.589,-287.937C338.546,-279.79 321.421,-268.18 311,-252 267.616,-184.639 254.213,-137.044 301,-72 323.604,-40.5754 365.738,-27.5212 400.813,-22.2188"/>
<polygon fill="grey" stroke="grey" stroke-width="2" points="401.518,-25.6558 410.968,-20.865 400.593,-18.7172 401.518,-25.6558"/>
</g>
<!-- 8 -->
<g id="node9" class="node"><title>8</title>
<path fill="none" stroke="#d8bc56" stroke-width="2" d="M445.5,-252C445.5,-252 332.5,-252 332.5,-252 326.5,-252 320.5,-246 320.5,-240 320.5,-240 320.5,-228 320.5,-228 320.5,-222 326.5,-216 332.5,-216 332.5,-216 445.5,-216 445.5,-216 451.5,-216 457.5,-222 457.5,-228 457.5,-228 457.5,-240 457.5,-240 457.5,-246 451.5,-252 445.5,-252"/>
<text text-anchor="middle" x="389" y="-231.5" font-family="sans" font-size="10.00">global_epistasis_binding</text>
</g>
<!-- 6&#45;&gt;8 -->
<g id="edge23" class="edge"><title>6&#45;&gt;8</title>
<path fill="none" stroke="grey" stroke-width="2" d="M404.056,-287.697C401.828,-279.898 399.145,-270.509 396.665,-261.829"/>
<polygon fill="grey" stroke="grey" stroke-width="2" points="400,-260.758 393.887,-252.104 393.269,-262.681 400,-260.758"/>
</g>
<!-- 10 -->
<g id="node11" class="node"><title>10</title>
<path fill="none" stroke="#88d856" stroke-width="2" d="M547.5,-180C547.5,-180 462.5,-180 462.5,-180 456.5,-180 450.5,-174 450.5,-168 450.5,-168 450.5,-156 450.5,-156 450.5,-150 456.5,-144 462.5,-144 462.5,-144 547.5,-144 547.5,-144 553.5,-144 559.5,-150 559.5,-156 559.5,-156 559.5,-168 559.5,-168 559.5,-174 553.5,-180 547.5,-180"/>
<text text-anchor="middle" x="505" y="-159.5" font-family="sans" font-size="10.00">single_mut_effects</text>
</g>
<!-- 6&#45;&gt;10 -->
<g id="edge27" class="edge"><title>6&#45;&gt;10</title>
<path fill="none" stroke="grey" stroke-width="2" d="M432.124,-287.795C443.748,-278.246 457.372,-265.573 467,-252 480.533,-232.922 490.585,-208.273 496.94,-189.755"/>
<polygon fill="grey" stroke="grey" stroke-width="2" points="500.292,-190.764 500.089,-180.171 493.642,-188.579 500.292,-190.764"/>
</g>
<!-- 7&#45;&gt;0 -->
<g id="edge7" class="edge"><title>7&#45;&gt;0</title>
<path fill="none" stroke="grey" stroke-width="2" d="M664.438,-287.898C682.881,-279.712 702.009,-268.087 715,-252 766.312,-188.459 804.36,-134.681 752,-72 722.662,-36.8794 593.758,-24.9871 517.041,-20.9923"/>
<polygon fill="grey" stroke="grey" stroke-width="2" points="517.197,-17.4959 507.037,-20.5006 516.853,-24.4874 517.197,-17.4959"/>
</g>
<!-- 9 -->
<g id="node10" class="node"><title>9</title>
<path fill="none" stroke="#567bd8" stroke-width="2" d="M694,-252C694,-252 564,-252 564,-252 558,-252 552,-246 552,-240 552,-240 552,-228 552,-228 552,-222 558,-216 564,-216 564,-216 694,-216 694,-216 700,-216 706,-222 706,-228 706,-228 706,-240 706,-240 706,-246 700,-252 694,-252"/>
<text text-anchor="middle" x="629" y="-231.5" font-family="sans" font-size="10.00">global_epistasis_expression</text>
</g>
<!-- 7&#45;&gt;9 -->
<g id="edge24" class="edge"><title>7&#45;&gt;9</title>
<path fill="none" stroke="grey" stroke-width="2" d="M613.944,-287.697C616.172,-279.898 618.855,-270.509 621.335,-261.829"/>
<polygon fill="grey" stroke="grey" stroke-width="2" points="624.731,-262.681 624.113,-252.104 618,-260.758 624.731,-262.681"/>
</g>
<!-- 7&#45;&gt;10 -->
<g id="edge28" class="edge"><title>7&#45;&gt;10</title>
<path fill="none" stroke="grey" stroke-width="2" d="M581.933,-287.915C568.824,-278.574 553.656,-266.051 543,-252 528.78,-233.251 518.745,-208.376 512.573,-189.692"/>
<polygon fill="grey" stroke="grey" stroke-width="2" points="515.873,-188.519 509.539,-180.026 509.194,-190.616 515.873,-188.519"/>
</g>
<!-- 8&#45;&gt;0 -->
<g id="edge8" class="edge"><title>8&#45;&gt;0</title>
<path fill="none" stroke="grey" stroke-width="2" d="M370.113,-215.973C338.521,-185.404 281.561,-119.939 315,-72 334.391,-44.201 370.076,-30.9427 401.069,-24.6383"/>
<polygon fill="grey" stroke="grey" stroke-width="2" points="401.737,-28.0743 410.94,-22.8261 400.473,-21.1893 401.737,-28.0743"/>
</g>
<!-- 8&#45;&gt;10 -->
<g id="edge25" class="edge"><title>8&#45;&gt;10</title>
<path fill="none" stroke="grey" stroke-width="2" d="M417.377,-215.876C432.544,-206.724 451.405,-195.342 467.739,-185.485"/>
<polygon fill="grey" stroke="grey" stroke-width="2" points="469.761,-188.353 476.514,-180.19 466.144,-182.36 469.761,-188.353"/>
</g>
<!-- 9&#45;&gt;0 -->
<g id="edge9" class="edge"><title>9&#45;&gt;0</title>
<path fill="none" stroke="grey" stroke-width="2" d="M654.531,-215.898C696.863,-185.489 773.132,-120.639 733,-72 706.218,-39.5411 589.626,-26.7294 517.435,-21.8467"/>
<polygon fill="grey" stroke="grey" stroke-width="2" points="517.327,-18.3326 507.122,-21.1825 516.877,-25.3181 517.327,-18.3326"/>
</g>
<!-- 9&#45;&gt;10 -->
<g id="edge26" class="edge"><title>9&#45;&gt;10</title>
<path fill="none" stroke="grey" stroke-width="2" d="M598.666,-215.876C582.303,-206.639 561.917,-195.131 544.346,-185.212"/>
<polygon fill="grey" stroke="grey" stroke-width="2" points="545.879,-182.058 535.45,-180.19 542.438,-188.154 545.879,-182.058"/>
</g>
<!-- 10&#45;&gt;0 -->
<g id="edge10" class="edge"><title>10&#45;&gt;0</title>
<path fill="none" stroke="grey" stroke-width="2" d="M495.268,-143.78C489.857,-133.624 483.357,-120.374 479,-108 471.867,-87.7413 466.678,-63.9691 463.376,-46.0918"/>
<polygon fill="grey" stroke="grey" stroke-width="2" points="466.791,-45.3025 461.606,-36.0629 459.897,-46.519 466.791,-45.3025"/>
</g>
<!-- 11 -->
<g id="node12" class="node"><title>11</title>
<path fill="none" stroke="#56c1d8" stroke-width="2" d="M580.5,-108C580.5,-108 499.5,-108 499.5,-108 493.5,-108 487.5,-102 487.5,-96 487.5,-96 487.5,-84 487.5,-84 487.5,-78 493.5,-72 499.5,-72 499.5,-72 580.5,-72 580.5,-72 586.5,-72 592.5,-78 592.5,-84 592.5,-84 592.5,-96 592.5,-96 592.5,-102 586.5,-108 580.5,-108"/>
<text text-anchor="middle" x="540" y="-87.5" font-family="sans" font-size="10.00">structure_function</text>
</g>
<!-- 10&#45;&gt;11 -->
<g id="edge29" class="edge"><title>10&#45;&gt;11</title>
<path fill="none" stroke="grey" stroke-width="2" d="M513.652,-143.697C517.636,-135.728 522.45,-126.1 526.868,-117.264"/>
<polygon fill="grey" stroke="grey" stroke-width="2" points="530.106,-118.614 531.448,-108.104 523.845,-115.483 530.106,-118.614"/>
</g>
<!-- 12 -->
<g id="node13" class="node"><title>12</title>
<path fill="none" stroke="#d87556" stroke-width="2" d="M711.5,-108C711.5,-108 622.5,-108 622.5,-108 616.5,-108 610.5,-102 610.5,-96 610.5,-96 610.5,-84 610.5,-84 610.5,-78 616.5,-72 622.5,-72 622.5,-72 711.5,-72 711.5,-72 717.5,-72 723.5,-78 723.5,-84 723.5,-84 723.5,-96 723.5,-96 723.5,-102 717.5,-108 711.5,-108"/>
<text text-anchor="middle" x="667" y="-87.5" font-family="sans" font-size="10.00">circulating_variants</text>
</g>
<!-- 10&#45;&gt;12 -->
<g id="edge30" class="edge"><title>10&#45;&gt;12</title>
<path fill="none" stroke="grey" stroke-width="2" d="M544.63,-143.876C566.776,-134.307 594.563,-122.3 618.058,-112.148"/>
<polygon fill="grey" stroke="grey" stroke-width="2" points="619.708,-115.248 627.499,-108.068 616.931,-108.822 619.708,-115.248"/>
</g>
<!-- 13 -->
<g id="node14" class="node"><title>13</title>
<path fill="none" stroke="#d85656" stroke-width="2" d="M418.5,-108C418.5,-108 335.5,-108 335.5,-108 329.5,-108 323.5,-102 323.5,-96 323.5,-96 323.5,-84 323.5,-84 323.5,-78 329.5,-72 335.5,-72 335.5,-72 418.5,-72 418.5,-72 424.5,-72 430.5,-78 430.5,-84 430.5,-84 430.5,-96 430.5,-96 430.5,-102 424.5,-108 418.5,-108"/>
<text text-anchor="middle" x="377" y="-87.5" font-family="sans" font-size="10.00">antibody_epitopes</text>
</g>
<!-- 10&#45;&gt;13 -->
<g id="edge31" class="edge"><title>10&#45;&gt;13</title>
<path fill="none" stroke="grey" stroke-width="2" d="M473.688,-143.876C456.797,-134.639 435.753,-123.131 417.615,-113.212"/>
<polygon fill="grey" stroke="grey" stroke-width="2" points="418.886,-109.917 408.433,-108.19 415.527,-116.059 418.886,-109.917"/>
</g>
<!-- 11&#45;&gt;0 -->
<g id="edge11" class="edge"><title>11&#45;&gt;0</title>
<path fill="none" stroke="grey" stroke-width="2" d="M519.978,-71.6966C509.874,-62.9655 497.464,-52.2405 486.482,-42.7503"/>
<polygon fill="grey" stroke="grey" stroke-width="2" points="488.647,-39.9948 478.792,-36.1043 484.07,-45.2912 488.647,-39.9948"/>
</g>
<!-- 12&#45;&gt;0 -->
<g id="edge12" class="edge"><title>12&#45;&gt;0</title>
<path fill="none" stroke="grey" stroke-width="2" d="M616.383,-71.9656C586.435,-61.8869 548.384,-49.0813 517.199,-38.5862"/>
<polygon fill="grey" stroke="grey" stroke-width="2" points="517.928,-35.1388 507.334,-35.2663 515.696,-41.7732 517.928,-35.1388"/>
</g>
<!-- 13&#45;&gt;0 -->
<g id="edge13" class="edge"><title>13&#45;&gt;0</title>
<path fill="none" stroke="grey" stroke-width="2" d="M397.27,-71.6966C407.498,-62.9655 420.061,-52.2405 431.178,-42.7503"/>
<polygon fill="grey" stroke="grey" stroke-width="2" points="433.63,-45.259 438.963,-36.1043 429.085,-39.935 433.63,-45.259"/>
</g>
<!-- 14 -->
<g id="node15" class="node"><title>14</title>
<path fill="none" stroke="#68d856" stroke-width="2" d="M132,-612C132,-612 12,-612 12,-612 6,-612 0,-606 0,-600 0,-600 0,-588 0,-588 0,-582 6,-576 12,-576 12,-576 132,-576 132,-576 138,-576 144,-582 144,-588 144,-588 144,-600 144,-600 144,-606 138,-612 132,-612"/>
<text text-anchor="middle" x="72" y="-597" font-family="sans" font-size="10.00">build_ccs</text>
<text text-anchor="middle" x="72" y="-586" font-family="sans" font-size="10.00">pacbioRun: lib1_200415_A</text>
</g>
<!-- 14&#45;&gt;2 -->
<g id="edge14" class="edge"><title>14&#45;&gt;2</title>
<path fill="none" stroke="grey" stroke-width="2" d="M131.134,-575.966C172.917,-563.929 228.202,-548.004 267.202,-536.769"/>
<polygon fill="grey" stroke="grey" stroke-width="2" points="268.605,-540.007 277.246,-533.876 266.668,-533.281 268.605,-540.007"/>
</g>
<!-- 15 -->
<g id="node16" class="node"><title>15</title>
<path fill="none" stroke="#68d856" stroke-width="2" d="M294,-612C294,-612 174,-612 174,-612 168,-612 162,-606 162,-600 162,-600 162,-588 162,-588 162,-582 168,-576 174,-576 174,-576 294,-576 294,-576 300,-576 306,-582 306,-588 306,-588 306,-600 306,-600 306,-606 300,-612 294,-612"/>
<text text-anchor="middle" x="234" y="-597" font-family="sans" font-size="10.00">build_ccs</text>
<text text-anchor="middle" x="234" y="-586" font-family="sans" font-size="10.00">pacbioRun: lib1_200415_B</text>
</g>
<!-- 15&#45;&gt;2 -->
<g id="edge15" class="edge"><title>15&#45;&gt;2</title>
<path fill="none" stroke="grey" stroke-width="2" d="M254.022,-575.697C264.126,-566.965 276.536,-556.24 287.518,-546.75"/>
<polygon fill="grey" stroke="grey" stroke-width="2" points="289.93,-549.291 295.208,-540.104 285.353,-543.995 289.93,-549.291"/>
</g>
<!-- 16 -->
<g id="node17" class="node"><title>16</title>
<path fill="none" stroke="#68d856" stroke-width="2" d="M456,-612C456,-612 336,-612 336,-612 330,-612 324,-606 324,-600 324,-600 324,-588 324,-588 324,-582 330,-576 336,-576 336,-576 456,-576 456,-576 462,-576 468,-582 468,-588 468,-588 468,-600 468,-600 468,-606 462,-612 456,-612"/>
<text text-anchor="middle" x="396" y="-597" font-family="sans" font-size="10.00">build_ccs</text>
<text text-anchor="middle" x="396" y="-586" font-family="sans" font-size="10.00">pacbioRun: lib2_200415_A</text>
</g>
<!-- 16&#45;&gt;2 -->
<g id="edge16" class="edge"><title>16&#45;&gt;2</title>
<path fill="none" stroke="grey" stroke-width="2" d="M375.978,-575.697C365.874,-566.965 353.464,-556.24 342.482,-546.75"/>
<polygon fill="grey" stroke="grey" stroke-width="2" points="344.647,-543.995 334.792,-540.104 340.07,-549.291 344.647,-543.995"/>
</g>
<!-- 17 -->
<g id="node18" class="node"><title>17</title>
<path fill="none" stroke="#68d856" stroke-width="2" d="M618,-612C618,-612 498,-612 498,-612 492,-612 486,-606 486,-600 486,-600 486,-588 486,-588 486,-582 492,-576 498,-576 498,-576 618,-576 618,-576 624,-576 630,-582 630,-588 630,-588 630,-600 630,-600 630,-606 624,-612 618,-612"/>
<text text-anchor="middle" x="558" y="-597" font-family="sans" font-size="10.00">build_ccs</text>
<text text-anchor="middle" x="558" y="-586" font-family="sans" font-size="10.00">pacbioRun: lib2_200415_B</text>
</g>
<!-- 17&#45;&gt;2 -->
<g id="edge17" class="edge"><title>17&#45;&gt;2</title>
<path fill="none" stroke="grey" stroke-width="2" d="M498.866,-575.966C457.083,-563.929 401.798,-548.004 362.798,-536.769"/>
<polygon fill="grey" stroke="grey" stroke-width="2" points="363.332,-533.281 352.754,-533.876 361.395,-540.007 363.332,-533.281"/>
</g>
</g>
</svg>
