<?xml version="1.0" encoding="UTF-8" standalone="no"?>
<!DOCTYPE svg PUBLIC "-//W3C//DTD SVG 1.1//EN"
 "http://www.w3.org/Graphics/SVG/1.1/DTD/svg11.dtd">
<!-- Generated by graphviz version 2.38.0 (20140413.2041)
 -->
<!-- Title: snakemake_dag Pages: 1 -->
<svg width="867pt" height="548pt"
 viewBox="0.00 0.00 867.00 548.00" xmlns="http://www.w3.org/2000/svg" xmlns:xlink="http://www.w3.org/1999/xlink">
<g id="graph0" class="graph" transform="scale(1 1) rotate(0) translate(4 544)">
<title>snakemake_dag</title>
<polygon fill="white" stroke="none" points="-4,4 -4,-544 863,-544 863,4 -4,4"/>
<!-- 0 -->
<g id="node1" class="node"><title>0</title>
<path fill="none" stroke="#56a9d8" stroke-width="2" d="M526,-36C526,-36 454,-36 454,-36 448,-36 442,-30 442,-24 442,-24 442,-12 442,-12 442,-6 448,-0 454,-0 454,-0 526,-0 526,-0 532,-0 538,-6 538,-12 538,-12 538,-24 538,-24 538,-30 532,-36 526,-36"/>
<text text-anchor="middle" x="490" y="-15.5" font-family="sans" font-size="10.00">make_summary</text>
</g>
<!-- 1 -->
<g id="node2" class="node"><title>1</title>
<path fill="none" stroke="#d6d856" stroke-width="2" d="M153,-108C153,-108 109,-108 109,-108 103,-108 97,-102 97,-96 97,-96 97,-84 97,-84 97,-78 103,-72 109,-72 109,-72 153,-72 153,-72 159,-72 165,-78 165,-84 165,-84 165,-96 165,-96 165,-102 159,-108 153,-108"/>
<text text-anchor="middle" x="131" y="-87.5" font-family="sans" font-size="10.00">make_dag</text>
</g>
<!-- 1&#45;&gt;0 -->
<g id="edge1" class="edge"><title>1&#45;&gt;0</title>
<path fill="none" stroke="grey" stroke-width="2" d="M165.126,-76.1103C169.751,-74.6001 174.466,-73.18 179,-72 265.739,-49.4273 368.663,-34.0566 431.638,-25.9037"/>
<polygon fill="grey" stroke="grey" stroke-width="2" points="432.298,-29.3479 441.774,-24.6092 431.412,-22.4043 432.298,-29.3479"/>
</g>
<!-- 2 -->
<g id="node3" class="node"><title>2</title>
<path fill="none" stroke="#5682d8" stroke-width="2" d="M340.5,-468C340.5,-468 289.5,-468 289.5,-468 283.5,-468 277.5,-462 277.5,-456 277.5,-456 277.5,-444 277.5,-444 277.5,-438 283.5,-432 289.5,-432 289.5,-432 340.5,-432 340.5,-432 346.5,-432 352.5,-438 352.5,-444 352.5,-444 352.5,-456 352.5,-456 352.5,-462 346.5,-468 340.5,-468"/>
<text text-anchor="middle" x="315" y="-447.5" font-family="sans" font-size="10.00">process_ccs</text>
</g>
<!-- 2&#45;&gt;0 -->
<g id="edge2" class="edge"><title>2&#45;&gt;0</title>
<path fill="none" stroke="grey" stroke-width="2" d="M285.155,-431.832C249.038,-408.57 193,-363.391 193,-307 193,-307 193,-307 193,-161 193,-56.2395 345.264,-28.6989 431.746,-21.5054"/>
<polygon fill="grey" stroke="grey" stroke-width="2" points="432.248,-24.9774 441.952,-20.7252 431.714,-17.9977 432.248,-24.9774"/>
</g>
<!-- 3 -->
<g id="node4" class="node"><title>3</title>
<path fill="none" stroke="#56d882" stroke-width="2" d="M609,-396C609,-396 547,-396 547,-396 541,-396 535,-390 535,-384 535,-384 535,-372 535,-372 535,-366 541,-360 547,-360 547,-360 609,-360 609,-360 615,-360 621,-366 621,-372 621,-372 621,-384 621,-384 621,-390 615,-396 609,-396"/>
<text text-anchor="middle" x="578" y="-375.5" font-family="sans" font-size="10.00">build_variants</text>
</g>
<!-- 2&#45;&gt;3 -->
<g id="edge15" class="edge"><title>2&#45;&gt;3</title>
<path fill="none" stroke="grey" stroke-width="2" d="M352.681,-438.971C397.822,-426.956 473.738,-406.75 524.831,-393.151"/>
<polygon fill="grey" stroke="grey" stroke-width="2" points="525.939,-396.479 534.702,-390.524 524.138,-389.714 525.939,-396.479"/>
</g>
<!-- 3&#45;&gt;0 -->
<g id="edge3" class="edge"><title>3&#45;&gt;0</title>
<path fill="none" stroke="grey" stroke-width="2" d="M621.29,-374.545C700.113,-367.491 859,-340.22 859,-235 859,-235 859,-235 859,-161 859,-101.17 811.643,-98.4962 758,-72 690.945,-38.8794 604.816,-26.4521 548.551,-21.7919"/>
<polygon fill="grey" stroke="grey" stroke-width="2" points="548.644,-18.2887 538.404,-21.0089 548.105,-25.268 548.644,-18.2887"/>
</g>
<!-- 4 -->
<g id="node5" class="node"><title>4</title>
<path fill="none" stroke="#d88556" stroke-width="2" d="M610.5,-324C610.5,-324 545.5,-324 545.5,-324 539.5,-324 533.5,-318 533.5,-312 533.5,-312 533.5,-300 533.5,-300 533.5,-294 539.5,-288 545.5,-288 545.5,-288 610.5,-288 610.5,-288 616.5,-288 622.5,-294 622.5,-300 622.5,-300 622.5,-312 622.5,-312 622.5,-318 616.5,-324 610.5,-324"/>
<text text-anchor="middle" x="578" y="-303.5" font-family="sans" font-size="10.00">count_variants</text>
</g>
<!-- 3&#45;&gt;4 -->
<g id="edge16" class="edge"><title>3&#45;&gt;4</title>
<path fill="none" stroke="grey" stroke-width="2" d="M578,-359.697C578,-351.983 578,-342.712 578,-334.112"/>
<polygon fill="grey" stroke="grey" stroke-width="2" points="581.5,-334.104 578,-324.104 574.5,-334.104 581.5,-334.104"/>
</g>
<!-- 4&#45;&gt;0 -->
<g id="edge4" class="edge"><title>4&#45;&gt;0</title>
<path fill="none" stroke="grey" stroke-width="2" d="M622.696,-296.794C654.69,-289.234 697.501,-275.523 729,-252 771.685,-220.124 798.506,-194.316 781,-144 767.589,-105.452 758.538,-93.7471 724,-72 670.578,-38.362 598.395,-25.9769 548.389,-21.4701"/>
<polygon fill="grey" stroke="grey" stroke-width="2" points="548.636,-17.9787 538.382,-20.6465 548.062,-24.9551 548.636,-17.9787"/>
</g>
<!-- 5 -->
<g id="node6" class="node"><title>5</title>
<path fill="none" stroke="#d85656" stroke-width="2" d="M301,-180C301,-180 233,-180 233,-180 227,-180 221,-174 221,-168 221,-168 221,-156 221,-156 221,-150 227,-144 233,-144 233,-144 301,-144 301,-144 307,-144 313,-150 313,-156 313,-156 313,-168 313,-168 313,-174 307,-180 301,-180"/>
<text text-anchor="middle" x="267" y="-159.5" font-family="sans" font-size="10.00">analyze_counts</text>
</g>
<!-- 4&#45;&gt;5 -->
<g id="edge17" class="edge"><title>4&#45;&gt;5</title>
<path fill="none" stroke="grey" stroke-width="2" d="M533.487,-297.465C493.678,-289.622 434.463,-275.186 387,-252 351.767,-234.789 316.3,-206.868 293.161,-186.889"/>
<polygon fill="grey" stroke="grey" stroke-width="2" points="295.338,-184.143 285.511,-180.184 290.724,-189.407 295.338,-184.143"/>
</g>
<!-- 6 -->
<g id="node7" class="node"><title>6</title>
<path fill="none" stroke="#afd856" stroke-width="2" d="M508,-252C508,-252 408,-252 408,-252 402,-252 396,-246 396,-240 396,-240 396,-228 396,-228 396,-222 402,-216 408,-216 408,-216 508,-216 508,-216 514,-216 520,-222 520,-228 520,-228 520,-240 520,-240 520,-246 514,-252 508,-252"/>
<text text-anchor="middle" x="458" y="-231.5" font-family="sans" font-size="10.00">compute_Titeseq_Kds</text>
</g>
<!-- 4&#45;&gt;6 -->
<g id="edge18" class="edge"><title>4&#45;&gt;6</title>
<path fill="none" stroke="grey" stroke-width="2" d="M548.645,-287.876C532.955,-278.724 513.443,-267.342 496.546,-257.485"/>
<polygon fill="grey" stroke="grey" stroke-width="2" points="497.87,-254.205 487.468,-252.19 494.342,-260.252 497.87,-254.205"/>
</g>
<!-- 7 -->
<g id="node8" class="node"><title>7</title>
<path fill="none" stroke="#56d8a9" stroke-width="2" d="M707.5,-252C707.5,-252 570.5,-252 570.5,-252 564.5,-252 558.5,-246 558.5,-240 558.5,-240 558.5,-228 558.5,-228 558.5,-222 564.5,-216 570.5,-216 570.5,-216 707.5,-216 707.5,-216 713.5,-216 719.5,-222 719.5,-228 719.5,-228 719.5,-240 719.5,-240 719.5,-246 713.5,-252 707.5,-252"/>
<text text-anchor="middle" x="639" y="-231.5" font-family="sans" font-size="10.00">compute_expression_meanFs</text>
</g>
<!-- 4&#45;&gt;7 -->
<g id="edge19" class="edge"><title>4&#45;&gt;7</title>
<path fill="none" stroke="grey" stroke-width="2" d="M593.079,-287.697C600.392,-279.305 609.31,-269.07 617.335,-259.861"/>
<polygon fill="grey" stroke="grey" stroke-width="2" points="620.164,-261.943 624.095,-252.104 614.886,-257.344 620.164,-261.943"/>
</g>
<!-- 5&#45;&gt;0 -->
<g id="edge5" class="edge"><title>5&#45;&gt;0</title>
<path fill="none" stroke="grey" stroke-width="2" d="M274.366,-143.718C283.76,-123.673 301.853,-90.9584 327,-72 357.577,-48.9475 398.602,-35.6786 431.844,-28.1823"/>
<polygon fill="grey" stroke="grey" stroke-width="2" points="432.842,-31.5482 441.89,-26.0368 431.38,-24.7026 432.842,-31.5482"/>
</g>
<!-- 6&#45;&gt;0 -->
<g id="edge6" class="edge"><title>6&#45;&gt;0</title>
<path fill="none" stroke="grey" stroke-width="2" d="M403.18,-215.961C386.342,-207.866 369.705,-196.283 360,-180 351.808,-166.256 353.732,-158.721 360,-144 378.834,-99.7617 421.85,-63.6183 453.26,-41.7764"/>
<polygon fill="grey" stroke="grey" stroke-width="2" points="455.467,-44.5083 461.781,-36.0003 451.54,-38.7139 455.467,-44.5083"/>
</g>
<!-- 8 -->
<g id="node9" class="node"><title>8</title>
<path fill="none" stroke="#80d856" stroke-width="2" d="M494.5,-180C494.5,-180 381.5,-180 381.5,-180 375.5,-180 369.5,-174 369.5,-168 369.5,-168 369.5,-156 369.5,-156 369.5,-150 375.5,-144 381.5,-144 381.5,-144 494.5,-144 494.5,-144 500.5,-144 506.5,-150 506.5,-156 506.5,-156 506.5,-168 506.5,-168 506.5,-174 500.5,-180 494.5,-180"/>
<text text-anchor="middle" x="438" y="-159.5" font-family="sans" font-size="10.00">global_epistasis_binding</text>
</g>
<!-- 6&#45;&gt;8 -->
<g id="edge20" class="edge"><title>6&#45;&gt;8</title>
<path fill="none" stroke="grey" stroke-width="2" d="M453.056,-215.697C450.828,-207.898 448.145,-198.509 445.665,-189.829"/>
<polygon fill="grey" stroke="grey" stroke-width="2" points="449,-188.758 442.887,-180.104 442.269,-190.681 449,-188.758"/>
</g>
<!-- 10 -->
<g id="node11" class="node"><title>10</title>
<path fill="none" stroke="#56d8d8" stroke-width="2" d="M577.5,-108C577.5,-108 492.5,-108 492.5,-108 486.5,-108 480.5,-102 480.5,-96 480.5,-96 480.5,-84 480.5,-84 480.5,-78 486.5,-72 492.5,-72 492.5,-72 577.5,-72 577.5,-72 583.5,-72 589.5,-78 589.5,-84 589.5,-84 589.5,-96 589.5,-96 589.5,-102 583.5,-108 577.5,-108"/>
<text text-anchor="middle" x="535" y="-87.5" font-family="sans" font-size="10.00">single_mut_effects</text>
</g>
<!-- 6&#45;&gt;10 -->
<g id="edge24" class="edge"><title>6&#45;&gt;10</title>
<path fill="none" stroke="grey" stroke-width="2" d="M482.33,-215.924C493.894,-206.585 506.923,-194.061 515,-180 525.88,-161.059 530.842,-136.692 533.104,-118.245"/>
<polygon fill="grey" stroke="grey" stroke-width="2" points="536.601,-118.46 534.149,-108.153 529.638,-117.74 536.601,-118.46"/>
</g>
<!-- 7&#45;&gt;0 -->
<g id="edge7" class="edge"><title>7&#45;&gt;0</title>
<path fill="none" stroke="grey" stroke-width="2" d="M717.328,-215.871C735.647,-208.025 753.003,-196.607 764,-180 772.834,-166.66 772.189,-157.745 764,-144 718.818,-68.1633 614.057,-37.9876 547.953,-26.2306"/>
<polygon fill="grey" stroke="grey" stroke-width="2" points="548.535,-22.7794 538.092,-24.5618 547.367,-29.6813 548.535,-22.7794"/>
</g>
<!-- 9 -->
<g id="node10" class="node"><title>9</title>
<path fill="none" stroke="#59d856" stroke-width="2" d="M743,-180C743,-180 613,-180 613,-180 607,-180 601,-174 601,-168 601,-168 601,-156 601,-156 601,-150 607,-144 613,-144 613,-144 743,-144 743,-144 749,-144 755,-150 755,-156 755,-156 755,-168 755,-168 755,-174 749,-180 743,-180"/>
<text text-anchor="middle" x="678" y="-159.5" font-family="sans" font-size="10.00">global_epistasis_expression</text>
</g>
<!-- 7&#45;&gt;9 -->
<g id="edge21" class="edge"><title>7&#45;&gt;9</title>
<path fill="none" stroke="grey" stroke-width="2" d="M648.64,-215.697C653.127,-207.644 658.559,-197.894 663.524,-188.982"/>
<polygon fill="grey" stroke="grey" stroke-width="2" points="666.661,-190.544 668.47,-180.104 660.546,-187.137 666.661,-190.544"/>
</g>
<!-- 7&#45;&gt;10 -->
<g id="edge25" class="edge"><title>7&#45;&gt;10</title>
<path fill="none" stroke="grey" stroke-width="2" d="M622.622,-215.916C613.246,-205.805 601.496,-192.555 592,-180 576.636,-159.687 561.176,-135.237 550.24,-117.108"/>
<polygon fill="grey" stroke="grey" stroke-width="2" points="553.089,-115.052 544.959,-108.259 547.079,-118.639 553.089,-115.052"/>
</g>
<!-- 8&#45;&gt;0 -->
<g id="edge8" class="edge"><title>8&#45;&gt;0</title>
<path fill="none" stroke="grey" stroke-width="2" d="M444.272,-143.871C453.213,-119.457 469.703,-74.4258 480.246,-45.6351"/>
<polygon fill="grey" stroke="grey" stroke-width="2" points="483.553,-46.783 483.705,-36.1893 476.98,-44.3759 483.553,-46.783"/>
</g>
<!-- 8&#45;&gt;10 -->
<g id="edge22" class="edge"><title>8&#45;&gt;10</title>
<path fill="none" stroke="grey" stroke-width="2" d="M461.978,-143.697C474.311,-134.796 489.516,-123.823 502.853,-114.199"/>
<polygon fill="grey" stroke="grey" stroke-width="2" points="505.237,-116.794 511.298,-108.104 501.141,-111.118 505.237,-116.794"/>
</g>
<!-- 9&#45;&gt;0 -->
<g id="edge9" class="edge"><title>9&#45;&gt;0</title>
<path fill="none" stroke="grey" stroke-width="2" d="M665.963,-143.767C651.736,-124.368 626.494,-92.8454 599,-72 582.432,-59.4389 562.416,-48.6787 544.082,-40.2005"/>
<polygon fill="grey" stroke="grey" stroke-width="2" points="545.514,-37.0069 534.958,-36.1011 542.645,-43.392 545.514,-37.0069"/>
</g>
<!-- 9&#45;&gt;10 -->
<g id="edge23" class="edge"><title>9&#45;&gt;10</title>
<path fill="none" stroke="grey" stroke-width="2" d="M643.018,-143.876C623.802,-134.469 599.774,-122.708 579.263,-112.667"/>
<polygon fill="grey" stroke="grey" stroke-width="2" points="580.637,-109.443 570.116,-108.19 577.559,-115.73 580.637,-109.443"/>
</g>
<!-- 10&#45;&gt;0 -->
<g id="edge10" class="edge"><title>10&#45;&gt;0</title>
<path fill="none" stroke="grey" stroke-width="2" d="M523.876,-71.6966C518.645,-63.5589 512.3,-53.689 506.522,-44.7013"/>
<polygon fill="grey" stroke="grey" stroke-width="2" points="509.347,-42.6235 500.996,-36.1043 503.459,-46.4088 509.347,-42.6235"/>
</g>
<!-- 11 -->
<g id="node12" class="node"><title>11</title>
<path fill="none" stroke="#d8ac56" stroke-width="2" d="M132,-540C132,-540 12,-540 12,-540 6,-540 0,-534 0,-528 0,-528 0,-516 0,-516 0,-510 6,-504 12,-504 12,-504 132,-504 132,-504 138,-504 144,-510 144,-516 144,-516 144,-528 144,-528 144,-534 138,-540 132,-540"/>
<text text-anchor="middle" x="72" y="-525" font-family="sans" font-size="10.00">build_ccs</text>
<text text-anchor="middle" x="72" y="-514" font-family="sans" font-size="10.00">pacbioRun: lib1_200415_A</text>
</g>
<!-- 11&#45;&gt;2 -->
<g id="edge11" class="edge"><title>11&#45;&gt;2</title>
<path fill="none" stroke="grey" stroke-width="2" d="M131.134,-503.966C172.917,-491.929 228.202,-476.004 267.202,-464.769"/>
<polygon fill="grey" stroke="grey" stroke-width="2" points="268.605,-468.007 277.246,-461.876 266.668,-461.281 268.605,-468.007"/>
</g>
<!-- 12 -->
<g id="node13" class="node"><title>12</title>
<path fill="none" stroke="#d8ac56" stroke-width="2" d="M294,-540C294,-540 174,-540 174,-540 168,-540 162,-534 162,-528 162,-528 162,-516 162,-516 162,-510 168,-504 174,-504 174,-504 294,-504 294,-504 300,-504 306,-510 306,-516 306,-516 306,-528 306,-528 306,-534 300,-540 294,-540"/>
<text text-anchor="middle" x="234" y="-525" font-family="sans" font-size="10.00">build_ccs</text>
<text text-anchor="middle" x="234" y="-514" font-family="sans" font-size="10.00">pacbioRun: lib1_200415_B</text>
</g>
<!-- 12&#45;&gt;2 -->
<g id="edge12" class="edge"><title>12&#45;&gt;2</title>
<path fill="none" stroke="grey" stroke-width="2" d="M254.022,-503.697C264.126,-494.965 276.536,-484.24 287.518,-474.75"/>
<polygon fill="grey" stroke="grey" stroke-width="2" points="289.93,-477.291 295.208,-468.104 285.353,-471.995 289.93,-477.291"/>
</g>
<!-- 13 -->
<g id="node14" class="node"><title>13</title>
<path fill="none" stroke="#d8ac56" stroke-width="2" d="M456,-540C456,-540 336,-540 336,-540 330,-540 324,-534 324,-528 324,-528 324,-516 324,-516 324,-510 330,-504 336,-504 336,-504 456,-504 456,-504 462,-504 468,-510 468,-516 468,-516 468,-528 468,-528 468,-534 462,-540 456,-540"/>
<text text-anchor="middle" x="396" y="-525" font-family="sans" font-size="10.00">build_ccs</text>
<text text-anchor="middle" x="396" y="-514" font-family="sans" font-size="10.00">pacbioRun: lib2_200415_A</text>
</g>
<!-- 13&#45;&gt;2 -->
<g id="edge13" class="edge"><title>13&#45;&gt;2</title>
<path fill="none" stroke="grey" stroke-width="2" d="M375.978,-503.697C365.874,-494.965 353.464,-484.24 342.482,-474.75"/>
<polygon fill="grey" stroke="grey" stroke-width="2" points="344.647,-471.995 334.792,-468.104 340.07,-477.291 344.647,-471.995"/>
</g>
<!-- 14 -->
<g id="node15" class="node"><title>14</title>
<path fill="none" stroke="#d8ac56" stroke-width="2" d="M618,-540C618,-540 498,-540 498,-540 492,-540 486,-534 486,-528 486,-528 486,-516 486,-516 486,-510 492,-504 498,-504 498,-504 618,-504 618,-504 624,-504 630,-510 630,-516 630,-516 630,-528 630,-528 630,-534 624,-540 618,-540"/>
<text text-anchor="middle" x="558" y="-525" font-family="sans" font-size="10.00">build_ccs</text>
<text text-anchor="middle" x="558" y="-514" font-family="sans" font-size="10.00">pacbioRun: lib2_200415_B</text>
</g>
<!-- 14&#45;&gt;2 -->
<g id="edge14" class="edge"><title>14&#45;&gt;2</title>
<path fill="none" stroke="grey" stroke-width="2" d="M498.866,-503.966C457.083,-491.929 401.798,-476.004 362.798,-464.769"/>
<polygon fill="grey" stroke="grey" stroke-width="2" points="363.332,-461.281 352.754,-461.876 361.395,-468.007 363.332,-461.281"/>
</g>
</g>
</svg>
